<svg width="24" height="32" viewBox="0 0 24 32" fill="none" xmlns="http://www.w3.org/2000/svg">
<mask id="path-1-inside-1_203_25" fill="white">
<path fill-rule="evenodd" clip-rule="evenodd" d="M19.1518 32H4.33694V14.2222H0L11.8036 3.8147e-06L23.6072 14.2222H19.1518V32Z"/>
</mask>
<path fill-rule="evenodd" clip-rule="evenodd" d="M19.1518 32H4.33694V14.2222H0L11.8036 3.8147e-06L23.6072 14.2222H19.1518V32Z" fill="url(#paint0_linear_203_25)"/>
<path d="M4.33694 32V32.5H3.83694V32H4.33694ZM19.1518 32H19.6518V32.5H19.1518V32ZM4.33694 14.2222V13.7222H4.83694V14.2222H4.33694ZM0 14.2222V14.7222H-1.06474L-0.384752 13.9029L0 14.2222ZM11.8036 3.8147e-06L11.4189 -0.319317L11.8036 -0.782907L12.1884 -0.319317L11.8036 3.8147e-06ZM23.6072 14.2222L23.992 13.9029L24.6719 14.7222H23.6072V14.2222ZM19.1518 14.2222H18.6518V13.7222H19.1518V14.2222ZM4.33694 31.5H19.1518V32.5H4.33694V31.5ZM4.83694 14.2222V32H3.83694V14.2222H4.83694ZM0 13.7222H4.33694V14.7222H0V13.7222ZM12.1884 0.319325L0.384752 14.5415L-0.384752 13.9029L11.4189 -0.319317L12.1884 0.319325ZM23.2225 14.5416L11.4189 0.319325L12.1884 -0.319317L23.992 13.9029L23.2225 14.5416ZM19.1518 13.7222H23.6072V14.7222H19.1518V13.7222ZM18.6518 32V14.2222H19.6518V32H18.6518Z" fill="black" mask="url(#path-1-inside-1_203_25)"/>
<defs>
<linearGradient id="paint0_linear_203_25" x1="19.3295" y1="32" x2="4.57398" y2="2.19259" gradientUnits="userSpaceOnUse">
<stop stop-color="#AFAFAF"/>
<stop offset="0.494792" stop-color="#CFCECE"/>
<stop offset="0.984375" stop-color="#E9E7E7"/>
</linearGradient>
</defs>
</svg>
