<svg width="24" height="32" viewBox="0 0 24 32" fill="none" xmlns="http://www.w3.org/2000/svg">
<mask id="path-1-inside-1_203_28" fill="white">
<path fill-rule="evenodd" clip-rule="evenodd" d="M19.1518 0H4.33694V17.7778H0L11.8036 32L23.6072 17.7778H19.1518V0Z"/>
</mask>
<path fill-rule="evenodd" clip-rule="evenodd" d="M19.1518 0H4.33694V17.7778H0L11.8036 32L23.6072 17.7778H19.1518V0Z" fill="url(#paint0_linear_203_28)"/>
<path d="M4.33694 0V-0.5H3.83694V0H4.33694ZM19.1518 0H19.6518V-0.5H19.1518V0ZM4.33694 17.7778V18.2778H4.83694V17.7778H4.33694ZM0 17.7778V17.2778H-1.06474L-0.384752 18.0971L0 17.7778ZM11.8036 32L11.4189 32.3193L11.8036 32.7829L12.1884 32.3193L11.8036 32ZM23.6072 17.7778L23.992 18.0971L24.6719 17.2778H23.6072V17.7778ZM19.1518 17.7778H18.6518V18.2778H19.1518V17.7778ZM4.33694 0.5H19.1518V-0.5H4.33694V0.5ZM4.83694 17.7778V0H3.83694V17.7778H4.83694ZM0 18.2778H4.33694V17.2778H0V18.2778ZM12.1884 31.6807L0.384752 17.4585L-0.384752 18.0971L11.4189 32.3193L12.1884 31.6807ZM23.2225 17.4584L11.4189 31.6807L12.1884 32.3193L23.992 18.0971L23.2225 17.4584ZM19.1518 18.2778H23.6072V17.2778H19.1518V18.2778ZM18.6518 0V17.7778H19.6518V0H18.6518Z" fill="black" mask="url(#path-1-inside-1_203_28)"/>
<defs>
<linearGradient id="paint0_linear_203_28" x1="19.3295" y1="9.71092e-07" x2="4.57398" y2="29.8074" gradientUnits="userSpaceOnUse">
<stop stop-color="#AFAFAF"/>
<stop offset="0.494792" stop-color="#CFCECE"/>
<stop offset="0.984375" stop-color="#E9E7E7"/>
</linearGradient>
</defs>
</svg>
