<svg width="32" height="24" viewBox="0 0 32 24" fill="none" xmlns="http://www.w3.org/2000/svg">
<mask id="path-1-inside-1_203_34" fill="white">
<path fill-rule="evenodd" clip-rule="evenodd" d="M2.28382e-07 19.1518L5.17175e-08 4.33694L17.7778 4.33694L17.7778 -2.11998e-07L32 11.8036L17.7778 23.6072L17.7778 19.1518L2.28382e-07 19.1518Z"/>
</mask>
<path fill-rule="evenodd" clip-rule="evenodd" d="M2.28382e-07 19.1518L5.17175e-08 4.33694L17.7778 4.33694L17.7778 -2.11998e-07L32 11.8036L17.7778 23.6072L17.7778 19.1518L2.28382e-07 19.1518Z" fill="url(#paint0_linear_203_34)"/>
<path d="M5.17175e-08 4.33694L-0.5 4.33694L-0.5 3.83694L4.57551e-08 3.83694L5.17175e-08 4.33694ZM2.28382e-07 19.1518L2.34345e-07 19.6518L-0.5 19.6518L-0.5 19.1518L2.28382e-07 19.1518ZM17.7778 4.33694L18.2778 4.33694L18.2778 4.83694L17.7778 4.83694L17.7778 4.33694ZM17.7778 -2.11998e-07L17.2778 -2.06035e-07L17.2778 -1.06474L18.0971 -0.384752L17.7778 -2.11998e-07ZM32 11.8036L32.3193 11.4189L32.7829 11.8036L32.3193 12.1884L32 11.8036ZM17.7778 23.6072L18.0971 23.992L17.2778 24.6719L17.2778 23.6072L17.7778 23.6072ZM17.7778 19.1518L17.7778 18.6518L18.2778 18.6518L18.2778 19.1518L17.7778 19.1518ZM0.5 4.33694L0.5 19.1518L-0.5 19.1518L-0.5 4.33694L0.5 4.33694ZM17.7778 4.83694L5.76799e-08 4.83694L4.57551e-08 3.83694L17.7778 3.83694L17.7778 4.83694ZM18.2778 -2.1796e-07L18.2778 4.33694L17.2778 4.33694L17.2778 -2.06035e-07L18.2778 -2.1796e-07ZM31.6807 12.1884L17.4585 0.384752L18.0971 -0.384752L32.3193 11.4189L31.6807 12.1884ZM17.4585 23.2225L31.6807 11.4189L32.3193 12.1884L18.0971 23.992L17.4585 23.2225ZM18.2778 19.1518L18.2778 23.6072L17.2778 23.6072L17.2778 19.1518L18.2778 19.1518ZM2.2242e-07 18.6518L17.7778 18.6518L17.7778 19.6518L2.34345e-07 19.6518L2.2242e-07 18.6518Z" fill="black" mask="url(#path-1-inside-1_203_34)"/>
<defs>
<linearGradient id="paint0_linear_203_34" x1="1.20159e-06" y1="19.3295" x2="29.8074" y2="4.57398" gradientUnits="userSpaceOnUse">
<stop stop-color="#AFAFAF"/>
<stop offset="0.494792" stop-color="#CFCECE"/>
<stop offset="0.984375" stop-color="#E9E7E7"/>
</linearGradient>
</defs>
</svg>
