<svg width="32" height="24" viewBox="0 0 32 24" fill="none" xmlns="http://www.w3.org/2000/svg">
<mask id="path-1-inside-1_203_22" fill="white">
<path fill-rule="evenodd" clip-rule="evenodd" d="M32 4.45545L32 19.2703L14.2222 19.2703L14.2222 23.6072L4.33065e-06 11.8036L14.2222 -7.77091e-07L14.2222 4.45545L32 4.45545Z"/>
</mask>
<path fill-rule="evenodd" clip-rule="evenodd" d="M32 4.45545L32 19.2703L14.2222 19.2703L14.2222 23.6072L4.33065e-06 11.8036L14.2222 -7.77091e-07L14.2222 4.45545L32 4.45545Z" fill="url(#paint0_linear_203_22)"/>
<path d="M32 19.2703L32.5 19.2703L32.5 19.7703L32 19.7703L32 19.2703ZM32 4.45545L32 3.95545L32.5 3.95545L32.5 4.45545L32 4.45545ZM14.2222 19.2703L13.7222 19.2703L13.7222 18.7703L14.2222 18.7703L14.2222 19.2703ZM14.2222 23.6072L14.7222 23.6072L14.7222 24.6719L13.9029 23.992L14.2222 23.6072ZM4.33065e-06 11.8036L-0.319317 12.1884L-0.782906 11.8036L-0.319317 11.4188L4.33065e-06 11.8036ZM14.2222 -7.77091e-07L13.9029 -0.384753L14.7222 -1.06474L14.7222 -7.55235e-07L14.2222 -7.77091e-07ZM14.2222 4.45545L14.2222 4.95545L13.7222 4.95545L13.7222 4.45545L14.2222 4.45545ZM31.5 19.2703L31.5 4.45545L32.5 4.45545L32.5 19.2703L31.5 19.2703ZM14.2222 18.7703L32 18.7703L32 19.7703L14.2222 19.7703L14.2222 18.7703ZM13.7222 23.6072L13.7222 19.2703L14.7222 19.2703L14.7222 23.6072L13.7222 23.6072ZM0.319326 11.4188L14.5415 23.2225L13.9029 23.992L-0.319317 12.1884L0.319326 11.4188ZM14.5416 0.384751L0.319325 12.1884L-0.319317 11.4188L13.9029 -0.384753L14.5416 0.384751ZM13.7222 4.45545L13.7222 -7.98947e-07L14.7222 -7.55235e-07L14.7222 4.45545L13.7222 4.45545ZM32 4.95545L14.2222 4.95545L14.2222 3.95545L32 3.95545L32 4.95545Z" fill="black" mask="url(#path-1-inside-1_203_22)"/>
<defs>
<linearGradient id="paint0_linear_203_22" x1="32" y1="4.27767" x2="2.19259" y2="19.0332" gradientUnits="userSpaceOnUse">
<stop stop-color="#AFAFAF"/>
<stop offset="0.494792" stop-color="#CFCECE"/>
<stop offset="0.984375" stop-color="#E9E7E7"/>
</linearGradient>
</defs>
</svg>
