<svg width="129" height="86" viewBox="0 0 129 86" fill="none" xmlns="http://www.w3.org/2000/svg">
<path d="M72 81.6974V4.29521C71.9973 3.51155 71.7556 2.7434 71.3009 2.07344C70.8463 1.40348 70.196 0.857088 69.4199 0.493066C68.6439 0.129044 67.7715 -0.0388185 66.8967 0.00755015C66.0219 0.0539188 65.1779 0.312756 64.4553 0.75621L1.94387 39.4573C-0.647956 41.0613 -0.647956 44.9228 1.94387 46.531L64.4553 85.2321C65.1764 85.6801 66.0209 85.9428 66.8971 85.9917C67.7734 86.0405 68.6478 85.8737 69.4255 85.5094C70.2032 85.1451 70.8544 84.5971 71.3083 83.925C71.7621 83.253 72.0014 82.4825 72 81.6974Z" fill="white"/>
<path d="M75 67C70.5817 67 67 63.4183 67 59V27C67 22.5817 70.5817 19 75 19L121 19C125.418 19 129 22.5817 129 27V59C129 63.4183 125.418 67 121 67L75 67Z" fill="white"/>
</svg>
