<svg width="141" height="54" viewBox="0 0 141 54" fill="none" xmlns="http://www.w3.org/2000/svg">
<rect y="1" width="141" height="53" rx="8" fill="#DA1F1F"/>
<path d="M18.14 40.36C14.324 40.36 11.432 39.316 9.464 37.228C7.52 35.14 6.548 32.32 6.548 28.768C6.548 26.224 6.956 24.04 7.772 22.216C8.612 20.368 9.884 18.952 11.588 17.968C13.292 16.96 15.464 16.456 18.104 16.456C19.448 16.456 20.672 16.564 21.776 16.78C22.904 16.972 23.948 17.236 24.908 17.572V20.992C23.948 20.608 22.916 20.32 21.812 20.128C20.732 19.912 19.592 19.804 18.392 19.804C15.512 19.804 13.472 20.572 12.272 22.108C11.096 23.644 10.508 25.864 10.508 28.768C10.508 31.48 11.156 33.544 12.452 34.96C13.748 36.352 15.752 37.048 18.464 37.048C19.568 37.048 20.672 36.964 21.776 36.796C22.904 36.604 23.96 36.316 24.944 35.932V39.388C23.984 39.7 22.94 39.94 21.812 40.108C20.708 40.276 19.484 40.36 18.14 40.36ZM26.6231 40L35.4791 16.816H39.8711L48.6551 40H44.6231L42.3191 34.024H32.9951L30.6911 40H26.6231ZM33.6071 31H41.6711L37.6391 20.38L33.6071 31ZM52.5141 40V16.816H55.9701L68.0661 33.88V16.816H71.9541V40H68.4981L56.4381 22.972V40H52.5141ZM87.3978 40.36C83.5818 40.36 80.6898 39.316 78.7218 37.228C76.7778 35.14 75.8058 32.32 75.8058 28.768C75.8058 26.224 76.2138 24.04 77.0298 22.216C77.8698 20.368 79.1418 18.952 80.8458 17.968C82.5498 16.96 84.7218 16.456 87.3618 16.456C88.7058 16.456 89.9298 16.564 91.0338 16.78C92.1618 16.972 93.2058 17.236 94.1658 17.572V20.992C93.2058 20.608 92.1738 20.32 91.0698 20.128C89.9898 19.912 88.8498 19.804 87.6498 19.804C84.7698 19.804 82.7298 20.572 81.5298 22.108C80.3538 23.644 79.7658 25.864 79.7658 28.768C79.7658 31.48 80.4138 33.544 81.7098 34.96C83.0058 36.352 85.0098 37.048 87.7218 37.048C88.8258 37.048 89.9298 36.964 91.0338 36.796C92.1618 36.604 93.2178 36.316 94.2018 35.932V39.388C93.2418 39.7 92.1978 39.94 91.0698 40.108C89.9658 40.276 88.7418 40.36 87.3978 40.36ZM98.0063 40V16.816H114.17V19.876H101.93V26.896H112.838V29.92H101.93V36.976H114.17V40H98.0063ZM117.799 40V16.816H121.723V36.976H133.603V40H117.799Z" fill="white"/>
</svg>
