<svg width="141" height="81" viewBox="0 0 141 81" fill="none" xmlns="http://www.w3.org/2000/svg">
<rect width="141" height="81" rx="8" fill="#DA1F1F"/>
<path d="M19.14 42.36C15.324 42.36 12.432 41.316 10.464 39.228C8.52 37.14 7.548 34.32 7.548 30.768C7.548 28.224 7.956 26.04 8.772 24.216C9.612 22.368 10.884 20.952 12.588 19.968C14.292 18.96 16.464 18.456 19.104 18.456C20.448 18.456 21.672 18.564 22.776 18.78C23.904 18.972 24.948 19.236 25.908 19.572V22.992C24.948 22.608 23.916 22.32 22.812 22.128C21.732 21.912 20.592 21.804 19.392 21.804C16.512 21.804 14.472 22.572 13.272 24.108C12.096 25.644 11.508 27.864 11.508 30.768C11.508 33.48 12.156 35.544 13.452 36.96C14.748 38.352 16.752 39.048 19.464 39.048C20.568 39.048 21.672 38.964 22.776 38.796C23.904 38.604 24.96 38.316 25.944 37.932V41.388C24.984 41.7 23.94 41.94 22.812 42.108C21.708 42.276 20.484 42.36 19.14 42.36ZM27.6231 42L36.4791 18.816H40.8711L49.6551 42H45.6231L43.3191 36.024H33.9951L31.6911 42H27.6231ZM34.6071 33H42.6711L38.6391 22.38L34.6071 33ZM53.5141 42V18.816H56.9701L69.0661 35.88V18.816H72.9541V42H69.4981L57.4381 24.972V42H53.5141ZM88.3978 42.36C84.5818 42.36 81.6898 41.316 79.7218 39.228C77.7778 37.14 76.8058 34.32 76.8058 30.768C76.8058 28.224 77.2138 26.04 78.0298 24.216C78.8698 22.368 80.1418 20.952 81.8458 19.968C83.5498 18.96 85.7218 18.456 88.3618 18.456C89.7058 18.456 90.9298 18.564 92.0338 18.78C93.1618 18.972 94.2058 19.236 95.1658 19.572V22.992C94.2058 22.608 93.1738 22.32 92.0698 22.128C90.9898 21.912 89.8498 21.804 88.6498 21.804C85.7698 21.804 83.7298 22.572 82.5298 24.108C81.3538 25.644 80.7658 27.864 80.7658 30.768C80.7658 33.48 81.4138 35.544 82.7098 36.96C84.0058 38.352 86.0098 39.048 88.7218 39.048C89.8258 39.048 90.9298 38.964 92.0338 38.796C93.1618 38.604 94.2178 38.316 95.2018 37.932V41.388C94.2418 41.7 93.1978 41.94 92.0698 42.108C90.9658 42.276 89.7418 42.36 88.3978 42.36ZM99.0063 42V18.816H115.17V21.876H102.93V28.896H113.838V31.92H102.93V38.976H115.17V42H99.0063ZM118.799 42V18.816H122.723V38.976H134.603V42H118.799Z" fill="white"/>
<path d="M58.72 68L63.064 62.216L58.888 56.624H61.696L64.48 60.416L67.264 56.624H70.072L65.92 62.216L70.24 68H67.408L64.48 64.04L61.552 68H58.72ZM71.0716 68L75.4156 62.216L71.2396 56.624H74.0476L76.8316 60.416L79.6156 56.624H82.4236L78.2716 62.216L82.5916 68H79.7596L76.8316 64.04L73.9036 68H71.0716Z" fill="white"/>
</svg>
