<svg width="227" height="86" viewBox="0 0 227 86" fill="none" xmlns="http://www.w3.org/2000/svg">
<path d="M41.72 85.28C28.152 85.28 17.8693 81.568 10.872 74.144C3.96 66.72 0.504 56.6933 0.504 44.064C0.504 35.0187 1.95467 27.2533 4.856 20.768C7.84267 14.1973 12.3653 9.16266 18.424 5.66399C24.4827 2.07999 32.2053 0.287994 41.592 0.287994C46.3707 0.287994 50.7227 0.671995 54.648 1.43999C58.6587 2.12266 62.3707 3.06133 65.784 4.256V16.416C62.3707 15.0507 58.7013 14.0267 54.776 13.344C50.936 12.576 46.8827 12.192 42.616 12.192C32.376 12.192 25.1227 14.9227 20.856 20.384C16.6747 25.8453 14.584 33.7387 14.584 44.064C14.584 53.7067 16.888 61.0453 21.496 66.08C26.104 71.0293 33.2293 73.504 42.872 73.504C46.7973 73.504 50.7227 73.2053 54.648 72.608C58.6587 71.9253 62.4133 70.9013 65.912 69.536V81.824C62.4987 82.9333 58.7867 83.7867 54.776 84.384C50.8507 84.9813 46.4987 85.28 41.72 85.28Z" fill="#FE3C3C"/>
<path d="M79.439 84V1.56799H112.847C125.05 1.56799 134.095 4.81066 139.983 11.296C145.871 17.696 148.815 28.3627 148.815 43.296C148.815 57.376 145.914 67.7013 140.111 74.272C134.308 80.7573 125.22 84 112.847 84H79.439ZM93.391 73.248H110.671C116.047 73.248 120.527 72.48 124.111 70.944C127.695 69.3227 130.383 66.336 132.175 61.984C133.967 57.632 134.863 51.4027 134.863 43.296C134.863 35.1893 134.052 28.9173 132.431 24.48C130.81 20.0427 128.207 16.928 124.623 15.136C121.124 13.344 116.474 12.448 110.671 12.448H93.391V73.248ZM162.564 84V1.56799H200.452C209.668 1.56799 216.367 3.95733 220.548 8.736C224.815 13.4293 226.948 19.8293 226.948 27.936C226.948 33.7387 225.497 38.688 222.596 42.784C219.695 46.88 215.513 49.7387 210.052 51.36C211.588 52.4693 212.783 53.664 213.636 54.944C214.489 56.224 215.343 57.9307 216.196 60.064L226.564 84H212.228L202.116 60.96C201.177 58.7413 200.025 57.1627 198.66 56.224C197.38 55.2853 195.161 54.816 192.004 54.816H176.516V84H162.564ZM176.516 43.552H196.74C201.775 43.552 205.743 42.3147 208.644 39.84C211.545 37.3653 212.996 33.3973 212.996 27.936C212.996 17.6107 208.004 12.448 198.02 12.448H176.516V43.552Z" fill="url(#paint0_linear_311_61)"/>
<path d="M10.872 74.144L9.77414 75.1661L9.78044 75.1728L10.872 74.144ZM4.856 20.768L3.49043 20.1473L3.48677 20.1554L4.856 20.768ZM18.424 5.66399L19.1741 6.96297L19.1809 6.95903L19.1877 6.95502L18.424 5.66399ZM54.648 1.43999L54.36 2.91208L54.3781 2.91563L54.3963 2.91873L54.648 1.43999ZM65.784 4.256H67.284V3.19177L66.2795 2.84021L65.784 4.256ZM65.784 16.416L65.2269 17.8087L67.284 18.6316V16.416H65.784ZM54.776 13.344L54.4818 14.8149L54.5004 14.8186L54.519 14.8218L54.776 13.344ZM20.856 20.384L19.674 19.4605L19.6694 19.4663L19.665 19.4721L20.856 20.384ZM21.496 66.08L20.3895 67.0928L20.3982 67.1021L21.496 66.08ZM54.648 72.608L54.8737 74.0909L54.8867 74.0889L54.8997 74.0867L54.648 72.608ZM65.912 69.536H67.412V67.3405L65.3667 68.1386L65.912 69.536ZM65.912 81.824L66.3756 83.2506L67.412 82.9137V81.824H65.912ZM54.776 84.384L54.555 82.9004L54.5503 82.9011L54.776 84.384ZM41.72 83.78C28.4229 83.78 18.5928 80.1486 11.9636 73.1152L9.78044 75.1728C17.1459 82.9874 27.8811 86.78 41.72 86.78V83.78ZM11.9698 73.1219C5.37572 66.0393 2.004 56.4113 2.004 44.064H-0.996C-0.996 56.9754 2.54428 67.4007 9.77416 75.1661L11.9698 73.1219ZM2.004 44.064C2.004 35.1742 3.43023 27.6282 6.22523 21.3805L3.48677 20.1554C0.479099 26.8785 -0.996 34.8631 -0.996 44.064H2.004ZM6.22155 21.3887C9.08317 15.0931 13.3953 10.3 19.1741 6.96297L17.6739 4.36502C11.3354 8.02529 6.60216 13.3015 3.49045 20.1473L6.22155 21.3887ZM19.1877 6.95502C24.9504 3.54613 32.3872 1.78799 41.592 1.78799V-1.21201C32.0234 -1.21201 24.015 0.613863 17.6603 4.37297L19.1877 6.95502ZM41.592 1.78799C46.292 1.78799 50.5457 2.16582 54.36 2.91208L54.936 -0.0320942C50.8996 -0.821829 46.4493 -1.21201 41.592 -1.21201V1.78799ZM54.3963 2.91873C58.3342 3.589 61.9636 4.50808 65.2885 5.67178L66.2795 2.84021C62.7777 1.61458 58.9832 0.656323 54.8997 -0.0387369L54.3963 2.91873ZM64.284 4.256V16.416H67.284V4.256H64.284ZM66.3411 15.0233C62.8233 13.6162 59.0526 12.5652 55.033 11.8662L54.519 14.8218C58.3501 15.4881 61.9181 16.4852 65.2269 17.8087L66.3411 15.0233ZM55.0702 11.8731C51.1251 11.0841 46.9727 10.692 42.616 10.692V13.692C46.7926 13.692 50.7469 14.0679 54.4818 14.8149L55.0702 11.8731ZM42.616 10.692C32.1426 10.692 24.3408 13.487 19.674 19.4605L22.038 21.3075C25.9045 16.3583 32.6094 13.692 42.616 13.692V10.692ZM19.665 19.4721C15.205 25.2974 13.084 33.5664 13.084 44.064H16.084C16.084 33.9109 18.1443 26.3932 22.047 21.2959L19.665 19.4721ZM13.084 44.064C13.084 53.9271 15.4405 61.6855 20.3895 67.0927L22.6025 65.0673C18.3355 60.4052 16.084 53.4863 16.084 44.064H13.084ZM20.3982 67.1021C25.3932 72.4672 32.9937 75.004 42.872 75.004V72.004C33.465 72.004 26.8148 69.5914 22.5938 65.0579L20.3982 67.1021ZM42.872 75.004C46.8737 75.004 50.8745 74.6995 54.8737 74.0909L54.4223 71.1251C50.5708 71.7112 46.7209 72.004 42.872 72.004V75.004ZM54.8997 74.0867C59.0025 73.3884 62.8563 72.3386 66.4573 70.9334L65.3667 68.1386C61.9704 69.464 58.3148 70.4623 54.3963 71.1293L54.8997 74.0867ZM64.412 69.536V81.824H67.412V69.536H64.412ZM65.4484 80.3974C62.1236 81.478 58.4938 82.3137 54.555 82.9004L54.997 85.8676C59.0796 85.2596 62.8737 84.3887 66.3756 83.2506L65.4484 80.3974ZM54.5503 82.9011C50.7129 83.485 46.4378 83.78 41.72 83.78V86.78C46.5596 86.78 50.9884 86.4776 55.0017 85.8669L54.5503 82.9011ZM79.439 84H77.939V85.5H79.439V84ZM79.439 1.56799V0.0679932H77.939V1.56799H79.439ZM139.983 11.296L138.872 12.3043L138.879 12.3116L139.983 11.296ZM140.111 74.272L141.229 75.2722L141.235 75.2649L140.111 74.272ZM93.391 73.248H91.891V74.748H93.391V73.248ZM124.111 70.944L124.702 72.3227L124.716 72.3168L124.729 72.3107L124.111 70.944ZM132.431 24.48L133.84 23.9652L133.84 23.9652L132.431 24.48ZM124.623 15.136L123.939 16.4711L123.946 16.4744L123.952 16.4776L124.623 15.136ZM93.391 12.448V10.948H91.891V12.448H93.391ZM80.939 84V1.56799H77.939V84H80.939ZM79.439 3.06799H112.847V0.0679932H79.439V3.06799ZM112.847 3.06799C124.798 3.06799 133.367 6.23992 138.872 12.3043L141.094 10.2877C134.823 3.3814 125.301 0.0679932 112.847 0.0679932V3.06799ZM138.879 12.3116C144.383 18.2942 147.315 28.4901 147.315 43.296H150.315C150.315 28.2352 147.359 17.0978 141.087 10.2804L138.879 12.3116ZM147.315 43.296C147.315 57.2195 144.438 67.1067 138.987 73.2791L141.235 75.2649C147.39 68.2959 150.315 57.5325 150.315 43.296H147.315ZM138.993 73.2718C133.579 79.3234 124.978 82.5 112.847 82.5V85.5C125.462 85.5 135.038 82.1913 141.229 75.2722L138.993 73.2718ZM112.847 82.5H79.439V85.5H112.847V82.5ZM93.391 74.748H110.671V71.748H93.391V74.748ZM110.671 74.748C116.178 74.748 120.875 73.9629 124.702 72.3227L123.52 69.5653C120.179 70.9971 115.916 71.748 110.671 71.748V74.748ZM124.729 72.3107C128.728 70.5017 131.655 67.1869 133.562 62.5551L130.788 61.4129C129.111 65.4851 126.662 68.1436 123.493 69.5773L124.729 72.3107ZM133.562 62.5551C135.464 57.9362 136.363 51.4775 136.363 43.296H133.363C133.363 51.3278 132.47 57.3278 130.788 61.4129L133.562 62.5551ZM136.363 43.296C136.363 35.1208 135.55 28.6447 133.84 23.9652L131.022 24.9948C132.555 29.19 133.363 35.2578 133.363 43.296H136.363ZM133.84 23.9652C132.112 19.2368 129.281 15.7878 125.294 13.7944L123.952 16.4776C127.133 18.0682 129.507 20.8485 131.022 24.9948L133.84 23.9652ZM125.307 13.8009C121.52 11.8612 116.607 10.948 110.671 10.948V13.948C116.34 13.948 120.729 14.8267 123.939 16.4711L125.307 13.8009ZM110.671 10.948H93.391V13.948H110.671V10.948ZM91.891 12.448V73.248H94.891V12.448H91.891ZM162.564 84H161.064V85.5H162.564V84ZM162.564 1.56799V0.0679932H161.064V1.56799H162.564ZM220.548 8.736L219.419 9.72376L219.429 9.73447L219.438 9.74501L220.548 8.736ZM222.596 42.784L221.372 41.917L221.372 41.917L222.596 42.784ZM210.052 51.36L209.625 49.922L206.701 50.7901L209.174 52.576L210.052 51.36ZM213.636 54.944L212.388 55.776L212.388 55.776L213.636 54.944ZM216.196 60.064L214.803 60.6211L214.811 60.6408L214.82 60.6602L216.196 60.064ZM226.564 84V85.5H228.848L227.94 83.4038L226.564 84ZM212.228 84L210.854 84.6028L211.248 85.5H212.228V84ZM202.116 60.96L200.735 61.5445L200.738 61.5537L200.742 61.5628L202.116 60.96ZM198.66 56.224L197.773 57.4336L197.791 57.4471L197.81 57.4601L198.66 56.224ZM176.516 54.816V53.316H175.016V54.816H176.516ZM176.516 84V85.5H178.016V84H176.516ZM176.516 43.552H175.016V45.052H176.516V43.552ZM208.644 39.84L207.671 38.6987L207.671 38.6987L208.644 39.84ZM176.516 12.448V10.948H175.016V12.448H176.516ZM164.064 84V1.56799H161.064V84H164.064ZM162.564 3.06799H200.452V0.0679932H162.564V3.06799ZM200.452 3.06799C209.435 3.06799 215.632 5.39559 219.419 9.72376L221.677 7.74824C217.101 2.51907 209.901 0.0679932 200.452 0.0679932V3.06799ZM219.438 9.74501C223.39 14.092 225.448 20.0952 225.448 27.936H228.448C228.448 19.5634 226.239 12.7667 221.658 7.72699L219.438 9.74501ZM225.448 27.936C225.448 33.4781 224.067 38.1125 221.372 41.917L223.82 43.651C226.928 39.2635 228.448 33.9992 228.448 27.936H225.448ZM221.372 41.917C218.691 45.7022 214.81 48.3828 209.625 49.922L210.479 52.798C216.217 51.0946 220.699 48.0578 223.82 43.651L221.372 41.917ZM209.174 52.576C210.597 53.6039 211.654 54.6751 212.388 55.776L214.884 54.1119C213.911 52.6529 212.579 51.3347 210.93 50.144L209.174 52.576ZM212.388 55.776C213.163 56.9386 213.972 58.5419 214.803 60.6211L217.589 59.5069C216.714 57.3194 215.816 55.5094 214.884 54.1119L212.388 55.776ZM214.82 60.6602L225.188 84.5962L227.94 83.4038L217.572 59.4678L214.82 60.6602ZM226.564 82.5H212.228V85.5H226.564V82.5ZM213.602 83.3972L203.49 60.3572L200.742 61.5628L210.854 84.6028L213.602 83.3972ZM203.497 60.3755C202.495 58.0065 201.195 56.1465 199.51 54.9879L197.81 57.4601C198.856 58.1789 199.86 59.4762 200.735 61.5445L203.497 60.3755ZM199.547 55.0144C197.857 53.7751 195.216 53.316 192.004 53.316V56.316C195.106 56.316 196.903 56.7955 197.773 57.4336L199.547 55.0144ZM192.004 53.316H176.516V56.316H192.004V53.316ZM175.016 54.816V84H178.016V54.816H175.016ZM176.516 82.5H162.564V85.5H176.516V82.5ZM176.516 45.052H196.74V42.052H176.516V45.052ZM196.74 45.052C202.016 45.052 206.368 43.7529 209.617 40.9812L207.671 38.6987C205.117 40.8764 201.534 42.052 196.74 42.052V45.052ZM209.617 40.9812C212.978 38.1152 214.496 33.6405 214.496 27.936H211.496C211.496 33.1541 210.113 36.6155 207.671 38.6987L209.617 40.9812ZM214.496 27.936C214.496 22.5545 213.196 18.2406 210.33 15.2773C207.456 12.3046 203.256 10.948 198.02 10.948V13.948C202.768 13.948 206.056 15.1727 208.174 17.3627C210.3 19.562 211.496 22.9922 211.496 27.936H214.496ZM198.02 10.948H176.516V13.948H198.02V10.948ZM175.016 12.448V43.552H178.016V12.448H175.016Z" fill="black"/>
<defs>
<linearGradient id="paint0_linear_311_61" x1="9.69136" y1="-6.5" x2="175.717" y2="152.365" gradientUnits="userSpaceOnUse">
<stop stop-color="#8CFF31"/>
<stop offset="0.889317" stop-color="#54BC02"/>
</linearGradient>
</defs>
</svg>
