<svg width="151" height="86" viewBox="0 0 151 86" fill="none" xmlns="http://www.w3.org/2000/svg">
<path d="M43.488 85.28C29.664 85.28 19.0827 81.568 11.744 74.144C4.40533 66.6347 0.736 56.4373 0.736 43.552C0.736 29.8987 4.27733 19.2747 11.36 11.68C18.528 4.08533 29.1947 0.287994 43.36 0.287994C48.3093 0.287994 52.7467 0.671995 56.672 1.43999C60.6827 2.12266 64.4373 3.104 67.936 4.384V19.488C60.6827 16.5013 52.9173 15.008 44.64 15.008C35.2533 15.008 28.512 17.3547 24.416 22.048C20.32 26.7413 18.272 33.9093 18.272 43.552C18.272 61.6427 27.1467 70.688 44.896 70.688C48.9067 70.688 52.8747 70.3467 56.8 69.664C60.7253 68.896 64.48 67.7867 68.064 66.336V81.568C64.5653 82.6773 60.8107 83.5733 56.8 84.256C52.8747 84.9387 48.4373 85.28 43.488 85.28ZM80.046 84V1.56799H97.326V36.128H133.294V1.56799H150.574V84H133.294V49.44H97.326V84H80.046Z" fill="#FE3C3C"/>
<path d="M11.744 74.144L11.3864 74.4935L11.3884 74.4955L11.744 74.144ZM11.36 11.68L10.9964 11.3368L10.9943 11.339L11.36 11.68ZM56.672 1.43999L56.576 1.93084L56.5881 1.93291L56.672 1.43999ZM67.936 4.384H68.436V4.03451L68.1078 3.91443L67.936 4.384ZM67.936 19.488L67.7456 19.9503L68.436 20.2346V19.488H67.936ZM24.416 22.048L24.7927 22.3768L24.7927 22.3768L24.416 22.048ZM56.8 69.664L56.8857 70.1567L56.896 70.1547L56.8 69.664ZM68.064 66.336H68.564V65.5942L67.8764 65.8725L68.064 66.336ZM68.064 81.568L68.2151 82.0446L68.564 81.934V81.568H68.064ZM56.8 84.256L56.7161 83.7631L56.7143 83.7634L56.8 84.256ZM43.488 84.78C29.7527 84.78 19.3168 81.0937 12.0996 73.7925L11.3884 74.4955C18.8485 82.0423 29.5753 85.78 43.488 85.78V84.78ZM12.1016 73.7945C4.87405 66.3989 1.236 56.3381 1.236 43.552H0.236C0.236 56.5365 3.93661 66.8704 11.3864 74.4935L12.1016 73.7945ZM1.236 43.552C1.236 29.9843 4.75369 19.497 11.7257 12.021L10.9943 11.339C3.80098 19.0523 0.236 29.813 0.236 43.552H1.236ZM11.7236 12.0232C18.7672 4.56038 29.2815 0.787994 43.36 0.787994V-0.212006C29.1079 -0.212006 18.2888 3.61028 10.9964 11.3368L11.7236 12.0232ZM43.36 0.787994C48.2844 0.787994 52.6887 1.17013 56.576 1.93069L56.768 0.949298C52.8046 0.173858 48.3343 -0.212006 43.36 -0.212006V0.787994ZM56.5881 1.93291C60.5715 2.61094 64.2965 3.5849 67.7642 4.85356L68.1078 3.91443C64.5781 2.62309 60.7938 1.63439 56.7559 0.947084L56.5881 1.93291ZM67.436 4.384V19.488H68.436V4.384H67.436ZM68.1264 19.0257C60.8094 16.0128 52.979 14.508 44.64 14.508V15.508C52.8557 15.508 60.556 16.9899 67.7456 19.9503L68.1264 19.0257ZM44.64 14.508C35.1827 14.508 28.2699 16.8717 24.0393 21.7192L24.7927 22.3768C28.7541 17.8376 35.324 15.508 44.64 15.508V14.508ZM24.0393 21.7192C19.8302 26.5421 17.772 33.8518 17.772 43.552H18.772C18.772 33.9668 20.8098 26.9405 24.7927 22.3768L24.0393 21.7192ZM17.772 43.552C17.772 52.672 20.009 59.6044 24.5711 64.2542C29.1349 68.9057 35.9418 71.188 44.896 71.188V70.188C36.1008 70.188 29.5958 67.9476 25.2849 63.5538C20.9723 59.1583 18.772 52.5226 18.772 43.552H17.772ZM44.896 71.188C48.9352 71.188 52.9319 70.8442 56.8857 70.1566L56.7143 69.1714C52.8175 69.8491 48.8781 70.188 44.896 70.188V71.188ZM56.896 70.1547C60.8516 69.3808 64.637 68.2625 68.2516 66.7995L67.8764 65.8725C64.323 67.3108 60.5991 68.4112 56.704 69.1733L56.896 70.1547ZM67.564 66.336V81.568H68.564V66.336H67.564ZM67.9129 81.0914C64.4384 82.193 60.7064 83.0839 56.7161 83.7631L56.8839 84.7489C60.9149 84.0628 64.6922 83.1616 68.2151 82.0446L67.9129 81.0914ZM56.7143 83.7634C52.8231 84.4401 48.4152 84.78 43.488 84.78V85.78C48.4595 85.78 52.9262 85.4372 56.8857 84.7486L56.7143 83.7634ZM80.046 84H79.546V84.5H80.046V84ZM80.046 1.56799V1.06799H79.546V1.56799H80.046ZM97.326 1.56799H97.826V1.06799H97.326V1.56799ZM97.326 36.128H96.826V36.628H97.326V36.128ZM133.294 36.128V36.628H133.794V36.128H133.294ZM133.294 1.56799V1.06799H132.794V1.56799H133.294ZM150.574 1.56799H151.074V1.06799H150.574V1.56799ZM150.574 84V84.5H151.074V84H150.574ZM133.294 84H132.794V84.5H133.294V84ZM133.294 49.44H133.794V48.94H133.294V49.44ZM97.326 49.44V48.94H96.826V49.44H97.326ZM97.326 84V84.5H97.826V84H97.326ZM80.546 84V1.56799H79.546V84H80.546ZM80.046 2.06799H97.326V1.06799H80.046V2.06799ZM96.826 1.56799V36.128H97.826V1.56799H96.826ZM97.326 36.628H133.294V35.628H97.326V36.628ZM133.794 36.128V1.56799H132.794V36.128H133.794ZM133.294 2.06799H150.574V1.06799H133.294V2.06799ZM150.074 1.56799V84H151.074V1.56799H150.074ZM150.574 83.5H133.294V84.5H150.574V83.5ZM133.794 84V49.44H132.794V84H133.794ZM133.294 48.94H97.326V49.94H133.294V48.94ZM96.826 49.44V84H97.826V49.44H96.826ZM97.326 83.5H80.046V84.5H97.326V83.5Z" fill="black"/>
</svg>
