<svg width="86" height="129" viewBox="0 0 86 129" fill="none" xmlns="http://www.w3.org/2000/svg">
<path d="M81.6974 57L4.29521 57C3.51155 57.0027 2.7434 57.2444 2.07344 57.6991C1.40348 58.1537 0.857085 58.804 0.493063 59.5801C0.129041 60.3561 -0.0388215 61.2285 0.00754722 62.1033C0.0539159 62.9781 0.312753 63.8221 0.756208 64.5447L39.4573 127.056C41.0613 129.648 44.9228 129.648 46.531 127.056L85.2321 64.5447C85.6801 63.8236 85.9428 62.9791 85.9917 62.1029C86.0405 61.2266 85.8737 60.3522 85.5094 59.5745C85.145 58.7968 84.5971 58.1456 83.925 57.6917C83.253 57.2379 82.4825 56.9986 81.6974 57Z" fill="white"/>
<path d="M67 54C67 58.4183 63.4183 62 59 62L27 62C22.5817 62 19 58.4183 19 54L19 8C19 3.58173 22.5817 -9.87078e-07 27 -1.18021e-06L59 -2.57897e-06C63.4183 -2.7721e-06 67 3.58172 67 8L67 54Z" fill="white"/>
</svg>
