<svg width="107" height="107" viewBox="0 0 107 107" fill="none" xmlns="http://www.w3.org/2000/svg">
<path d="M79.6805 82.0739L24.9489 27.3423C24.3928 26.7901 23.6787 26.4178 22.8835 26.2656C22.0883 26.1133 21.2421 26.1868 20.436 26.4781C19.6298 26.7695 18.8943 27.2676 18.3085 27.919C17.7227 28.5704 17.3089 29.3502 17.1115 30.1747L0.275054 101.743C-0.423479 104.71 2.30702 107.44 5.27692 106.745L76.845 89.9082C77.6716 89.7151 78.4545 89.3037 79.1087 88.7187C79.7629 88.1336 80.2633 87.3974 80.5555 86.5898C80.8478 85.7823 80.9208 84.9344 80.7665 84.1382C80.6122 83.342 80.2366 82.6281 79.6805 82.0739Z" fill="white"/>
<path d="M71.4092 69.5599C68.285 72.6841 63.2196 72.6841 60.0955 69.5599L37.468 46.9325C34.3438 43.8083 34.3438 38.743 37.468 35.6188L69.9949 3.0919C73.1191 -0.0322965 78.1845 -0.0322994 81.3087 3.09189L103.936 25.7193C107.06 28.8435 107.06 33.9088 103.936 37.033L71.4092 69.5599Z" fill="white"/>
</svg>
