<svg width="107" height="107" viewBox="0 0 107 107" fill="none" xmlns="http://www.w3.org/2000/svg">
<path d="M27.3195 82.0739L82.0511 27.3423C82.6072 26.7901 83.3213 26.4178 84.1165 26.2656C84.9117 26.1133 85.7579 26.1868 86.564 26.4781C87.3702 26.7695 88.1057 27.2676 88.6915 27.919C89.2773 28.5704 89.6911 29.3502 89.8885 30.1747L106.725 101.743C107.423 104.71 104.693 107.44 101.723 106.745L30.155 89.9082C29.3284 89.7151 28.5455 89.3037 27.8913 88.7187C27.2371 88.1336 26.7367 87.3974 26.4445 86.5898C26.1522 85.7823 26.0792 84.9344 26.2335 84.1382C26.3878 83.342 26.7634 82.6281 27.3195 82.0739Z" fill="white"/>
<path d="M35.5908 69.5599C38.715 72.6841 43.7804 72.6841 46.9045 69.5599L69.532 46.9325C72.6562 43.8083 72.6562 38.743 69.532 35.6188L37.0051 3.0919C33.8809 -0.0322965 28.8155 -0.0322994 25.6913 3.09189L3.06393 25.7193C-0.0602651 28.8435 -0.0602626 33.9088 3.06393 37.033L35.5908 69.5599Z" fill="white"/>
</svg>
