<svg width="102" height="83" viewBox="0 0 102 83" fill="none" xmlns="http://www.w3.org/2000/svg">
<path d="M0.296 83V0.567993H34.856C47.2293 0.567993 56.5307 3.768 62.76 10.168C69.0747 16.4827 72.232 27.1493 72.232 42.168C72.232 56.3333 69.1173 66.7013 62.888 73.272C56.744 79.7573 47.4 83 34.856 83H0.296ZM17.576 69.688H32.424C37.288 69.688 41.384 68.9627 44.712 67.512C48.04 65.976 50.5147 63.2453 52.136 59.32C53.8427 55.3093 54.696 49.592 54.696 42.168C54.696 34.744 53.928 29.0693 52.392 25.144C50.856 21.2187 48.4667 18.5307 45.224 17.08C41.9813 15.6293 37.7147 14.904 32.424 14.904H17.576V69.688ZM84.296 83V0.567993H101.576V83H84.296Z" fill="url(#paint0_linear_307_5)"/>
<path d="M0.296 83H-0.204V83.5H0.296V83ZM0.296 0.567993V0.0679932H-0.204V0.567993H0.296ZM62.76 10.168L62.4017 10.5168L62.4064 10.5216L62.76 10.168ZM62.888 73.272L62.5251 72.928L62.525 72.9281L62.888 73.272ZM17.576 69.688H17.076V70.188H17.576V69.688ZM44.712 67.512L44.9118 67.9705L44.9215 67.966L44.712 67.512ZM52.136 59.32L51.6759 59.1242L51.6739 59.1291L52.136 59.32ZM45.224 17.08L45.4282 16.6236L45.4282 16.6236L45.224 17.08ZM17.576 14.904V14.404H17.076V14.904H17.576ZM0.796 83V0.567993H-0.204V83H0.796ZM0.296 1.06799H34.856V0.0679932H0.296V1.06799ZM34.856 1.06799C47.1476 1.06799 56.2981 4.24588 62.4017 10.5167L63.1183 9.81926C56.7633 3.29011 47.3111 0.0679932 34.856 0.0679932V1.06799ZM62.4064 10.5216C68.5807 16.6958 71.732 27.1968 71.732 42.168H72.732C72.732 27.1019 69.5687 16.2695 63.1136 9.81445L62.4064 10.5216ZM71.732 42.168C71.732 56.275 68.628 66.4907 62.5251 72.928L63.2509 73.616C69.6067 66.9119 72.732 56.3917 72.732 42.168H71.732ZM62.525 72.9281C56.5084 79.279 47.3194 82.5 34.856 82.5V83.5C47.4806 83.5 56.9796 80.2357 63.251 73.6159L62.525 72.9281ZM34.856 82.5H0.296V83.5H34.856V82.5ZM17.576 70.188H32.424V69.188H17.576V70.188ZM32.424 70.188C37.3347 70.188 41.5032 69.4561 44.9118 67.9703L44.5122 67.0537C41.2648 68.4692 37.2414 69.188 32.424 69.188V70.188ZM44.9215 67.966C48.3819 66.3689 50.9369 63.5328 52.5981 59.5109L51.6739 59.1291C50.0925 62.9578 47.6981 65.5831 44.5025 67.058L44.9215 67.966ZM52.5961 59.5158C54.3414 55.4143 55.196 49.6186 55.196 42.168H54.196C54.196 49.5654 53.344 55.2043 51.6759 59.1242L52.5961 59.5158ZM55.196 42.168C55.196 34.7218 54.4274 28.9735 52.8576 24.9618L51.9264 25.3262C53.4286 29.1652 54.196 34.7662 54.196 42.168H55.196ZM52.8576 24.9618C51.2834 20.9387 48.8126 18.1377 45.4282 16.6236L45.0198 17.5364C48.1208 18.9237 50.4286 21.4986 51.9264 25.3262L52.8576 24.9618ZM45.4282 16.6236C42.0978 15.1337 37.7536 14.404 32.424 14.404V15.404C37.6757 15.404 41.8649 16.125 45.0198 17.5364L45.4282 16.6236ZM32.424 14.404H17.576V15.404H32.424V14.404ZM17.076 14.904V69.688H18.076V14.904H17.076ZM84.296 83H83.796V83.5H84.296V83ZM84.296 0.567993V0.0679932H83.796V0.567993H84.296ZM101.576 0.567993H102.076V0.0679932H101.576V0.567993ZM101.576 83V83.5H102.076V83H101.576ZM84.796 83V0.567993H83.796V83H84.796ZM84.296 1.06799H101.576V0.0679932H84.296V1.06799ZM101.076 0.567993V83H102.076V0.567993H101.076ZM101.576 82.5H84.296V83.5H101.576V82.5Z" fill="black"/>
<defs>
<linearGradient id="paint0_linear_307_5" x1="0.122808" y1="-0.500001" x2="102.969" y2="84.7518" gradientUnits="userSpaceOnUse">
<stop stop-color="#FF4D00"/>
<stop offset="1" stop-color="#D04103"/>
</linearGradient>
</defs>
</svg>
