<svg width="148" height="83" viewBox="0 0 148 83" fill="none" xmlns="http://www.w3.org/2000/svg">
<path d="M0.0640001 83V0.567993H33.472C45.6747 0.567993 54.72 3.81066 60.608 10.296C66.496 16.696 69.44 27.3627 69.44 42.296C69.44 56.376 66.5387 66.7013 60.736 73.272C54.9333 79.7573 45.8453 83 33.472 83H0.0640001ZM14.016 72.248H31.296C36.672 72.248 41.152 71.48 44.736 69.944C48.32 68.3227 51.008 65.336 52.8 60.984C54.592 56.632 55.488 50.4027 55.488 42.296C55.488 34.1893 54.6773 27.9173 53.056 23.48C51.4347 19.0427 48.832 15.928 45.248 14.136C41.7493 12.344 37.0987 11.448 31.296 11.448H14.016V72.248ZM83.189 83V0.567993H119.925C126.24 0.567993 131.445 1.76266 135.541 4.15199C139.637 6.54133 142.666 9.82667 144.629 14.008C146.592 18.104 147.573 22.7973 147.573 28.088C147.573 36.28 145.013 42.8507 139.893 47.8C134.858 52.7493 128.032 55.224 119.413 55.224H97.141V83H83.189ZM97.141 44.216H116.853C122.4 44.216 126.581 42.7653 129.397 39.864C132.213 36.9627 133.621 33.0373 133.621 28.088C133.621 22.7973 132.256 18.7013 129.525 15.8C126.88 12.8987 122.869 11.448 117.493 11.448H97.141V44.216Z" fill="url(#paint0_linear_331_7)"/>
<path d="M0.0640001 83H-1.436V84.5H0.0640001V83ZM0.0640001 0.567993V-0.932007H-1.436V0.567993H0.0640001ZM60.608 10.296L59.4974 11.3043L59.5041 11.3116L60.608 10.296ZM60.736 73.272L61.8539 74.2722L61.8603 74.2649L60.736 73.272ZM14.016 72.248H12.516V73.748H14.016V72.248ZM44.736 69.944L45.3269 71.3227L45.3406 71.3168L45.3543 71.3107L44.736 69.944ZM53.056 23.48L54.4649 22.9652L54.4649 22.9652L53.056 23.48ZM45.248 14.136L44.5642 15.4711L44.5707 15.4744L44.5772 15.4776L45.248 14.136ZM14.016 11.448V9.948H12.516V11.448H14.016ZM1.564 83V0.567993H-1.436V83H1.564ZM0.0640001 2.06799H33.472V-0.932007H0.0640001V2.06799ZM33.472 2.06799C45.4234 2.06799 53.9916 5.23992 59.4974 11.3043L61.7186 9.28772C55.4484 2.3814 45.926 -0.932007 33.472 -0.932007V2.06799ZM59.5041 11.3116C65.0081 17.2942 67.94 27.4901 67.94 42.296H70.94C70.94 27.2352 67.9839 16.0978 61.7119 9.28041L59.5041 11.3116ZM67.94 42.296C67.94 56.2195 65.0626 66.1067 59.6117 72.2791L61.8603 74.2649C68.0148 67.2959 70.94 56.5325 70.94 42.296H67.94ZM59.6181 72.2718C54.2036 78.3234 45.6035 81.5 33.472 81.5V84.5C46.0872 84.5 55.6631 81.1913 61.8539 74.2722L59.6181 72.2718ZM33.472 81.5H0.0640001V84.5H33.472V81.5ZM14.016 73.748H31.296V70.748H14.016V73.748ZM31.296 73.748C36.8031 73.748 41.4997 72.9629 45.3269 71.3227L44.1451 68.5653C40.8043 69.9971 36.5409 70.748 31.296 70.748V73.748ZM45.3543 71.3107C49.3529 69.5017 52.2798 66.1869 54.187 61.5551L51.413 60.4129C49.7362 64.4851 47.2871 67.1436 44.1178 68.5773L45.3543 71.3107ZM54.187 61.5551C56.0889 56.9362 56.988 50.4775 56.988 42.296H53.988C53.988 50.3278 53.0951 56.3278 51.413 60.4129L54.187 61.5551ZM56.988 42.296C56.988 34.1208 56.1747 27.6447 54.4649 22.9652L51.6471 23.9948C53.18 28.19 53.988 34.2578 53.988 42.296H56.988ZM54.4649 22.9652C52.7372 18.2368 49.9056 14.7878 45.9188 12.7944L44.5772 15.4776C47.7584 17.0682 50.1321 19.8485 51.6471 23.9948L54.4649 22.9652ZM45.9318 12.8009C42.1448 10.8612 37.232 9.948 31.296 9.948V12.948C36.9654 12.948 41.3539 13.8267 44.5642 15.4711L45.9318 12.8009ZM31.296 9.948H14.016V12.948H31.296V9.948ZM12.516 11.448V72.248H15.516V11.448H12.516ZM83.189 83H81.689V84.5H83.189V83ZM83.189 0.567993V-0.932007H81.689V0.567993H83.189ZM135.541 4.15199L136.297 2.85633L136.297 2.85632L135.541 4.15199ZM144.629 14.008L143.271 14.6454L143.276 14.6562L144.629 14.008ZM139.893 47.8L138.85 46.7215L138.841 46.7303L139.893 47.8ZM97.141 55.224V53.724H95.641V55.224H97.141ZM97.141 83V84.5H98.641V83H97.141ZM97.141 44.216H95.641V45.716H97.141V44.216ZM129.525 15.8L128.417 16.8106L128.425 16.8194L128.433 16.828L129.525 15.8ZM97.141 11.448V9.948H95.641V11.448H97.141ZM84.689 83V0.567993H81.689V83H84.689ZM83.189 2.06799H119.925V-0.932007H83.189V2.06799ZM119.925 2.06799C126.059 2.06799 130.982 3.22941 134.785 5.44766L136.297 2.85632C131.908 0.29591 126.42 -0.932007 119.925 -0.932007V2.06799ZM134.785 5.44766C138.626 7.68804 141.441 10.7471 143.271 14.6454L145.987 13.3706C143.891 8.90619 140.648 5.39462 136.297 2.85633L134.785 5.44766ZM143.276 14.6562C145.127 18.5191 146.073 22.9849 146.073 28.088H149.073C149.073 22.6098 148.056 17.6889 145.982 13.3598L143.276 14.6562ZM146.073 28.088C146.073 35.94 143.633 42.098 138.85 46.7215L140.936 48.8785C146.393 43.6033 149.073 36.62 149.073 28.088H146.073ZM138.841 46.7303C134.147 51.3454 127.73 53.724 119.413 53.724V56.724C128.333 56.724 135.57 54.1533 140.945 48.8697L138.841 46.7303ZM119.413 53.724H97.141V56.724H119.413V53.724ZM95.641 55.224V83H98.641V55.224H95.641ZM97.141 81.5H83.189V84.5H97.141V81.5ZM97.141 45.716H116.853V42.716H97.141V45.716ZM116.853 45.716C122.65 45.716 127.283 44.1961 130.473 40.9087L128.321 38.8193C125.879 41.3345 122.149 42.716 116.853 42.716V45.716ZM130.473 40.9087C133.619 37.6674 135.121 33.3349 135.121 28.088H132.121C132.121 32.7398 130.807 36.2579 128.321 38.8193L130.473 40.9087ZM135.121 28.088C135.121 22.5437 133.686 18.0328 130.617 14.7719L128.433 16.828C130.825 19.3699 132.121 23.051 132.121 28.088H135.121ZM130.633 14.7894C127.611 11.474 123.129 9.948 117.493 9.948V12.948C122.609 12.948 126.149 14.3233 128.417 16.8106L130.633 14.7894ZM117.493 9.948H97.141V12.948H117.493V9.948ZM95.641 11.448V44.216H98.641V11.448H95.641Z" fill="black"/>
<defs>
<linearGradient id="paint0_linear_331_7" x1="71.5" y1="-4.5" x2="71.5" y2="83" gradientUnits="userSpaceOnUse">
<stop stop-color="white"/>
<stop offset="1" stop-color="#DCDBDB"/>
</linearGradient>
</defs>
</svg>
