<svg width="23" height="13" viewBox="0 0 23 13" fill="none" xmlns="http://www.w3.org/2000/svg">
<path d="M0.26 13V0.119999H5.48C7.38667 0.119999 8.8 0.626666 9.72 1.64C10.64 2.64 11.1 4.30667 11.1 6.64C11.1 8.84 10.6467 10.4533 9.74 11.48C8.83333 12.4933 7.41333 13 5.48 13H0.26ZM2.44 11.32H5.14C5.98 11.32 6.68 11.2 7.24 10.96C7.8 10.7067 8.22 10.24 8.5 9.56C8.78 8.88 8.92 7.90667 8.92 6.64C8.92 5.37333 8.79333 4.39333 8.54 3.7C8.28667 3.00667 7.88 2.52 7.32 2.24C6.77333 1.96 6.04667 1.82 5.14 1.82H2.44V11.32ZM12.4483 13V0.119999H18.3683C19.8083 0.119999 20.8549 0.493333 21.5083 1.24C22.1749 1.97333 22.5083 2.97333 22.5083 4.24C22.5083 5.14667 22.2816 5.92 21.8283 6.56C21.3749 7.2 20.7216 7.64667 19.8683 7.9C20.1083 8.07333 20.2949 8.26 20.4283 8.46C20.5616 8.66 20.6949 8.92667 20.8283 9.26L22.4483 13H20.2083L18.6283 9.4C18.4816 9.05333 18.3016 8.80667 18.0883 8.66C17.8883 8.51333 17.5416 8.44 17.0483 8.44H14.6283V13H12.4483ZM14.6283 6.68H17.7883C18.5749 6.68 19.1949 6.48667 19.6483 6.1C20.1016 5.71333 20.3283 5.09333 20.3283 4.24C20.3283 2.62667 19.5483 1.82 17.9883 1.82H14.6283V6.68Z" fill="url(#paint0_linear_203_32)"/>
<defs>
<linearGradient id="paint0_linear_203_32" x1="4" y1="-17.5135" x2="34.2392" y2="3.87298" gradientUnits="userSpaceOnUse">
<stop offset="0.0208333" stop-color="#8EE024"/>
<stop offset="1" stop-color="#44B201"/>
</linearGradient>
</defs>
</svg>
