<svg width="223" height="83" viewBox="0 0 223 83" fill="none" xmlns="http://www.w3.org/2000/svg">
<path d="M0.296 83V0.567993H34.856C47.2293 0.567993 56.5307 3.768 62.76 10.168C69.0747 16.4827 72.232 27.1493 72.232 42.168C72.232 56.3333 69.1173 66.7013 62.888 73.272C56.744 79.7573 47.4 83 34.856 83H0.296ZM17.576 69.688H32.424C37.288 69.688 41.384 68.9627 44.712 67.512C48.04 65.976 50.5147 63.2453 52.136 59.32C53.8427 55.3093 54.696 49.592 54.696 42.168C54.696 34.744 53.928 29.0693 52.392 25.144C50.856 21.2187 48.4667 18.5307 45.224 17.08C41.9813 15.6293 37.7147 14.904 32.424 14.904H17.576V69.688ZM84.296 83V0.567993H123.848C133.32 0.567993 140.275 3.08533 144.712 8.12C149.149 13.0693 151.368 19.768 151.368 28.216C151.368 33.7627 149.917 38.5413 147.016 42.552C144.2 46.5627 140.189 49.464 134.984 51.256C136.349 52.3653 137.416 53.56 138.184 54.84C139.037 56.12 139.891 57.8267 140.744 59.96L150.728 83H132.808L123.08 60.856C122.227 58.9787 121.288 57.656 120.264 56.888C119.24 56.12 117.533 55.736 115.144 55.736H101.576V83H84.296ZM101.576 41.4H119.368C123.891 41.4 127.432 40.4187 129.992 38.456C132.552 36.408 133.832 32.9947 133.832 28.216C133.832 23.608 132.723 20.2373 130.504 18.104C128.285 15.9707 124.915 14.904 120.392 14.904H101.576V41.4ZM163.421 83V0.567993H222.557V14.008H180.701V35.128H217.821V48.44H180.701V69.688H222.557V83H163.421Z" fill="#3959FF"/>
<path d="M0.296 83H-0.204V83.5H0.296V83ZM0.296 0.567993V0.0679932H-0.204V0.567993H0.296ZM62.76 10.168L62.4017 10.5168L62.4064 10.5216L62.76 10.168ZM62.888 73.272L62.5251 72.928L62.525 72.9281L62.888 73.272ZM17.576 69.688H17.076V70.188H17.576V69.688ZM44.712 67.512L44.9118 67.9705L44.9215 67.966L44.712 67.512ZM52.136 59.32L51.6759 59.1242L51.6739 59.1291L52.136 59.32ZM45.224 17.08L45.4282 16.6236L45.4282 16.6236L45.224 17.08ZM17.576 14.904V14.404H17.076V14.904H17.576ZM0.796 83V0.567993H-0.204V83H0.796ZM0.296 1.06799H34.856V0.0679932H0.296V1.06799ZM34.856 1.06799C47.1476 1.06799 56.2981 4.24588 62.4017 10.5167L63.1183 9.81926C56.7633 3.29011 47.3111 0.0679932 34.856 0.0679932V1.06799ZM62.4064 10.5216C68.5807 16.6958 71.732 27.1968 71.732 42.168H72.732C72.732 27.1019 69.5687 16.2695 63.1136 9.81445L62.4064 10.5216ZM71.732 42.168C71.732 56.275 68.628 66.4907 62.5251 72.928L63.2509 73.616C69.6067 66.9119 72.732 56.3917 72.732 42.168H71.732ZM62.525 72.9281C56.5084 79.279 47.3194 82.5 34.856 82.5V83.5C47.4806 83.5 56.9796 80.2357 63.251 73.6159L62.525 72.9281ZM34.856 82.5H0.296V83.5H34.856V82.5ZM17.576 70.188H32.424V69.188H17.576V70.188ZM32.424 70.188C37.3347 70.188 41.5032 69.4561 44.9118 67.9703L44.5122 67.0537C41.2648 68.4692 37.2414 69.188 32.424 69.188V70.188ZM44.9215 67.966C48.3819 66.3689 50.9369 63.5328 52.5981 59.5109L51.6739 59.1291C50.0925 62.9578 47.6981 65.5831 44.5025 67.058L44.9215 67.966ZM52.5961 59.5158C54.3414 55.4143 55.196 49.6186 55.196 42.168H54.196C54.196 49.5654 53.344 55.2043 51.6759 59.1242L52.5961 59.5158ZM55.196 42.168C55.196 34.7218 54.4274 28.9735 52.8576 24.9618L51.9264 25.3262C53.4286 29.1652 54.196 34.7662 54.196 42.168H55.196ZM52.8576 24.9618C51.2834 20.9387 48.8126 18.1377 45.4282 16.6236L45.0198 17.5364C48.1208 18.9237 50.4286 21.4986 51.9264 25.3262L52.8576 24.9618ZM45.4282 16.6236C42.0978 15.1337 37.7536 14.404 32.424 14.404V15.404C37.6757 15.404 41.8649 16.125 45.0198 17.5364L45.4282 16.6236ZM32.424 14.404H17.576V15.404H32.424V14.404ZM17.076 14.904V69.688H18.076V14.904H17.076ZM84.296 83H83.796V83.5H84.296V83ZM84.296 0.567993V0.0679932H83.796V0.567993H84.296ZM144.712 8.12L144.337 8.45061L144.34 8.45377L144.712 8.12ZM147.016 42.552L146.611 42.2589L146.607 42.2647L147.016 42.552ZM134.984 51.256L134.821 50.7832L133.97 51.0763L134.669 51.6441L134.984 51.256ZM138.184 54.84L137.755 55.0972L137.761 55.1074L137.768 55.1173L138.184 54.84ZM140.744 59.96L140.28 60.1457L140.282 60.1523L140.285 60.1588L140.744 59.96ZM150.728 83V83.5H151.49L151.187 82.8012L150.728 83ZM132.808 83L132.35 83.2011L132.482 83.5H132.808V83ZM123.08 60.856L123.538 60.6549L123.535 60.6491L123.08 60.856ZM120.264 56.888L120.564 56.488L120.564 56.488L120.264 56.888ZM101.576 55.736V55.236H101.076V55.736H101.576ZM101.576 83V83.5H102.076V83H101.576ZM101.576 41.4H101.076V41.9H101.576V41.4ZM129.992 38.456L130.296 38.8529L130.304 38.8464L129.992 38.456ZM130.504 18.104L130.851 17.7436L130.851 17.7436L130.504 18.104ZM101.576 14.904V14.404H101.076V14.904H101.576ZM84.796 83V0.567993H83.796V83H84.796ZM84.296 1.06799H123.848V0.0679932H84.296V1.06799ZM123.848 1.06799C133.237 1.06799 140.028 3.56219 144.337 8.4506L145.087 7.78939C140.521 2.60846 133.403 0.0679932 123.848 0.0679932V1.06799ZM144.34 8.45377C148.674 13.2886 150.868 19.8567 150.868 28.216H151.868C151.868 19.6793 149.624 12.8501 145.084 7.78622L144.34 8.45377ZM150.868 28.216C150.868 33.6707 149.443 38.3437 146.611 42.2589L147.421 42.8451C150.391 38.739 151.868 33.8546 151.868 28.216H150.868ZM146.607 42.2647C143.859 46.1786 139.94 49.0211 134.821 50.7832L135.147 51.7288C140.439 49.9069 144.541 46.9467 147.425 42.8393L146.607 42.2647ZM134.669 51.6441C135.997 52.7231 137.022 53.8751 137.755 55.0972L138.613 54.5828C137.81 53.2449 136.702 52.0075 135.299 50.8679L134.669 51.6441ZM137.768 55.1173C138.595 56.3582 139.434 58.0304 140.28 60.1457L141.208 59.7743C140.348 57.6229 139.479 55.8818 138.6 54.5626L137.768 55.1173ZM140.285 60.1588L150.269 83.1988L151.187 82.8012L141.203 59.7612L140.285 60.1588ZM150.728 82.5H132.808V83.5H150.728V82.5ZM133.266 82.7989L123.538 60.6549L122.622 61.0571L132.35 83.2011L133.266 82.7989ZM123.535 60.6491C122.666 58.7372 121.684 57.3281 120.564 56.488L119.964 57.288C120.892 57.9839 121.787 59.2201 122.625 61.0629L123.535 60.6491ZM120.564 56.488C119.406 55.6192 117.56 55.236 115.144 55.236V56.236C117.506 56.236 119.074 56.6208 119.964 57.288L120.564 56.488ZM115.144 55.236H101.576V56.236H115.144V55.236ZM101.076 55.736V83H102.076V55.736H101.076ZM101.576 82.5H84.296V83.5H101.576V82.5ZM101.576 41.9H119.368V40.9H101.576V41.9ZM119.368 41.9C123.957 41.9 127.62 40.9046 130.296 38.8528L129.688 38.0592C127.244 39.9327 123.824 40.9 119.368 40.9V41.9ZM130.304 38.8464C133.03 36.6662 134.332 33.0745 134.332 28.216H133.332C133.332 32.9148 132.074 36.1498 129.68 38.0656L130.304 38.8464ZM134.332 28.216C134.332 23.5393 133.207 20.0094 130.851 17.7436L130.157 18.4644C132.238 20.4653 133.332 23.6767 133.332 28.216H134.332ZM130.851 17.7436C128.503 15.4863 124.984 14.404 120.392 14.404V15.404C124.846 15.404 128.068 16.4551 130.157 18.4644L130.851 17.7436ZM120.392 14.404H101.576V15.404H120.392V14.404ZM101.076 14.904V41.4H102.076V14.904H101.076ZM163.421 83H162.921V83.5H163.421V83ZM163.421 0.567993V0.0679932H162.921V0.567993H163.421ZM222.557 0.567993H223.057V0.0679932H222.557V0.567993ZM222.557 14.008V14.508H223.057V14.008H222.557ZM180.701 14.008V13.508H180.201V14.008H180.701ZM180.701 35.128H180.201V35.628H180.701V35.128ZM217.821 35.128H218.321V34.628H217.821V35.128ZM217.821 48.44V48.94H218.321V48.44H217.821ZM180.701 48.44V47.94H180.201V48.44H180.701ZM180.701 69.688H180.201V70.188H180.701V69.688ZM222.557 69.688H223.057V69.188H222.557V69.688ZM222.557 83V83.5H223.057V83H222.557ZM163.921 83V0.567993H162.921V83H163.921ZM163.421 1.06799H222.557V0.0679932H163.421V1.06799ZM222.057 0.567993V14.008H223.057V0.567993H222.057ZM222.557 13.508H180.701V14.508H222.557V13.508ZM180.201 14.008V35.128H181.201V14.008H180.201ZM180.701 35.628H217.821V34.628H180.701V35.628ZM217.321 35.128V48.44H218.321V35.128H217.321ZM217.821 47.94H180.701V48.94H217.821V47.94ZM180.201 48.44V69.688H181.201V48.44H180.201ZM180.701 70.188H222.557V69.188H180.701V70.188ZM222.057 69.688V83H223.057V69.688H222.057ZM222.557 82.5H163.421V83.5H222.557V82.5Z" fill="black"/>
</svg>
