<svg width="146" height="83" viewBox="0 0 146 83" fill="none" xmlns="http://www.w3.org/2000/svg">
<path d="M0.296 83V0.567993H59.432V14.008H17.576V35.128H54.696V48.44H17.576V69.688H59.432V83H0.296ZM65.611 83L95.435 41.656L66.379 0.567993H86.731L105.803 28.088L124.875 0.567993H145.227L116.171 41.656L145.995 83H125.387L105.803 55.48L86.219 83H65.611Z" fill="url(#paint0_linear_417_2)"/>
<path d="M0.296 83H-0.204V83.5H0.296V83ZM0.296 0.567993V0.0679932H-0.204V0.567993H0.296ZM59.432 0.567993H59.932V0.0679932H59.432V0.567993ZM59.432 14.008V14.508H59.932V14.008H59.432ZM17.576 14.008V13.508H17.076V14.008H17.576ZM17.576 35.128H17.076V35.628H17.576V35.128ZM54.696 35.128H55.196V34.628H54.696V35.128ZM54.696 48.44V48.94H55.196V48.44H54.696ZM17.576 48.44V47.94H17.076V48.44H17.576ZM17.576 69.688H17.076V70.188H17.576V69.688ZM59.432 69.688H59.932V69.188H59.432V69.688ZM59.432 83V83.5H59.932V83H59.432ZM0.796 83V0.567993H-0.204V83H0.796ZM0.296 1.06799H59.432V0.0679932H0.296V1.06799ZM58.932 0.567993V14.008H59.932V0.567993H58.932ZM59.432 13.508H17.576V14.508H59.432V13.508ZM17.076 14.008V35.128H18.076V14.008H17.076ZM17.576 35.628H54.696V34.628H17.576V35.628ZM54.196 35.128V48.44H55.196V35.128H54.196ZM54.696 47.94H17.576V48.94H54.696V47.94ZM17.076 48.44V69.688H18.076V48.44H17.076ZM17.576 70.188H59.432V69.188H17.576V70.188ZM58.932 69.688V83H59.932V69.688H58.932ZM59.432 82.5H0.296V83.5H59.432V82.5ZM65.611 83L65.2055 82.7075L64.6338 83.5H65.611V83ZM95.435 41.656L95.8405 41.9485L96.0494 41.6589L95.8432 41.3673L95.435 41.656ZM66.379 0.567993V0.0679932H65.413L65.9708 0.856684L66.379 0.567993ZM86.731 0.567993L87.142 0.283189L86.9928 0.0679932H86.731V0.567993ZM105.803 28.088L105.392 28.3728L105.803 28.9658L106.214 28.3728L105.803 28.088ZM124.875 0.567993V0.0679932H124.613L124.464 0.283189L124.875 0.567993ZM145.227 0.567993L145.635 0.856684L146.193 0.0679932H145.227V0.567993ZM116.171 41.656L115.763 41.3673L115.557 41.6589L115.765 41.9485L116.171 41.656ZM145.995 83V83.5H146.972L146.401 82.7075L145.995 83ZM125.387 83L124.98 83.2899L125.129 83.5H125.387V83ZM105.803 55.48L106.21 55.1901L105.803 54.6176L105.396 55.1901L105.803 55.48ZM86.219 83V83.5H86.4769L86.6264 83.2899L86.219 83ZM66.0165 83.2925L95.8405 41.9485L95.0295 41.3635L65.2055 82.7075L66.0165 83.2925ZM95.8432 41.3673L66.7872 0.279302L65.9708 0.856684L95.0268 41.9447L95.8432 41.3673ZM66.379 1.06799H86.731V0.0679932H66.379V1.06799ZM86.32 0.852797L105.392 28.3728L106.214 27.8032L87.142 0.283189L86.32 0.852797ZM106.214 28.3728L125.286 0.852797L124.464 0.283189L105.392 27.8032L106.214 28.3728ZM124.875 1.06799H145.227V0.0679932H124.875V1.06799ZM144.819 0.279302L115.763 41.3673L116.579 41.9447L145.635 0.856684L144.819 0.279302ZM115.765 41.9485L145.589 83.2925L146.401 82.7075L116.577 41.3635L115.765 41.9485ZM145.995 82.5H125.387V83.5H145.995V82.5ZM125.794 82.7101L106.21 55.1901L105.396 55.7699L124.98 83.2899L125.794 82.7101ZM105.396 55.1901L85.8116 82.7101L86.6264 83.2899L106.21 55.7699L105.396 55.1901ZM86.219 82.5H65.611V83.5H86.219V82.5Z" fill="black"/>
<defs>
<linearGradient id="paint0_linear_417_2" x1="72" y1="-8.5" x2="72" y2="72" gradientUnits="userSpaceOnUse">
<stop stop-color="#FFE81E"/>
<stop offset="1" stop-color="#FFAC0A"/>
</linearGradient>
</defs>
</svg>
