<svg width="129" height="86" viewBox="0 0 129 86" fill="none" xmlns="http://www.w3.org/2000/svg">
<path d="M57 81.6974V4.29521C57.0027 3.51155 57.2444 2.7434 57.6991 2.07344C58.1537 1.40348 58.804 0.857088 59.5801 0.493066C60.3561 0.129044 61.2285 -0.0388185 62.1033 0.00755015C62.9781 0.0539188 63.8221 0.312756 64.5447 0.75621L127.056 39.4573C129.648 41.0613 129.648 44.9228 127.056 46.531L64.5447 85.2321C63.8236 85.6801 62.9791 85.9428 62.1029 85.9917C61.2266 86.0405 60.3522 85.8737 59.5745 85.5094C58.7968 85.1451 58.1456 84.5971 57.6917 83.925C57.2379 83.253 56.9986 82.4825 57 81.6974Z" fill="white"/>
<path d="M54 67C58.4183 67 62 63.4183 62 59V27C62 22.5817 58.4183 19 54 19L8 19C3.58173 19 0 22.5817 0 27V59C0 63.4183 3.58173 67 8 67L54 67Z" fill="white"/>
</svg>
