<svg width="408" height="238" viewBox="0 0 408 238" fill="none" xmlns="http://www.w3.org/2000/svg">
<path d="M72 82.6974V5.29521C71.9973 4.51155 71.7556 3.7434 71.3009 3.07344C70.8463 2.40348 70.196 1.85709 69.4199 1.49307C68.6439 1.12904 67.7715 0.961181 66.8967 1.00755C66.0219 1.05392 65.1779 1.31276 64.4553 1.75621L1.94387 40.4573C-0.647956 42.0613 -0.647956 45.9228 1.94387 47.531L64.4553 86.2321C65.1764 86.6801 66.0209 86.9428 66.8971 86.9917C67.7734 87.0405 68.6478 86.8737 69.4255 86.5094C70.2032 86.145 70.8544 85.5971 71.3083 84.925C71.7621 84.253 72.0014 83.4825 72 82.6974Z" fill="white"/>
<path d="M75 68C70.5817 68 67 64.4183 67 60V28C67 23.5817 70.5817 20 75 20L121 20C125.418 20 129 23.5817 129 28V60C129 64.4183 125.418 68 121 68L75 68Z" fill="white"/>
<path d="M242.697 166L165.295 166C164.512 166.003 163.743 166.244 163.073 166.699C162.403 167.154 161.857 167.804 161.493 168.58C161.129 169.356 160.961 170.228 161.008 171.103C161.054 171.978 161.313 172.822 161.756 173.545L200.457 236.056C202.061 238.648 205.923 238.648 207.531 236.056L246.232 173.545C246.68 172.824 246.943 171.979 246.992 171.103C247.041 170.227 246.874 169.352 246.509 168.574C246.145 167.797 245.597 167.146 244.925 166.692C244.253 166.238 243.483 165.999 242.697 166Z" fill="white"/>
<path d="M228 163C228 167.418 224.418 171 220 171L188 171C183.582 171 180 167.418 180 163L180 117C180 112.582 183.582 109 188 109L220 109C224.418 109 228 112.582 228 117L228 163Z" fill="white"/>
<path d="M336 4.3026L336 81.7048C336.003 82.4885 336.244 83.2566 336.699 83.9266C337.154 84.5965 337.804 85.1429 338.58 85.5069C339.356 85.871 340.228 86.0388 341.103 85.9925C341.978 85.9461 342.822 85.6872 343.545 85.2438L406.056 46.5427C408.648 44.9387 408.648 41.0772 406.056 39.469L343.545 0.767897C342.824 0.319931 341.979 0.0572402 341.103 0.00835241C340.227 -0.0405354 339.352 0.126257 338.574 0.490607C337.797 0.854956 337.146 1.40292 336.692 2.07498C336.238 2.74704 335.999 3.51749 336 4.3026Z" fill="#FF2727"/>
<path d="M333 19C337.418 19 341 22.5817 341 27L341 59C341 63.4183 337.418 67 333 67L287 67C282.582 67 279 63.4183 279 59L279 27C279 22.5817 282.582 19 287 19L333 19Z" fill="#FF2727"/>
<path d="M141.68 158.074L86.9489 103.342C86.3928 102.79 85.6787 102.418 84.8835 102.266C84.0883 102.113 83.2421 102.187 82.436 102.478C81.6298 102.769 80.8943 103.268 80.3085 103.919C79.7227 104.57 79.3089 105.35 79.1115 106.175L62.2751 177.743C61.5765 180.71 64.307 183.44 67.2769 182.745L138.845 165.908C139.672 165.715 140.455 165.304 141.109 164.719C141.763 164.134 142.263 163.397 142.556 162.59C142.848 161.782 142.921 160.934 142.767 160.138C142.612 159.342 142.237 158.628 141.68 158.074Z" fill="white"/>
<path d="M133.409 145.56C130.285 148.684 125.22 148.684 122.095 145.56L99.468 122.933C96.3438 119.808 96.3438 114.743 99.468 111.619L131.995 79.0919C135.119 75.9677 140.184 75.9677 143.309 79.0919L165.936 101.719C169.06 104.844 169.06 109.909 165.936 113.033L133.409 145.56Z" fill="white"/>
<path d="M320.857 105.347L266.125 160.079C265.573 160.635 265.201 161.349 265.049 162.144C264.896 162.94 264.97 163.786 265.261 164.592C265.553 165.398 266.051 166.134 266.702 166.719C267.354 167.305 268.133 167.719 268.958 167.916L340.526 184.753C343.493 185.451 346.223 182.721 345.528 179.751L328.691 108.183C328.498 107.356 328.087 106.573 327.502 105.919C326.917 105.265 326.181 104.765 325.373 104.472C324.565 104.18 323.718 104.107 322.921 104.261C322.125 104.416 321.411 104.791 320.857 105.347Z" fill="white"/>
<path d="M308.343 113.619C311.467 116.743 311.467 121.808 308.343 124.933L285.716 147.56C282.592 150.684 277.526 150.684 274.402 147.56L241.875 115.033C238.751 111.909 238.751 106.844 241.875 103.719L264.503 81.0919C267.627 77.9677 272.692 77.9677 275.816 81.0919L308.343 113.619Z" fill="white"/>
<circle cx="204" cy="44" r="43" fill="white"/>
</svg>
