<svg width="32" height="22" viewBox="0 0 32 22" fill="none" xmlns="http://www.w3.org/2000/svg">
<path d="M0 2C0 0.895431 0.895431 0 2 0H30C31.1046 0 32 0.895431 32 2V12C32 17.5228 27.5228 22 22 22H10C4.47715 22 0 17.5228 0 12V2Z" fill="#AFC1D1"/>
<path d="M10.6321 11V3.72727H13.5014C14.0507 3.72727 14.5194 3.82552 14.9077 4.02202C15.2983 4.21615 15.5954 4.49195 15.799 4.84943C16.005 5.20455 16.108 5.6224 16.108 6.10298C16.108 6.58594 16.0038 7.00142 15.7955 7.34943C15.5871 7.69508 15.2853 7.96023 14.8899 8.14489C14.4969 8.32955 14.0211 8.42188 13.4624 8.42188H11.5412V7.18608H13.2138C13.5073 7.18608 13.7512 7.14583 13.9453 7.06534C14.1394 6.98485 14.2839 6.86411 14.3786 6.70312C14.4756 6.54214 14.5241 6.34209 14.5241 6.10298C14.5241 5.86151 14.4756 5.65791 14.3786 5.49219C14.2839 5.32647 14.1383 5.20099 13.9418 5.11577C13.7476 5.02817 13.5026 4.98438 13.2067 4.98438H12.1697V11H10.6321ZM14.5597 7.69034L16.3672 11H14.6697L12.9013 7.69034H14.5597ZM20.3161 3.72727V11H18.7784V5.18679H18.7358L17.0703 6.23082V4.86719L18.8707 3.72727H20.3161Z" fill="#E9362B"/>
<path d="M6.44247 18V12.9091H7.51882V15.0096H9.70384V12.9091H10.7777V18H9.70384V15.897H7.51882V18H6.44247ZM16.3434 15.4545C16.3434 16.0097 16.2382 16.482 16.0277 16.8714C15.8189 17.2609 15.5339 17.5584 15.1726 17.7638C14.813 17.9677 14.4086 18.0696 13.9595 18.0696C13.5071 18.0696 13.1011 17.9669 12.7415 17.7614C12.3819 17.5559 12.0977 17.2584 11.8888 16.869C11.68 16.4795 11.5756 16.008 11.5756 15.4545C11.5756 14.8994 11.68 14.4271 11.8888 14.0376C12.0977 13.6482 12.3819 13.3516 12.7415 13.1477C13.1011 12.9422 13.5071 12.8395 13.9595 12.8395C14.4086 12.8395 14.813 12.9422 15.1726 13.1477C15.5339 13.3516 15.8189 13.6482 16.0277 14.0376C16.2382 14.4271 16.3434 14.8994 16.3434 15.4545ZM15.2521 15.4545C15.2521 15.0949 15.1983 14.7917 15.0906 14.5447C14.9845 14.2978 14.8345 14.1106 14.6406 13.983C14.4467 13.8554 14.2197 13.7915 13.9595 13.7915C13.6993 13.7915 13.4723 13.8554 13.2784 13.983C13.0845 14.1106 12.9337 14.2978 12.826 14.5447C12.7199 14.7917 12.6669 15.0949 12.6669 15.4545C12.6669 15.8142 12.7199 16.1174 12.826 16.3643C12.9337 16.6113 13.0845 16.7985 13.2784 16.9261C13.4723 17.0537 13.6993 17.1175 13.9595 17.1175C14.2197 17.1175 14.4467 17.0537 14.6406 16.9261C14.8345 16.7985 14.9845 16.6113 15.0906 16.3643C15.1983 16.1174 15.2521 15.8142 15.2521 15.4545ZM17.1407 18V12.9091H18.2171V17.1126H20.3996V18H17.1407ZM22.9171 18H21.1124V12.9091H22.932C23.4441 12.9091 23.8849 13.011 24.2544 13.2148C24.624 13.417 24.9082 13.7079 25.1071 14.0874C25.3076 14.4669 25.4078 14.9209 25.4078 15.4496C25.4078 15.9799 25.3076 16.4356 25.1071 16.8168C24.9082 17.1979 24.6223 17.4904 24.2495 17.6942C23.8783 17.8981 23.4341 18 22.9171 18ZM22.1887 17.0778H22.8723C23.1905 17.0778 23.4582 17.0214 23.6752 16.9087C23.894 16.7944 24.0581 16.6179 24.1674 16.3793C24.2785 16.139 24.334 15.8291 24.334 15.4496C24.334 15.0734 24.2785 14.766 24.1674 14.5273C24.0581 14.2887 23.8948 14.113 23.6777 14.0004C23.4606 13.8877 23.193 13.8313 22.8748 13.8313H22.1887V17.0778Z" fill="#E9362B"/>
</svg>
