<svg width="20" height="18" viewBox="0 0 20 18" fill="none" xmlns="http://www.w3.org/2000/svg">
<path d="M4.6321 10V2.72727H7.50142C8.05066 2.72727 8.51941 2.82552 8.90767 3.02202C9.2983 3.21615 9.59541 3.49195 9.79901 3.84943C10.005 4.20455 10.108 4.6224 10.108 5.10298C10.108 5.58594 10.0038 6.00142 9.79545 6.34943C9.58712 6.69508 9.28527 6.96023 8.88991 7.14489C8.49692 7.32955 8.02107 7.42188 7.46236 7.42188H5.54119V6.18608H7.21378C7.50734 6.18608 7.75118 6.14583 7.94531 6.06534C8.13944 5.98485 8.28385 5.86411 8.37855 5.70312C8.47562 5.54214 8.52415 5.34209 8.52415 5.10298C8.52415 4.86151 8.47562 4.65791 8.37855 4.49219C8.28385 4.32647 8.13826 4.20099 7.94176 4.11577C7.74763 4.02817 7.5026 3.98438 7.20668 3.98438H6.16974V10H4.6321ZM8.55966 6.69034L10.3672 10H8.66974L6.90128 6.69034H8.55966ZM14.3161 2.72727V10H12.7784V4.18679H12.7358L11.0703 5.23082V3.86719L12.8707 2.72727H14.3161Z" fill="#E9362B"/>
<path d="M0.442472 17V11.9091H1.51882V14.0096H3.70384V11.9091H4.7777V17H3.70384V14.897H1.51882V17H0.442472ZM10.3434 14.4545C10.3434 15.0097 10.2382 15.482 10.0277 15.8714C9.81889 16.2609 9.53385 16.5584 9.17259 16.7638C8.81297 16.9677 8.40862 17.0696 7.95952 17.0696C7.5071 17.0696 7.10109 16.9669 6.74148 16.7614C6.38187 16.5559 6.09766 16.2584 5.88885 15.869C5.68004 15.4795 5.57564 15.008 5.57564 14.4545C5.57564 13.8994 5.68004 13.4271 5.88885 13.0376C6.09766 12.6482 6.38187 12.3516 6.74148 12.1477C7.10109 11.9422 7.5071 11.8395 7.95952 11.8395C8.40862 11.8395 8.81297 11.9422 9.17259 12.1477C9.53385 12.3516 9.81889 12.6482 10.0277 13.0376C10.2382 13.4271 10.3434 13.8994 10.3434 14.4545ZM9.25213 14.4545C9.25213 14.0949 9.19827 13.7917 9.09055 13.5447C8.98449 13.2978 8.83452 13.1106 8.64062 12.983C8.44673 12.8554 8.2197 12.7915 7.95952 12.7915C7.69934 12.7915 7.4723 12.8554 7.27841 12.983C7.08452 13.1106 6.93371 13.2978 6.82599 13.5447C6.71993 13.7917 6.6669 14.0949 6.6669 14.4545C6.6669 14.8142 6.71993 15.1174 6.82599 15.3643C6.93371 15.6113 7.08452 15.7985 7.27841 15.9261C7.4723 16.0537 7.69934 16.1175 7.95952 16.1175C8.2197 16.1175 8.44673 16.0537 8.64062 15.9261C8.83452 15.7985 8.98449 15.6113 9.09055 15.3643C9.19827 15.1174 9.25213 14.8142 9.25213 14.4545ZM11.1407 17V11.9091H12.2171V16.1126H14.3996V17H11.1407ZM16.9171 17H15.1124V11.9091H16.932C17.4441 11.9091 17.8849 12.011 18.2544 12.2148C18.624 12.417 18.9082 12.7079 19.1071 13.0874C19.3076 13.4669 19.4078 13.9209 19.4078 14.4496C19.4078 14.9799 19.3076 15.4356 19.1071 15.8168C18.9082 16.1979 18.6223 16.4904 18.2495 16.6942C17.8783 16.8981 17.4341 17 16.9171 17ZM16.1887 16.0778H16.8723C17.1905 16.0778 17.4582 16.0214 17.6752 15.9087C17.894 15.7944 18.0581 15.6179 18.1674 15.3793C18.2785 15.139 18.334 14.8291 18.334 14.4496C18.334 14.0734 18.2785 13.766 18.1674 13.5273C18.0581 13.2887 17.8948 13.113 17.6777 13.0004C17.4606 12.8877 17.193 12.8313 16.8748 12.8313H16.1887V16.0778Z" fill="#E9362B"/>
</svg>
