<svg width="154" height="83" viewBox="0 0 154 83" fill="none" xmlns="http://www.w3.org/2000/svg">
<path d="M0.296 83V0.567993H17.576V35.512L49.32 0.567993H69.16L39.336 33.976L70.696 83H52.264L28.584 44.984L17.576 56.888V83H0.296ZM82.671 83V0.567993H99.951V35.512L131.695 0.567993H151.535L121.711 33.976L153.071 83H134.639L110.959 44.984L99.951 56.888V83H82.671Z" fill="url(#paint0_linear_312_111)"/>
<path d="M0.296 83H-0.204V83.5H0.296V83ZM0.296 0.567993V0.0679932H-0.204V0.567993H0.296ZM17.576 0.567993H18.076V0.0679932H17.576V0.567993ZM17.576 35.512H17.076V36.806L17.9461 35.8482L17.576 35.512ZM49.32 0.567993V0.0679932H49.0987L48.9499 0.231792L49.32 0.567993ZM69.16 0.567993L69.533 0.900973L70.2766 0.0679932H69.16V0.567993ZM39.336 33.976L38.963 33.643L38.7104 33.9259L38.9148 34.2454L39.336 33.976ZM70.696 83V83.5H71.6094L71.1172 82.7306L70.696 83ZM52.264 83L51.8396 83.2644L51.9864 83.5H52.264V83ZM28.584 44.984L29.0084 44.7196L28.6619 44.1633L28.2169 44.6445L28.584 44.984ZM17.576 56.888L17.2089 56.5485L17.076 56.6922V56.888H17.576ZM17.576 83V83.5H18.076V83H17.576ZM0.796 83V0.567993H-0.204V83H0.796ZM0.296 1.06799H17.576V0.0679932H0.296V1.06799ZM17.076 0.567993V35.512H18.076V0.567993H17.076ZM17.9461 35.8482L49.6901 0.904195L48.9499 0.231792L17.2059 35.1758L17.9461 35.8482ZM49.32 1.06799H69.16V0.0679932H49.32V1.06799ZM68.787 0.235014L38.963 33.643L39.709 34.309L69.533 0.900973L68.787 0.235014ZM38.9148 34.2454L70.2748 83.2694L71.1172 82.7306L39.7572 33.7066L38.9148 34.2454ZM70.696 82.5H52.264V83.5H70.696V82.5ZM52.6884 82.7356L29.0084 44.7196L28.1596 45.2484L51.8396 83.2644L52.6884 82.7356ZM28.2169 44.6445L17.2089 56.5485L17.9431 57.2275L28.9511 45.3235L28.2169 44.6445ZM17.076 56.888V83H18.076V56.888H17.076ZM17.576 82.5H0.296V83.5H17.576V82.5ZM82.671 83H82.171V83.5H82.671V83ZM82.671 0.567993V0.0679932H82.171V0.567993H82.671ZM99.951 0.567993H100.451V0.0679932H99.951V0.567993ZM99.951 35.512H99.451V36.806L100.321 35.8482L99.951 35.512ZM131.695 0.567993V0.0679932H131.474L131.325 0.231792L131.695 0.567993ZM151.535 0.567993L151.908 0.900973L152.652 0.0679932H151.535V0.567993ZM121.711 33.976L121.338 33.643L121.085 33.9259L121.29 34.2454L121.711 33.976ZM153.071 83V83.5H153.984L153.492 82.7306L153.071 83ZM134.639 83L134.215 83.2644L134.361 83.5H134.639V83ZM110.959 44.984L111.383 44.7196L111.037 44.1633L110.592 44.6445L110.959 44.984ZM99.951 56.888L99.5839 56.5485L99.451 56.6922V56.888H99.951ZM99.951 83V83.5H100.451V83H99.951ZM83.171 83V0.567993H82.171V83H83.171ZM82.671 1.06799H99.951V0.0679932H82.671V1.06799ZM99.451 0.567993V35.512H100.451V0.567993H99.451ZM100.321 35.8482L132.065 0.904195L131.325 0.231792L99.5809 35.1758L100.321 35.8482ZM131.695 1.06799H151.535V0.0679932H131.695V1.06799ZM151.162 0.235014L121.338 33.643L122.084 34.309L151.908 0.900973L151.162 0.235014ZM121.29 34.2454L152.65 83.2694L153.492 82.7306L122.132 33.7066L121.29 34.2454ZM153.071 82.5H134.639V83.5H153.071V82.5ZM135.063 82.7356L111.383 44.7196L110.535 45.2484L134.215 83.2644L135.063 82.7356ZM110.592 44.6445L99.5839 56.5485L100.318 57.2275L111.326 45.3235L110.592 44.6445ZM99.451 56.888V83H100.451V56.888H99.451ZM99.951 82.5H82.671V83.5H99.951V82.5Z" fill="black"/>
<defs>
<linearGradient id="paint0_linear_312_111" x1="75.5" y1="-8.5" x2="75.5" y2="72" gradientUnits="userSpaceOnUse">
<stop stop-color="#FFE81E"/>
<stop offset="1" stop-color="#FFAC0A"/>
</linearGradient>
</defs>
</svg>
