<svg width="32" height="22" viewBox="0 0 32 22" fill="none" xmlns="http://www.w3.org/2000/svg">
<path d="M0 3C0 1.34315 1.34315 0 3 0H29C30.6569 0 32 1.34315 32 3V12V19C32 20.6569 30.6569 22 29 22H3C1.34315 22 0 20.6569 0 19V12V3Z" fill="#AFC1D1"/>
<path d="M7.01136 17H14.4602V14.9716H9.47159V5.36364H7.01136V17ZM16.0213 17H24.3168V14.9886H19.4304V14.9091L21.1293 13.2443C23.5213 11.0625 24.1634 9.97159 24.1634 8.64773C24.1634 6.63068 22.5156 5.20455 20.0213 5.20455C17.5781 5.20455 15.902 6.66477 15.9077 8.94886H18.2429C18.2372 7.83523 18.9418 7.15341 20.0043 7.15341C21.027 7.15341 21.7884 7.78977 21.7884 8.8125C21.7884 9.73864 21.2202 10.375 20.1634 11.392L16.0213 15.2273V17Z" fill="#1C1F2A"/>
</svg>
