<svg width="142" height="86" viewBox="0 0 142 86" fill="none" xmlns="http://www.w3.org/2000/svg">
<path d="M0.296 84V1.56799H38.952C45.4373 1.56799 50.728 2.80533 54.824 5.28C59.0053 7.75466 62.12 11.1253 64.168 15.392C66.216 19.6587 67.24 24.5227 67.24 29.984C67.24 35.5307 66.0453 40.4373 63.656 44.704C61.352 48.9707 58.024 52.2987 53.672 54.688C49.4053 56.992 44.328 58.144 38.44 58.144H17.576V84H0.296ZM17.576 44.448H34.856C39.8053 44.448 43.5173 43.168 45.992 40.608C48.552 37.9627 49.832 34.4213 49.832 29.984C49.832 25.2053 48.6373 21.5787 46.248 19.104C43.8587 16.544 40.2747 15.264 35.496 15.264H17.576V44.448ZM116.988 85.28C103.164 85.28 92.5827 81.568 85.244 74.144C77.9053 66.6347 74.236 56.4373 74.236 43.552C74.236 29.8987 77.7773 19.2747 84.86 11.68C92.028 4.08533 102.695 0.287994 116.86 0.287994C121.809 0.287994 126.247 0.671995 130.172 1.43999C134.183 2.12266 137.937 3.104 141.436 4.384V19.488C134.183 16.5013 126.417 15.008 118.14 15.008C108.753 15.008 102.012 17.3547 97.916 22.048C93.82 26.7413 91.772 33.9093 91.772 43.552C91.772 61.6427 100.647 70.688 118.396 70.688C122.407 70.688 126.375 70.3467 130.3 69.664C134.225 68.896 137.98 67.7867 141.564 66.336V81.568C138.065 82.6773 134.311 83.5733 130.3 84.256C126.375 84.9387 121.937 85.28 116.988 85.28Z" fill="url(#paint0_linear_307_3)"/>
<path d="M0.296 84H-0.204V84.5H0.296V84ZM0.296 1.56799V1.06799H-0.204V1.56799H0.296ZM54.824 5.28L54.5654 5.70797L54.5693 5.71029L54.824 5.28ZM64.168 15.392L64.6188 15.1756L64.6188 15.1756L64.168 15.392ZM63.656 44.704L63.2197 44.4597L63.2161 44.4664L63.656 44.704ZM53.672 54.688L53.9096 55.128L53.9126 55.1263L53.672 54.688ZM17.576 58.144V57.644H17.076V58.144H17.576ZM17.576 84V84.5H18.076V84H17.576ZM17.576 44.448H17.076V44.948H17.576V44.448ZM45.992 40.608L45.6327 40.2603L45.6325 40.2605L45.992 40.608ZM46.248 19.104L45.8824 19.4452L45.8883 19.4513L46.248 19.104ZM17.576 15.264V14.764H17.076V15.264H17.576ZM0.796 84V1.56799H-0.204V84H0.796ZM0.296 2.06799H38.952V1.06799H0.296V2.06799ZM38.952 2.06799C45.3774 2.06799 50.5704 3.29431 54.5654 5.70796L55.0826 4.85204C50.8856 2.31635 45.4972 1.06799 38.952 1.06799V2.06799ZM54.5693 5.71029C58.668 8.13602 61.7132 11.4333 63.7172 15.6084L64.6188 15.1756C62.5268 10.8174 59.3427 7.37331 55.0787 4.84971L54.5693 5.71029ZM63.7172 15.6084C65.7282 19.7978 66.74 24.586 66.74 29.984H67.74C67.74 24.4593 66.7038 19.5195 64.6188 15.1756L63.7172 15.6084ZM66.74 29.984C66.74 35.4568 65.5619 40.2772 63.2198 44.4597L64.0923 44.9483C66.5287 40.5974 67.74 35.6045 67.74 29.984H66.74ZM63.2161 44.4664C60.9589 48.6463 57.7011 51.9055 53.4314 54.2497L53.9126 55.1263C58.3469 52.6918 61.7451 49.2951 64.096 44.9416L63.2161 44.4664ZM53.4344 54.248C49.2548 56.505 44.2627 57.644 38.44 57.644V58.644C44.3933 58.644 49.5558 57.479 53.9096 55.128L53.4344 54.248ZM38.44 57.644H17.576V58.644H38.44V57.644ZM17.076 58.144V84H18.076V58.144H17.076ZM17.576 83.5H0.296V84.5H17.576V83.5ZM17.576 44.948H34.856V43.948H17.576V44.948ZM34.856 44.948C39.8868 44.948 43.7507 43.646 46.3515 40.9555L45.6325 40.2605C43.284 42.69 39.7239 43.948 34.856 43.948V44.948ZM46.3513 40.9557C49.0195 38.1986 50.332 34.5228 50.332 29.984H49.332C49.332 34.3199 48.0845 37.7268 45.6327 40.2603L46.3513 40.9557ZM50.332 29.984C50.332 25.1268 49.1172 21.3558 46.6077 18.7567L45.8883 19.4513C48.1575 21.8015 49.332 25.2838 49.332 29.984H50.332ZM46.6135 18.7628C44.099 16.0687 40.3609 14.764 35.496 14.764V15.764C40.1884 15.764 43.6183 17.0193 45.8825 19.4452L46.6135 18.7628ZM35.496 14.764H17.576V15.764H35.496V14.764ZM17.076 15.264V44.448H18.076V15.264H17.076ZM85.244 74.144L84.8864 74.4935L84.8884 74.4955L85.244 74.144ZM84.86 11.68L84.4964 11.3368L84.4943 11.339L84.86 11.68ZM130.172 1.43999L130.076 1.93084L130.088 1.93291L130.172 1.43999ZM141.436 4.384H141.936V4.03451L141.608 3.91443L141.436 4.384ZM141.436 19.488L141.246 19.9503L141.936 20.2346V19.488H141.436ZM97.916 22.048L98.2927 22.3768L98.2927 22.3768L97.916 22.048ZM130.3 69.664L130.386 70.1567L130.396 70.1547L130.3 69.664ZM141.564 66.336H142.064V65.5942L141.376 65.8725L141.564 66.336ZM141.564 81.568L141.715 82.0446L142.064 81.934V81.568H141.564ZM130.3 84.256L130.216 83.7631L130.214 83.7634L130.3 84.256ZM116.988 84.78C103.253 84.78 92.8168 81.0937 85.5996 73.7925L84.8884 74.4955C92.3485 82.0423 103.075 85.78 116.988 85.78V84.78ZM85.6016 73.7945C78.3741 66.3989 74.736 56.3381 74.736 43.552H73.736C73.736 56.5365 77.4366 66.8704 84.8864 74.4935L85.6016 73.7945ZM74.736 43.552C74.736 29.9843 78.2537 19.497 85.2257 12.021L84.4943 11.339C77.301 19.0523 73.736 29.813 73.736 43.552H74.736ZM85.2236 12.0232C92.2672 4.56038 102.781 0.787994 116.86 0.787994V-0.212006C102.608 -0.212006 91.7888 3.61028 84.4964 11.3368L85.2236 12.0232ZM116.86 0.787994C121.784 0.787994 126.189 1.17013 130.076 1.93069L130.268 0.949298C126.305 0.173858 121.834 -0.212006 116.86 -0.212006V0.787994ZM130.088 1.93291C134.072 2.61094 137.797 3.5849 141.264 4.85356L141.608 3.91443C138.078 2.62309 134.294 1.63439 130.256 0.947084L130.088 1.93291ZM140.936 4.384V19.488H141.936V4.384H140.936ZM141.626 19.0257C134.309 16.0128 126.479 14.508 118.14 14.508V15.508C126.356 15.508 134.056 16.9899 141.246 19.9503L141.626 19.0257ZM118.14 14.508C108.683 14.508 101.77 16.8717 97.5393 21.7192L98.2927 22.3768C102.254 17.8376 108.824 15.508 118.14 15.508V14.508ZM97.5393 21.7192C93.3302 26.5421 91.272 33.8518 91.272 43.552H92.272C92.272 33.9668 94.3098 26.9405 98.2927 22.3768L97.5393 21.7192ZM91.272 43.552C91.272 52.672 93.509 59.6044 98.0711 64.2542C102.635 68.9057 109.442 71.188 118.396 71.188V70.188C109.601 70.188 103.096 67.9476 98.7849 63.5538C94.4723 59.1583 92.272 52.5226 92.272 43.552H91.272ZM118.396 71.188C122.435 71.188 126.432 70.8442 130.386 70.1566L130.214 69.1714C126.317 69.8491 122.378 70.188 118.396 70.188V71.188ZM130.396 70.1547C134.352 69.3808 138.137 68.2625 141.752 66.7995L141.376 65.8725C137.823 67.3108 134.099 68.4112 130.204 69.1733L130.396 70.1547ZM141.064 66.336V81.568H142.064V66.336H141.064ZM141.413 81.0914C137.938 82.193 134.206 83.0839 130.216 83.7631L130.384 84.7489C134.415 84.0628 138.192 83.1616 141.715 82.0446L141.413 81.0914ZM130.214 83.7634C126.323 84.4401 121.915 84.78 116.988 84.78V85.78C121.959 85.78 126.426 85.4372 130.386 84.7486L130.214 83.7634Z" fill="black"/>
<defs>
<linearGradient id="paint0_linear_307_3" x1="1.61184" y1="-0.999994" x2="138.24" y2="94.1676" gradientUnits="userSpaceOnUse">
<stop stop-color="#FFA030"/>
<stop offset="1" stop-color="#FF8A00"/>
</linearGradient>
</defs>
</svg>
