<svg width="228" height="83" viewBox="0 0 228 83" fill="none" xmlns="http://www.w3.org/2000/svg">
<path d="M0.296 83V0.567993H38.952C45.4373 0.567993 50.728 1.80533 54.824 4.28C59.0053 6.75466 62.12 10.1253 64.168 14.392C66.216 18.6587 67.24 23.5227 67.24 28.984C67.24 34.5307 66.0453 39.4373 63.656 43.704C61.352 47.9707 58.024 51.2987 53.672 53.688C49.4053 55.992 44.328 57.144 38.44 57.144H17.576V83H0.296ZM17.576 43.448H34.856C39.8053 43.448 43.5173 42.168 45.992 39.608C48.552 36.9627 49.832 33.4213 49.832 28.984C49.832 24.2053 48.6373 20.5787 46.248 18.104C43.8587 15.544 40.2747 14.264 35.496 14.264H17.576V43.448Z" fill="#46D3FF"/>
<path d="M76.796 83V0.567993H111.356C123.729 0.567993 133.031 3.768 139.26 10.168C145.575 16.4827 148.732 27.1493 148.732 42.168C148.732 56.3333 145.617 66.7013 139.388 73.272C133.244 79.7573 123.9 83 111.356 83H76.796ZM94.076 69.688H108.924C113.788 69.688 117.884 68.9627 121.212 67.512C124.54 65.976 127.015 63.2453 128.636 59.32C130.343 55.3093 131.196 49.592 131.196 42.168C131.196 34.744 130.428 29.0693 128.892 25.144C127.356 21.2187 124.967 18.5307 121.724 17.08C118.481 15.6293 114.215 14.904 108.924 14.904H94.076V69.688ZM160.796 83V0.567993H200.348C209.82 0.567993 216.775 3.08533 221.212 8.12C225.649 13.0693 227.868 19.768 227.868 28.216C227.868 33.7627 226.417 38.5413 223.516 42.552C220.7 46.5627 216.689 49.464 211.484 51.256C212.849 52.3653 213.916 53.56 214.684 54.84C215.537 56.12 216.391 57.8267 217.244 59.96L227.228 83H209.308L199.58 60.856C198.727 58.9787 197.788 57.656 196.764 56.888C195.74 56.12 194.033 55.736 191.644 55.736H178.076V83H160.796ZM178.076 41.4H195.868C200.391 41.4 203.932 40.4187 206.492 38.456C209.052 36.408 210.332 32.9947 210.332 28.216C210.332 23.608 209.223 20.2373 207.004 18.104C204.785 15.9707 201.415 14.904 196.892 14.904H178.076V41.4Z" fill="url(#paint0_linear_311_56)"/>
<path d="M0.296 83H-0.204V83.5H0.296V83ZM0.296 0.567993V0.0679932H-0.204V0.567993H0.296ZM54.824 4.28L54.5654 4.70797L54.5693 4.71029L54.824 4.28ZM64.168 14.392L64.6188 14.1756L64.6188 14.1756L64.168 14.392ZM63.656 43.704L63.2197 43.4597L63.2161 43.4664L63.656 43.704ZM53.672 53.688L53.9096 54.128L53.9126 54.1263L53.672 53.688ZM17.576 57.144V56.644H17.076V57.144H17.576ZM17.576 83V83.5H18.076V83H17.576ZM17.576 43.448H17.076V43.948H17.576V43.448ZM45.992 39.608L45.6327 39.2603L45.6325 39.2605L45.992 39.608ZM46.248 18.104L45.8824 18.4452L45.8883 18.4513L46.248 18.104ZM17.576 14.264V13.764H17.076V14.264H17.576ZM0.796 83V0.567993H-0.204V83H0.796ZM0.296 1.06799H38.952V0.0679932H0.296V1.06799ZM38.952 1.06799C45.3774 1.06799 50.5704 2.29431 54.5654 4.70796L55.0826 3.85204C50.8856 1.31635 45.4972 0.0679932 38.952 0.0679932V1.06799ZM54.5693 4.71029C58.668 7.13602 61.7132 10.4333 63.7172 14.6084L64.6188 14.1756C62.5268 9.81735 59.3427 6.37331 55.0787 3.84971L54.5693 4.71029ZM63.7172 14.6084C65.7282 18.7978 66.74 23.586 66.74 28.984H67.74C67.74 23.4593 66.7038 18.5195 64.6188 14.1756L63.7172 14.6084ZM66.74 28.984C66.74 34.4568 65.5619 39.2772 63.2198 43.4597L64.0923 43.9483C66.5287 39.5974 67.74 34.6045 67.74 28.984H66.74ZM63.2161 43.4664C60.9589 47.6463 57.7011 50.9055 53.4314 53.2497L53.9126 54.1263C58.3469 51.6918 61.7451 48.2951 64.096 43.9416L63.2161 43.4664ZM53.4344 53.248C49.2548 55.505 44.2627 56.644 38.44 56.644V57.644C44.3933 57.644 49.5558 56.479 53.9096 54.128L53.4344 53.248ZM38.44 56.644H17.576V57.644H38.44V56.644ZM17.076 57.144V83H18.076V57.144H17.076ZM17.576 82.5H0.296V83.5H17.576V82.5ZM17.576 43.948H34.856V42.948H17.576V43.948ZM34.856 43.948C39.8868 43.948 43.7507 42.646 46.3515 39.9555L45.6325 39.2605C43.284 41.69 39.7239 42.948 34.856 42.948V43.948ZM46.3513 39.9557C49.0195 37.1986 50.332 33.5228 50.332 28.984H49.332C49.332 33.3199 48.0845 36.7268 45.6327 39.2603L46.3513 39.9557ZM50.332 28.984C50.332 24.1268 49.1172 20.3558 46.6077 17.7567L45.8883 18.4513C48.1575 20.8015 49.332 24.2838 49.332 28.984H50.332ZM46.6135 17.7628C44.099 15.0687 40.3609 13.764 35.496 13.764V14.764C40.1884 14.764 43.6183 16.0193 45.8825 18.4452L46.6135 17.7628ZM35.496 13.764H17.576V14.764H35.496V13.764ZM17.076 14.264V43.448H18.076V14.264H17.076ZM76.796 83H76.296V83.5H76.796V83ZM76.796 0.567993V0.0679932H76.296V0.567993H76.796ZM139.26 10.168L138.902 10.5168L138.906 10.5216L139.26 10.168ZM139.388 73.272L139.025 72.928L139.025 72.9281L139.388 73.272ZM94.076 69.688H93.576V70.188H94.076V69.688ZM121.212 67.512L121.412 67.9705L121.422 67.966L121.212 67.512ZM128.636 59.32L128.176 59.1242L128.174 59.1291L128.636 59.32ZM121.724 17.08L121.928 16.6236L121.928 16.6236L121.724 17.08ZM94.076 14.904V14.404H93.576V14.904H94.076ZM77.296 83V0.567993H76.296V83H77.296ZM76.796 1.06799H111.356V0.0679932H76.796V1.06799ZM111.356 1.06799C123.648 1.06799 132.798 4.24588 138.902 10.5167L139.618 9.81926C133.263 3.29011 123.811 0.0679932 111.356 0.0679932V1.06799ZM138.906 10.5216C145.081 16.6958 148.232 27.1968 148.232 42.168H149.232C149.232 27.1019 146.069 16.2695 139.614 9.81445L138.906 10.5216ZM148.232 42.168C148.232 56.275 145.128 66.4907 139.025 72.928L139.751 73.616C146.107 66.9119 149.232 56.3917 149.232 42.168H148.232ZM139.025 72.9281C133.008 79.279 123.819 82.5 111.356 82.5V83.5C123.981 83.5 133.48 80.2357 139.751 73.6159L139.025 72.9281ZM111.356 82.5H76.796V83.5H111.356V82.5ZM94.076 70.188H108.924V69.188H94.076V70.188ZM108.924 70.188C113.835 70.188 118.003 69.4561 121.412 67.9703L121.012 67.0537C117.765 68.4692 113.741 69.188 108.924 69.188V70.188ZM121.422 67.966C124.882 66.3689 127.437 63.5328 129.098 59.5109L128.174 59.1291C126.592 62.9578 124.198 65.5831 121.002 67.058L121.422 67.966ZM129.096 59.5158C130.841 55.4143 131.696 49.6186 131.696 42.168H130.696C130.696 49.5654 129.844 55.2043 128.176 59.1242L129.096 59.5158ZM131.696 42.168C131.696 34.7218 130.927 28.9735 129.358 24.9618L128.426 25.3262C129.929 29.1652 130.696 34.7662 130.696 42.168H131.696ZM129.358 24.9618C127.783 20.9387 125.313 18.1377 121.928 16.6236L121.52 17.5364C124.621 18.9237 126.929 21.4986 128.426 25.3262L129.358 24.9618ZM121.928 16.6236C118.598 15.1337 114.254 14.404 108.924 14.404V15.404C114.176 15.404 118.365 16.125 121.52 17.5364L121.928 16.6236ZM108.924 14.404H94.076V15.404H108.924V14.404ZM93.576 14.904V69.688H94.576V14.904H93.576ZM160.796 83H160.296V83.5H160.796V83ZM160.796 0.567993V0.0679932H160.296V0.567993H160.796ZM221.212 8.12L220.837 8.45061L220.84 8.45377L221.212 8.12ZM223.516 42.552L223.111 42.2589L223.107 42.2647L223.516 42.552ZM211.484 51.256L211.321 50.7832L210.47 51.0763L211.169 51.6441L211.484 51.256ZM214.684 54.84L214.255 55.0972L214.261 55.1074L214.268 55.1173L214.684 54.84ZM217.244 59.96L216.78 60.1457L216.782 60.1523L216.785 60.1588L217.244 59.96ZM227.228 83V83.5H227.99L227.687 82.8012L227.228 83ZM209.308 83L208.85 83.2011L208.982 83.5H209.308V83ZM199.58 60.856L200.038 60.6549L200.035 60.6491L199.58 60.856ZM196.764 56.888L197.064 56.488L197.064 56.488L196.764 56.888ZM178.076 55.736V55.236H177.576V55.736H178.076ZM178.076 83V83.5H178.576V83H178.076ZM178.076 41.4H177.576V41.9H178.076V41.4ZM206.492 38.456L206.796 38.8529L206.804 38.8464L206.492 38.456ZM207.004 18.104L207.351 17.7436L207.351 17.7436L207.004 18.104ZM178.076 14.904V14.404H177.576V14.904H178.076ZM161.296 83V0.567993H160.296V83H161.296ZM160.796 1.06799H200.348V0.0679932H160.796V1.06799ZM200.348 1.06799C209.737 1.06799 216.528 3.56219 220.837 8.4506L221.587 7.78939C217.021 2.60846 209.903 0.0679932 200.348 0.0679932V1.06799ZM220.84 8.45377C225.174 13.2886 227.368 19.8567 227.368 28.216H228.368C228.368 19.6793 226.124 12.8501 221.584 7.78622L220.84 8.45377ZM227.368 28.216C227.368 33.6707 225.943 38.3437 223.111 42.2589L223.921 42.8451C226.891 38.739 228.368 33.8546 228.368 28.216H227.368ZM223.107 42.2647C220.359 46.1786 216.44 49.0211 211.321 50.7832L211.647 51.7288C216.939 49.9069 221.041 46.9467 223.925 42.8393L223.107 42.2647ZM211.169 51.6441C212.497 52.7231 213.522 53.8751 214.255 55.0972L215.113 54.5828C214.31 53.2449 213.202 52.0075 211.799 50.8679L211.169 51.6441ZM214.268 55.1173C215.095 56.3582 215.934 58.0304 216.78 60.1457L217.708 59.7743C216.848 57.6229 215.979 55.8818 215.1 54.5626L214.268 55.1173ZM216.785 60.1588L226.769 83.1988L227.687 82.8012L217.703 59.7612L216.785 60.1588ZM227.228 82.5H209.308V83.5H227.228V82.5ZM209.766 82.7989L200.038 60.6549L199.122 61.0571L208.85 83.2011L209.766 82.7989ZM200.035 60.6491C199.166 58.7372 198.184 57.3281 197.064 56.488L196.464 57.288C197.392 57.9839 198.287 59.2201 199.125 61.0629L200.035 60.6491ZM197.064 56.488C195.906 55.6192 194.06 55.236 191.644 55.236V56.236C194.006 56.236 195.574 56.6208 196.464 57.288L197.064 56.488ZM191.644 55.236H178.076V56.236H191.644V55.236ZM177.576 55.736V83H178.576V55.736H177.576ZM178.076 82.5H160.796V83.5H178.076V82.5ZM178.076 41.9H195.868V40.9H178.076V41.9ZM195.868 41.9C200.457 41.9 204.12 40.9046 206.796 38.8528L206.188 38.0592C203.744 39.9327 200.324 40.9 195.868 40.9V41.9ZM206.804 38.8464C209.53 36.6662 210.832 33.0745 210.832 28.216H209.832C209.832 32.9148 208.574 36.1498 206.18 38.0656L206.804 38.8464ZM210.832 28.216C210.832 23.5393 209.707 20.0094 207.351 17.7436L206.657 18.4644C208.738 20.4653 209.832 23.6767 209.832 28.216H210.832ZM207.351 17.7436C205.003 15.4863 201.484 14.404 196.892 14.404V15.404C201.346 15.404 204.568 16.4551 206.657 18.4644L207.351 17.7436ZM196.892 14.404H178.076V15.404H196.892V14.404ZM177.576 14.904V41.4H178.576V14.904H177.576Z" fill="black"/>
<defs>
<linearGradient id="paint0_linear_311_56" x1="7.81482" y1="-7.5" x2="173.896" y2="152.754" gradientUnits="userSpaceOnUse">
<stop stop-color="#8CFF31"/>
<stop offset="0.889317" stop-color="#54BC02"/>
</linearGradient>
</defs>
</svg>
