<svg width="144" height="83" viewBox="0 0 144 83" fill="none" xmlns="http://www.w3.org/2000/svg">
<path d="M0.296 83V0.567993H38.952C45.4373 0.567993 50.728 1.80533 54.824 4.28C59.0053 6.75466 62.12 10.1253 64.168 14.392C66.216 18.6587 67.24 23.5227 67.24 28.984C67.24 34.5307 66.0453 39.4373 63.656 43.704C61.352 47.9707 58.024 51.2987 53.672 53.688C49.4053 55.992 44.328 57.144 38.44 57.144H17.576V83H0.296ZM17.576 43.448H34.856C39.8053 43.448 43.5173 42.168 45.992 39.608C48.552 36.9627 49.832 33.4213 49.832 28.984C49.832 24.2053 48.6373 20.5787 46.248 18.104C43.8587 15.544 40.2747 14.264 35.496 14.264H17.576V43.448ZM76.796 83V0.567993H115.452C121.937 0.567993 127.228 1.80533 131.324 4.28C135.505 6.75466 138.62 10.1253 140.668 14.392C142.716 18.6587 143.74 23.5227 143.74 28.984C143.74 34.5307 142.545 39.4373 140.156 43.704C137.852 47.9707 134.524 51.2987 130.172 53.688C125.905 55.992 120.828 57.144 114.94 57.144H94.076V83H76.796ZM94.076 43.448H111.356C116.305 43.448 120.017 42.168 122.492 39.608C125.052 36.9627 126.332 33.4213 126.332 28.984C126.332 24.2053 125.137 20.5787 122.748 18.104C120.359 15.544 116.775 14.264 111.996 14.264H94.076V43.448Z" fill="url(#paint0_linear_312_104)"/>
<path d="M0.296 83H-0.204V83.5H0.296V83ZM0.296 0.567993V0.0679932H-0.204V0.567993H0.296ZM54.824 4.28L54.5654 4.70797L54.5693 4.71029L54.824 4.28ZM64.168 14.392L64.6188 14.1756L64.6188 14.1756L64.168 14.392ZM63.656 43.704L63.2197 43.4597L63.2161 43.4664L63.656 43.704ZM53.672 53.688L53.9096 54.128L53.9126 54.1263L53.672 53.688ZM17.576 57.144V56.644H17.076V57.144H17.576ZM17.576 83V83.5H18.076V83H17.576ZM17.576 43.448H17.076V43.948H17.576V43.448ZM45.992 39.608L45.6327 39.2603L45.6325 39.2605L45.992 39.608ZM46.248 18.104L45.8824 18.4452L45.8883 18.4513L46.248 18.104ZM17.576 14.264V13.764H17.076V14.264H17.576ZM0.796 83V0.567993H-0.204V83H0.796ZM0.296 1.06799H38.952V0.0679932H0.296V1.06799ZM38.952 1.06799C45.3774 1.06799 50.5704 2.29431 54.5654 4.70796L55.0826 3.85204C50.8856 1.31635 45.4972 0.0679932 38.952 0.0679932V1.06799ZM54.5693 4.71029C58.668 7.13602 61.7132 10.4333 63.7172 14.6084L64.6188 14.1756C62.5268 9.81735 59.3427 6.37331 55.0787 3.84971L54.5693 4.71029ZM63.7172 14.6084C65.7282 18.7978 66.74 23.586 66.74 28.984H67.74C67.74 23.4593 66.7038 18.5195 64.6188 14.1756L63.7172 14.6084ZM66.74 28.984C66.74 34.4568 65.5619 39.2772 63.2198 43.4597L64.0923 43.9483C66.5287 39.5974 67.74 34.6045 67.74 28.984H66.74ZM63.2161 43.4664C60.9589 47.6463 57.7011 50.9055 53.4314 53.2497L53.9126 54.1263C58.3469 51.6918 61.7451 48.2951 64.096 43.9416L63.2161 43.4664ZM53.4344 53.248C49.2548 55.505 44.2627 56.644 38.44 56.644V57.644C44.3933 57.644 49.5558 56.479 53.9096 54.128L53.4344 53.248ZM38.44 56.644H17.576V57.644H38.44V56.644ZM17.076 57.144V83H18.076V57.144H17.076ZM17.576 82.5H0.296V83.5H17.576V82.5ZM17.576 43.948H34.856V42.948H17.576V43.948ZM34.856 43.948C39.8868 43.948 43.7507 42.646 46.3515 39.9555L45.6325 39.2605C43.284 41.69 39.7239 42.948 34.856 42.948V43.948ZM46.3513 39.9557C49.0195 37.1986 50.332 33.5228 50.332 28.984H49.332C49.332 33.3199 48.0845 36.7268 45.6327 39.2603L46.3513 39.9557ZM50.332 28.984C50.332 24.1268 49.1172 20.3558 46.6077 17.7567L45.8883 18.4513C48.1575 20.8015 49.332 24.2838 49.332 28.984H50.332ZM46.6135 17.7628C44.099 15.0687 40.3609 13.764 35.496 13.764V14.764C40.1884 14.764 43.6183 16.0193 45.8825 18.4452L46.6135 17.7628ZM35.496 13.764H17.576V14.764H35.496V13.764ZM17.076 14.264V43.448H18.076V14.264H17.076ZM76.796 83H76.296V83.5H76.796V83ZM76.796 0.567993V0.0679932H76.296V0.567993H76.796ZM131.324 4.28L131.065 4.70797L131.069 4.71029L131.324 4.28ZM140.668 14.392L141.119 14.1756L141.119 14.1756L140.668 14.392ZM140.156 43.704L139.72 43.4597L139.716 43.4664L140.156 43.704ZM130.172 53.688L130.41 54.128L130.413 54.1263L130.172 53.688ZM94.076 57.144V56.644H93.576V57.144H94.076ZM94.076 83V83.5H94.576V83H94.076ZM94.076 43.448H93.576V43.948H94.076V43.448ZM122.492 39.608L122.133 39.2603L122.133 39.2605L122.492 39.608ZM122.748 18.104L122.382 18.4452L122.388 18.4513L122.748 18.104ZM94.076 14.264V13.764H93.576V14.264H94.076ZM77.296 83V0.567993H76.296V83H77.296ZM76.796 1.06799H115.452V0.0679932H76.796V1.06799ZM115.452 1.06799C121.877 1.06799 127.07 2.29431 131.065 4.70796L131.583 3.85204C127.386 1.31635 121.997 0.0679932 115.452 0.0679932V1.06799ZM131.069 4.71029C135.168 7.13602 138.213 10.4333 140.217 14.6084L141.119 14.1756C139.027 9.81735 135.843 6.37331 131.579 3.84971L131.069 4.71029ZM140.217 14.6084C142.228 18.7978 143.24 23.586 143.24 28.984H144.24C144.24 23.4593 143.204 18.5195 141.119 14.1756L140.217 14.6084ZM143.24 28.984C143.24 34.4568 142.062 39.2772 139.72 43.4597L140.592 43.9483C143.029 39.5974 144.24 34.6045 144.24 28.984H143.24ZM139.716 43.4664C137.459 47.6463 134.201 50.9055 129.931 53.2497L130.413 54.1263C134.847 51.6918 138.245 48.2951 140.596 43.9416L139.716 43.4664ZM129.934 53.248C125.755 55.505 120.763 56.644 114.94 56.644V57.644C120.893 57.644 126.056 56.479 130.41 54.128L129.934 53.248ZM114.94 56.644H94.076V57.644H114.94V56.644ZM93.576 57.144V83H94.576V57.144H93.576ZM94.076 82.5H76.796V83.5H94.076V82.5ZM94.076 43.948H111.356V42.948H94.076V43.948ZM111.356 43.948C116.387 43.948 120.251 42.646 122.851 39.9555L122.133 39.2605C119.784 41.69 116.224 42.948 111.356 42.948V43.948ZM122.851 39.9557C125.52 37.1986 126.832 33.5228 126.832 28.984H125.832C125.832 33.3199 124.585 36.7268 122.133 39.2603L122.851 39.9557ZM126.832 28.984C126.832 24.1268 125.617 20.3558 123.108 17.7567L122.388 18.4513C124.658 20.8015 125.832 24.2838 125.832 28.984H126.832ZM123.114 17.7628C120.599 15.0687 116.861 13.764 111.996 13.764V14.764C116.688 14.764 120.118 16.0193 122.382 18.4452L123.114 17.7628ZM111.996 13.764H94.076V14.764H111.996V13.764ZM93.576 14.264V43.448H94.576V14.264H93.576Z" fill="black"/>
<defs>
<linearGradient id="paint0_linear_312_104" x1="69.5" y1="-8.5" x2="69.5" y2="72" gradientUnits="userSpaceOnUse">
<stop stop-color="#FFE81E"/>
<stop offset="1" stop-color="#FFAC0A"/>
</linearGradient>
</defs>
</svg>
