<svg width="22" height="15" viewBox="0 0 22 15" fill="none" xmlns="http://www.w3.org/2000/svg">
<path d="M0.26 14V1.12H6C6.98667 1.12 7.8 1.30667 8.44 1.68C9.08 2.05333 9.55333 2.56667 9.86 3.22C10.1667 3.86 10.32 4.59333 10.32 5.42C10.32 6.7 9.92 7.72667 9.12 8.5C8.33333 9.27333 7.26667 9.66 5.92 9.66H2.44V14H0.26ZM2.44 7.94H5.52C6.38667 7.94 7.04 7.71333 7.48 7.26C7.92 6.80667 8.14 6.19333 8.14 5.42C8.14 4.59333 7.92667 3.95333 7.5 3.5C7.08667 3.04667 6.46 2.82 5.62 2.82H2.44V7.94ZM17.2969 14.2C15.1769 14.2 13.5702 13.62 12.4769 12.46C11.3969 11.3 10.8569 9.73333 10.8569 7.76C10.8569 6.34667 11.0835 5.13333 11.5369 4.12C12.0035 3.09333 12.7102 2.30667 13.6569 1.76C14.6035 1.2 15.8102 0.919999 17.2769 0.919999C18.0235 0.919999 18.7035 0.979999 19.3169 1.1C19.9435 1.20667 20.5235 1.35333 21.0569 1.54V3.44C20.5235 3.22667 19.9502 3.06667 19.3369 2.96C18.7369 2.84 18.1035 2.78 17.4369 2.78C15.8369 2.78 14.7035 3.20667 14.0369 4.06C13.3835 4.91333 13.0569 6.14667 13.0569 7.76C13.0569 9.26667 13.4169 10.4133 14.1369 11.2C14.8569 11.9733 15.9702 12.36 17.4769 12.36C18.0902 12.36 18.7035 12.3133 19.3169 12.22C19.9435 12.1133 20.5302 11.9533 21.0769 11.74V13.66C20.5435 13.8333 19.9635 13.9667 19.3369 14.06C18.7235 14.1533 18.0435 14.2 17.2969 14.2Z" fill="#F2994A"/>
</svg>
