<svg width="247" height="241" viewBox="0 0 247 241" fill="none" xmlns="http://www.w3.org/2000/svg">
<path d="M72 81.6974V4.29521C71.9973 3.51155 71.7556 2.7434 71.3009 2.07344C70.8463 1.40348 70.196 0.857088 69.4199 0.493066C68.6439 0.129044 67.7715 -0.0388185 66.8967 0.00755015C66.0219 0.0539188 65.1779 0.312756 64.4553 0.75621L1.94387 39.4573C-0.647956 41.0613 -0.647956 44.9228 1.94387 46.531L64.4553 85.2321C65.1764 85.6801 66.0209 85.9428 66.8971 85.9917C67.7734 86.0405 68.6478 85.8737 69.4255 85.5094C70.2032 85.1451 70.8544 84.5971 71.3083 83.925C71.7621 83.253 72.0014 82.4825 72 81.6974Z" fill="white"/>
<path d="M75 67C70.5817 67 67 63.4183 67 59V27C67 22.5817 70.5817 19 75 19L121 19C125.418 19 129 22.5817 129 27V59C129 63.4183 125.418 67 121 67L75 67Z" fill="white"/>
<path d="M242.697 169H165.295C164.512 169.003 163.743 169.244 163.073 169.699C162.403 170.154 161.857 170.804 161.493 171.58C161.129 172.356 160.961 173.228 161.008 174.103C161.054 174.978 161.313 175.822 161.756 176.545L200.457 239.056C202.061 241.648 205.923 241.648 207.531 239.056L246.232 176.545C246.68 175.824 246.943 174.979 246.992 174.103C247.041 173.227 246.874 172.352 246.509 171.574C246.145 170.797 245.597 170.146 244.925 169.692C244.253 169.238 243.483 168.999 242.697 169Z" fill="white"/>
<path d="M228 166C228 170.418 224.418 174 220 174H188C183.582 174 180 170.418 180 166L180 120C180 115.582 183.582 112 188 112H220C224.418 112 228 115.582 228 120L228 166Z" fill="white"/>
<path d="M141.68 158.074L86.9489 103.342C86.3928 102.79 85.6787 102.418 84.8835 102.266C84.0883 102.113 83.2421 102.187 82.436 102.478C81.6298 102.769 80.8943 103.268 80.3085 103.919C79.7227 104.57 79.3089 105.35 79.1115 106.175L62.2751 177.743C61.5765 180.71 64.307 183.44 67.2769 182.745L138.845 165.908C139.672 165.715 140.455 165.304 141.109 164.719C141.763 164.134 142.263 163.397 142.556 162.59C142.848 161.782 142.921 160.934 142.767 160.138C142.612 159.342 142.237 158.628 141.68 158.074Z" fill="white"/>
<path d="M133.409 145.56C130.285 148.684 125.22 148.684 122.095 145.56L99.468 122.933C96.3438 119.808 96.3438 114.743 99.468 111.619L131.995 79.0919C135.119 75.9677 140.184 75.9677 143.309 79.0919L165.936 101.719C169.06 104.843 169.06 109.909 165.936 113.033L133.409 145.56Z" fill="white"/>
<path d="M247 43C247 66.7482 227.748 86 204 86C180.252 86 161 66.7482 161 43C161 19.2518 180.252 0 204 0C227.748 0 247 19.2518 247 43Z" fill="white"/>
</svg>
