<svg width="107" height="40" viewBox="0 0 107 40" fill="none" xmlns="http://www.w3.org/2000/svg">
<mask id="path-1-inside-1_203_12" fill="white">
<path fill-rule="evenodd" clip-rule="evenodd" d="M87.8482 4L102.663 4V21.7778H107L95.1964 36L83.3928 21.7778H87.8482V4Z"/>
</mask>
<path fill-rule="evenodd" clip-rule="evenodd" d="M87.8482 4L102.663 4V21.7778H107L95.1964 36L83.3928 21.7778H87.8482V4Z" fill="url(#paint0_linear_203_12)"/>
<path d="M102.663 4V3.5L103.163 3.5V4H102.663ZM87.8482 4L87.3482 4V3.5H87.8482V4ZM102.663 21.7778V22.2778H102.163V21.7778H102.663ZM107 21.7778V21.2778H108.065L107.385 22.0971L107 21.7778ZM95.1964 36L95.5811 36.3193L95.1964 36.7829L94.8116 36.3193L95.1964 36ZM83.3928 21.7778L83.008 22.0971L82.3281 21.2778H83.3928V21.7778ZM87.8482 21.7778H88.3482V22.2778H87.8482V21.7778ZM102.663 4.5L87.8482 4.5V3.5L102.663 3.5V4.5ZM102.163 21.7778V4H103.163V21.7778H102.163ZM107 22.2778H102.663V21.2778H107V22.2778ZM94.8116 35.6807L106.615 21.4585L107.385 22.0971L95.5811 36.3193L94.8116 35.6807ZM83.7775 21.4584L95.5811 35.6807L94.8116 36.3193L83.008 22.0971L83.7775 21.4584ZM87.8482 22.2778H83.3928V21.2778H87.8482V22.2778ZM88.3482 4V21.7778H87.3482V4L88.3482 4Z" fill="black" mask="url(#path-1-inside-1_203_12)"/>
<mask id="path-3-inside-2_203_12" fill="white">
<path fill-rule="evenodd" clip-rule="evenodd" d="M63.4577 3.15047L73.9333 13.6261L61.3625 26.1969L64.4292 29.2636L46.0262 30.9738L47.7364 12.5708L50.8869 15.7213L63.4577 3.15047Z"/>
</mask>
<path fill-rule="evenodd" clip-rule="evenodd" d="M63.4577 3.15047L73.9333 13.6261L61.3625 26.1969L64.4292 29.2636L46.0262 30.9738L47.7364 12.5708L50.8869 15.7213L63.4577 3.15047Z" fill="url(#paint1_linear_203_12)"/>
<path d="M73.9333 13.6261L74.2869 13.2726L74.6404 13.6261L74.2869 13.9797L73.9333 13.6261ZM63.4577 3.15047L63.1041 2.79692L63.4577 2.44337L63.8112 2.79692L63.4577 3.15047ZM61.3625 26.1969L61.009 26.5505L60.6554 26.1969L61.009 25.8434L61.3625 26.1969ZM64.4292 29.2636L64.7828 28.91L65.5357 29.6629L64.4755 29.7614L64.4292 29.2636ZM46.0262 30.9738L46.0724 31.4717L45.4726 31.5274L45.5283 30.9275L46.0262 30.9738ZM47.7364 12.5708L47.2385 12.5245L47.3371 11.4643L48.09 12.2172L47.7364 12.5708ZM50.8869 15.7213L51.2404 16.0748L50.8869 16.4284L50.5333 16.0748L50.8869 15.7213ZM73.5798 13.9797L63.1041 3.50403L63.8112 2.79692L74.2869 13.2726L73.5798 13.9797ZM61.009 25.8434L73.5798 13.2726L74.2869 13.9797L61.7161 26.5505L61.009 25.8434ZM64.0757 29.6171L61.009 26.5505L61.7161 25.8434L64.7828 28.91L64.0757 29.6171ZM45.9799 30.476L64.383 28.7657L64.4755 29.7614L46.0724 31.4717L45.9799 30.476ZM48.2343 12.617L46.524 31.0201L45.5283 30.9275L47.2385 12.5245L48.2343 12.617ZM50.5333 16.0748L47.3828 12.9243L48.09 12.2172L51.2404 15.3677L50.5333 16.0748ZM63.8112 3.50403L51.2404 16.0748L50.5333 15.3677L63.1041 2.79692L63.8112 3.50403Z" fill="black" mask="url(#path-3-inside-2_203_12)"/>
<mask id="path-5-inside-3_203_12" fill="white">
<path fill-rule="evenodd" clip-rule="evenodd" d="M32 8.45545L32 23.2703L14.2222 23.2703L14.2222 27.6072L4.33065e-06 15.8036L14.2222 4L14.2222 8.45545L32 8.45545Z"/>
</mask>
<path fill-rule="evenodd" clip-rule="evenodd" d="M32 8.45545L32 23.2703L14.2222 23.2703L14.2222 27.6072L4.33065e-06 15.8036L14.2222 4L14.2222 8.45545L32 8.45545Z" fill="url(#paint2_linear_203_12)"/>
<path d="M32 23.2703L32.5 23.2703L32.5 23.7703L32 23.7703L32 23.2703ZM32 8.45545L32 7.95545L32.5 7.95545L32.5 8.45545L32 8.45545ZM14.2222 23.2703L13.7222 23.2703L13.7222 22.7703L14.2222 22.7703L14.2222 23.2703ZM14.2222 27.6072L14.7222 27.6072L14.7222 28.6719L13.9029 27.992L14.2222 27.6072ZM4.33065e-06 15.8036L-0.319317 16.1884L-0.782906 15.8036L-0.319317 15.4188L4.33065e-06 15.8036ZM14.2222 4L13.9029 3.61525L14.7222 2.93526L14.7222 4L14.2222 4ZM14.2222 8.45545L14.2222 8.95545L13.7222 8.95545L13.7222 8.45545L14.2222 8.45545ZM31.5 23.2703L31.5 8.45545L32.5 8.45545L32.5 23.2703L31.5 23.2703ZM14.2222 22.7703L32 22.7703L32 23.7703L14.2222 23.7703L14.2222 22.7703ZM13.7222 27.6072L13.7222 23.2703L14.7222 23.2703L14.7222 27.6072L13.7222 27.6072ZM0.319326 15.4188L14.5415 27.2225L13.9029 27.992L-0.319317 16.1884L0.319326 15.4188ZM14.5416 4.38475L0.319325 16.1884L-0.319317 15.4188L13.9029 3.61525L14.5416 4.38475ZM13.7222 8.45545L13.7222 4L14.7222 4L14.7222 8.45545L13.7222 8.45545ZM32 8.95545L14.2222 8.95545L14.2222 7.95545L32 7.95545L32 8.95545Z" fill="black" mask="url(#path-5-inside-3_203_12)"/>
<defs>
<linearGradient id="paint0_linear_203_12" x1="87.6705" y1="4" x2="102.426" y2="33.8074" gradientUnits="userSpaceOnUse">
<stop stop-color="#AFAFAF"/>
<stop offset="0.494792" stop-color="#CFCECE"/>
<stop offset="0.984375" stop-color="#E9E7E7"/>
</linearGradient>
<linearGradient id="paint1_linear_203_12" x1="63.332" y1="3.02477" x2="52.6887" y2="34.5355" gradientUnits="userSpaceOnUse">
<stop stop-color="#AFAFAF"/>
<stop offset="0.494792" stop-color="#CFCECE"/>
<stop offset="0.984375" stop-color="#E9E7E7"/>
</linearGradient>
<linearGradient id="paint2_linear_203_12" x1="32" y1="8.27767" x2="2.19259" y2="23.0332" gradientUnits="userSpaceOnUse">
<stop stop-color="#AFAFAF"/>
<stop offset="0.494792" stop-color="#CFCECE"/>
<stop offset="0.984375" stop-color="#E9E7E7"/>
</linearGradient>
</defs>
</svg>
