<svg width="241" height="247" viewBox="0 0 241 247" fill="none" xmlns="http://www.w3.org/2000/svg">
<path d="M81.6974 175H4.29521C3.51155 175.003 2.74341 175.244 2.07345 175.699C1.40349 176.154 0.857094 176.804 0.493072 177.58C0.12905 178.356 -0.0388126 179.228 0.00755614 180.103C0.0539248 180.978 0.312762 181.822 0.756216 182.545L39.4573 245.056C41.0613 247.648 44.9228 247.648 46.531 245.056L85.2321 182.545C85.6801 181.824 85.9428 180.979 85.9917 180.103C86.0406 179.227 85.8738 178.352 85.5094 177.574C85.1451 176.797 84.5971 176.146 83.925 175.692C83.253 175.238 82.4825 174.999 81.6974 175Z" fill="white"/>
<path d="M67 172C67 176.418 63.4183 180 59 180H27C22.5817 180 19 176.418 19 172L19 126C19 121.582 22.5817 118 27 118H59C63.4183 118 67 121.582 67 126L67 172Z" fill="white"/>
<path d="M169 4.30259V81.7048C169.003 82.4884 169.244 83.2566 169.699 83.9266C170.154 84.5965 170.804 85.1429 171.58 85.5069C172.356 85.8709 173.228 86.0388 174.103 85.9924C174.978 85.9461 175.822 85.6872 176.545 85.2438L239.056 46.5427C241.648 44.9387 241.648 41.0772 239.056 39.469L176.545 0.767888C175.824 0.319922 174.979 0.0572316 174.103 0.00834375C173.227 -0.0405441 172.352 0.126248 171.574 0.490598C170.797 0.854948 170.146 1.40291 169.692 2.07497C169.238 2.74703 168.999 3.51748 169 4.30259Z" fill="white"/>
<path d="M166 19C170.418 19 174 22.5817 174 27V59C174 63.4183 170.418 67 166 67L120 67C115.582 67 112 63.4183 112 59V27C112 22.5817 115.582 19 120 19L166 19Z" fill="white"/>
<path d="M158.074 105.32L103.342 160.051C102.79 160.607 102.418 161.321 102.266 162.116C102.113 162.912 102.187 163.758 102.478 164.564C102.769 165.37 103.268 166.106 103.919 166.692C104.57 167.277 105.35 167.691 106.175 167.888L177.743 184.725C180.71 185.423 183.44 182.693 182.745 179.723L165.908 108.155C165.715 107.328 165.304 106.545 164.719 105.891C164.134 105.237 163.397 104.737 162.59 104.444C161.782 104.152 160.934 104.079 160.138 104.233C159.342 104.388 158.628 104.763 158.074 105.32Z" fill="white"/>
<path d="M145.56 113.591C148.684 116.715 148.684 121.78 145.56 124.905L122.933 147.532C119.808 150.656 114.743 150.656 111.619 147.532L79.0919 115.005C75.9677 111.881 75.9677 106.816 79.0919 103.691L101.719 81.0639C104.844 77.9397 109.909 77.9397 113.033 81.0639L145.56 113.591Z" fill="white"/>
<path d="M43 0C66.7482 -1.03807e-06 86 19.2518 86 43C86 66.7482 66.7482 86 43 86C19.2518 86 1.03807e-06 66.7482 0 43C-1.03807e-06 19.2518 19.2518 1.03807e-06 43 0Z" fill="white"/>
</svg>
