<svg width="107" height="40" viewBox="0 0 107 40" fill="none" xmlns="http://www.w3.org/2000/svg">
<mask id="path-1-inside-1_203_11" fill="white">
<path fill-rule="evenodd" clip-rule="evenodd" d="M19.1518 4L4.33694 4L4.33694 21.7778H0L11.8036 36L23.6072 21.7778H19.1518L19.1518 4Z"/>
</mask>
<path fill-rule="evenodd" clip-rule="evenodd" d="M19.1518 4L4.33694 4L4.33694 21.7778H0L11.8036 36L23.6072 21.7778H19.1518L19.1518 4Z" fill="url(#paint0_linear_203_11)"/>
<path d="M4.33694 4V3.5L3.83694 3.5V4H4.33694ZM19.1518 4L19.6518 4V3.5H19.1518V4ZM4.33694 21.7778V22.2778H4.83694V21.7778H4.33694ZM0 21.7778L0 21.2778H-1.06474L-0.384752 22.0971L0 21.7778ZM11.8036 36L11.4189 36.3193L11.8036 36.7829L12.1884 36.3193L11.8036 36ZM23.6072 21.7778L23.992 22.0971L24.6719 21.2778H23.6072V21.7778ZM19.1518 21.7778H18.6518V22.2778H19.1518V21.7778ZM4.33694 4.5L19.1518 4.5V3.5L4.33694 3.5V4.5ZM4.83694 21.7778L4.83694 4H3.83694L3.83694 21.7778H4.83694ZM0 22.2778H4.33694V21.2778H0L0 22.2778ZM12.1884 35.6807L0.384752 21.4585L-0.384752 22.0971L11.4189 36.3193L12.1884 35.6807ZM23.2225 21.4584L11.4189 35.6807L12.1884 36.3193L23.992 22.0971L23.2225 21.4584ZM19.1518 22.2778H23.6072V21.2778H19.1518V22.2778ZM18.6518 4L18.6518 21.7778H19.6518L19.6518 4L18.6518 4Z" fill="black" mask="url(#path-1-inside-1_203_11)"/>
<mask id="path-3-inside-2_203_11" fill="white">
<path fill-rule="evenodd" clip-rule="evenodd" d="M43.5423 3.15047L33.0667 13.6261L45.6375 26.1969L42.5708 29.2636L60.9738 30.9738L59.2636 12.5708L56.1131 15.7213L43.5423 3.15047Z"/>
</mask>
<path fill-rule="evenodd" clip-rule="evenodd" d="M43.5423 3.15047L33.0667 13.6261L45.6375 26.1969L42.5708 29.2636L60.9738 30.9738L59.2636 12.5708L56.1131 15.7213L43.5423 3.15047Z" fill="url(#paint1_linear_203_11)"/>
<path d="M33.0667 13.6261L32.7131 13.2726L32.3596 13.6261L32.7131 13.9797L33.0667 13.6261ZM43.5423 3.15047L43.8959 2.79692L43.5423 2.44337L43.1888 2.79692L43.5423 3.15047ZM45.6375 26.1969L45.991 26.5505L46.3446 26.1969L45.991 25.8434L45.6375 26.1969ZM42.5708 29.2636L42.2172 28.91L41.4643 29.6629L42.5245 29.7614L42.5708 29.2636ZM60.9738 30.9738L60.9276 31.4717L61.5274 31.5274L61.4717 30.9275L60.9738 30.9738ZM59.2636 12.5708L59.7615 12.5245L59.6629 11.4643L58.91 12.2172L59.2636 12.5708ZM56.1131 15.7213L55.7596 16.0748L56.1131 16.4284L56.4667 16.0748L56.1131 15.7213ZM33.4202 13.9797L43.8959 3.50403L43.1888 2.79692L32.7131 13.2726L33.4202 13.9797ZM45.991 25.8434L33.4202 13.2726L32.7131 13.9797L45.2839 26.5505L45.991 25.8434ZM42.9243 29.6171L45.991 26.5505L45.2839 25.8434L42.2172 28.91L42.9243 29.6171ZM61.0201 30.476L42.617 28.7657L42.5245 29.7614L60.9276 31.4717L61.0201 30.476ZM58.7657 12.617L60.476 31.0201L61.4717 30.9275L59.7615 12.5245L58.7657 12.617ZM56.4667 16.0748L59.6172 12.9243L58.91 12.2172L55.7596 15.3677L56.4667 16.0748ZM43.1888 3.50403L55.7596 16.0748L56.4667 15.3677L43.8959 2.79692L43.1888 3.50403Z" fill="black" mask="url(#path-3-inside-2_203_11)"/>
<mask id="path-5-inside-3_203_11" fill="white">
<path fill-rule="evenodd" clip-rule="evenodd" d="M75 8.45545L75 23.2703L92.7778 23.2703L92.7778 27.6072L107 15.8036L92.7778 4L92.7778 8.45545L75 8.45545Z"/>
</mask>
<path fill-rule="evenodd" clip-rule="evenodd" d="M75 8.45545L75 23.2703L92.7778 23.2703L92.7778 27.6072L107 15.8036L92.7778 4L92.7778 8.45545L75 8.45545Z" fill="url(#paint2_linear_203_11)"/>
<path d="M75 23.2703L74.5 23.2703L74.5 23.7703L75 23.7703L75 23.2703ZM75 8.45545L75 7.95545L74.5 7.95545L74.5 8.45545L75 8.45545ZM92.7778 23.2703L93.2778 23.2703L93.2778 22.7703L92.7778 22.7703L92.7778 23.2703ZM92.7778 27.6072L92.2778 27.6072L92.2778 28.6719L93.0971 27.992L92.7778 27.6072ZM107 15.8036L107.319 16.1884L107.783 15.8036L107.319 15.4188L107 15.8036ZM92.7778 4L93.0971 3.61525L92.2778 2.93526L92.2778 4L92.7778 4ZM92.7778 8.45545L92.7778 8.95545L93.2778 8.95545L93.2778 8.45545L92.7778 8.45545ZM75.5 23.2703L75.5 8.45545L74.5 8.45545L74.5 23.2703L75.5 23.2703ZM92.7778 22.7703L75 22.7703L75 23.7703L92.7778 23.7703L92.7778 22.7703ZM93.2778 27.6072L93.2778 23.2703L92.2778 23.2703L92.2778 27.6072L93.2778 27.6072ZM106.681 15.4188L92.4585 27.2225L93.0971 27.992L107.319 16.1884L106.681 15.4188ZM92.4584 4.38475L106.681 16.1884L107.319 15.4188L93.0971 3.61525L92.4584 4.38475ZM93.2778 8.45545L93.2778 4L92.2778 4L92.2778 8.45545L93.2778 8.45545ZM75 8.95545L92.7778 8.95545L92.7778 7.95545L75 7.95545L75 8.95545Z" fill="black" mask="url(#path-5-inside-3_203_11)"/>
<defs>
<linearGradient id="paint0_linear_203_11" x1="19.3295" y1="4" x2="4.57398" y2="33.8074" gradientUnits="userSpaceOnUse">
<stop stop-color="#AFAFAF"/>
<stop offset="0.494792" stop-color="#CFCECE"/>
<stop offset="0.984375" stop-color="#E9E7E7"/>
</linearGradient>
<linearGradient id="paint1_linear_203_11" x1="43.668" y1="3.02477" x2="54.3113" y2="34.5355" gradientUnits="userSpaceOnUse">
<stop stop-color="#AFAFAF"/>
<stop offset="0.494792" stop-color="#CFCECE"/>
<stop offset="0.984375" stop-color="#E9E7E7"/>
</linearGradient>
<linearGradient id="paint2_linear_203_11" x1="75" y1="8.27767" x2="104.807" y2="23.0332" gradientUnits="userSpaceOnUse">
<stop stop-color="#AFAFAF"/>
<stop offset="0.494792" stop-color="#CFCECE"/>
<stop offset="0.984375" stop-color="#E9E7E7"/>
</linearGradient>
</defs>
</svg>
