<svg width="32" height="22" viewBox="0 0 32 22" fill="none" xmlns="http://www.w3.org/2000/svg">
<path d="M0 2C0 0.895431 0.895431 0 2 0H30C31.1046 0 32 0.895431 32 2V12C32 17.5228 27.5228 22 22 22H10C4.47715 22 0 17.5228 0 12V2Z" fill="#AFC1D1"/>
<path d="M8.01136 16V4.36364H12.6023C13.4811 4.36364 14.2311 4.52083 14.8523 4.83523C15.4773 5.14583 15.9527 5.58712 16.2784 6.15909C16.608 6.72727 16.7727 7.39583 16.7727 8.16477C16.7727 8.9375 16.6061 9.60227 16.2727 10.1591C15.9394 10.7121 15.4564 11.1364 14.8239 11.4318C14.1951 11.7273 13.4337 11.875 12.5398 11.875H9.46591V9.89773H12.142C12.6117 9.89773 13.0019 9.83333 13.3125 9.70455C13.6231 9.57576 13.8542 9.38258 14.0057 9.125C14.161 8.86742 14.2386 8.54735 14.2386 8.16477C14.2386 7.77841 14.161 7.45265 14.0057 7.1875C13.8542 6.92235 13.6212 6.72159 13.3068 6.58523C12.9962 6.44508 12.6042 6.375 12.1307 6.375H10.4716V16H8.01136ZM14.2955 10.7045L17.1875 16H14.4716L11.642 10.7045H14.2955ZM23.5057 4.36364V16H21.0455V6.69886H20.9773L18.3125 8.36932V6.1875L21.1932 4.36364H23.5057Z" fill="#1C1F2A"/>
</svg>
