<svg width="512" height="512" viewBox="0 0 512 512" fill="none"
    xmlns="http://www.w3.org/2000/svg">
    <path d="M176.938 16.313C128.248 16.317 75.8758 24.726 20.6558 39.5C111.178 21.215 247.032 40.197 358.844 145.094C285.054 94.481 208.891 69.976 136.094 68.094C187.414 81.658 238.782 106.082 287.314 142.719C195.68 93.44 104.173 80.47 21.7798 95.655C69.8698 106.245 119.633 127.181 168.72 160.718C134.382 148.472 100.14 141.448 66.2798 137.218C135.448 162.548 201.763 209.322 256.03 278.936C189.955 216.394 117.413 180.8 44.9398 167.53C106.488 200.36 146.546 242.246 181.096 302.75C153.954 279.318 125.224 259.837 95.9708 243.656C117.801 264.412 138.644 288.754 157.971 316.562C141.376 302.238 120.281 291.872 93.8758 285.594C129.474 316.432 143.11 354.311 165.626 393.314C286.528 602.72 566.771 447.554 464.782 214.844C401.815 71.17 301.368 16.3 176.94 16.314L176.938 16.313ZM389.844 136.47L381.906 189.156L341.25 165.312L389.844 136.469V136.47ZM253.5 168.655L326.563 185.655L275.5 232.72L239.47 212.688L253.5 168.656V168.655ZM416.625 210.685L456.47 303L388.656 298.937L384.936 298.719L382.094 301.093L328.124 346.343L309.031 320.873L312.531 235.718L416.626 210.686L416.625 210.685ZM280.625 265.03L288.219 313.53L287.561 314.03L259.218 304.875L280.623 265.031L280.625 265.03ZM200.812 289.438L245.969 328.656L200.279 340.594L200.812 289.438ZM404.125 318.594L457.655 321.814L434.655 390.062L404.125 318.594ZM385.5 322.594L421.28 406.344L378.594 413.874L387.624 447.906L310.031 470.436L240.471 434.906L226.471 352.812L296.781 335.687L317.907 363.844L311.845 429.75L330.47 431.47L336.72 363.53L385.5 322.594Z" fill="#AFC1D1"/>
</svg>
