<svg width="107" height="107" viewBox="0 0 107 107" fill="none" xmlns="http://www.w3.org/2000/svg">
<path d="M79.6805 24.9261L24.9489 79.6577C24.3928 80.2099 23.6787 80.5822 22.8835 80.7344C22.0883 80.8867 21.2421 80.8132 20.436 80.5219C19.6298 80.2305 18.8943 79.7324 18.3085 79.081C17.7227 78.4296 17.3089 77.6498 17.1115 76.8253L0.275054 5.25719C-0.423479 2.29034 2.30702 -0.440161 5.27692 0.255333L76.845 17.0918C77.6716 17.2849 78.4545 17.6963 79.1087 18.2813C79.7629 18.8664 80.2633 19.6026 80.5555 20.4102C80.8478 21.2177 80.9208 22.0656 80.7665 22.8618C80.6122 23.658 80.2366 24.3719 79.6805 24.9261Z" fill="white"/>
<path d="M71.4092 37.4401C68.285 34.3159 63.2196 34.3159 60.0955 37.4401L37.468 60.0675C34.3438 63.1917 34.3438 68.257 37.468 71.3812L69.9949 103.908C73.1191 107.032 78.1845 107.032 81.3087 103.908L103.936 81.2807C107.06 78.1565 107.06 73.0912 103.936 69.967L71.4092 37.4401Z" fill="white"/>
</svg>
