<svg width="107" height="107" viewBox="0 0 107 107" fill="none" xmlns="http://www.w3.org/2000/svg">
<path d="M27.3195 24.9261L82.0511 79.6577C82.6072 80.2099 83.3213 80.5822 84.1165 80.7344C84.9117 80.8867 85.7579 80.8132 86.564 80.5219C87.3702 80.2305 88.1057 79.7324 88.6915 79.081C89.2773 78.4296 89.6911 77.6498 89.8885 76.8253L106.725 5.25719C107.423 2.29034 104.693 -0.440161 101.723 0.255333L30.155 17.0918C29.3284 17.2849 28.5455 17.6963 27.8913 18.2813C27.2371 18.8664 26.7367 19.6026 26.4445 20.4102C26.1522 21.2177 26.0792 22.0656 26.2335 22.8618C26.3878 23.658 26.7634 24.3719 27.3195 24.9261Z" fill="white"/>
<path d="M35.5908 37.4401C38.715 34.3159 43.7804 34.3159 46.9045 37.4401L69.532 60.0675C72.6562 63.1917 72.6562 68.257 69.532 71.3812L37.0051 103.908C33.8809 107.032 28.8155 107.032 25.6913 103.908L3.06393 81.2807C-0.0602651 78.1565 -0.0602626 73.0912 3.06393 69.967L35.5908 37.4401Z" fill="white"/>
</svg>
