<svg width="86" height="129" viewBox="0 0 86 129" fill="none" xmlns="http://www.w3.org/2000/svg">
<path d="M4.3026 72L81.7048 72C82.4885 71.9973 83.2566 71.7556 83.9266 71.3009C84.5965 70.8463 85.1429 70.196 85.5069 69.4199C85.871 68.6439 86.0388 67.7715 85.9925 66.8967C85.9461 66.0219 85.6872 65.1779 85.2438 64.4553L46.5427 1.94387C44.9387 -0.647954 41.0772 -0.647954 39.469 1.94387L0.767894 64.4553C0.319926 65.1764 0.0572386 66.0209 0.00834948 66.8971C-0.0405396 67.7734 0.126254 68.6478 0.490604 69.4255C0.854953 70.2032 1.40292 70.8544 2.07498 71.3083C2.74704 71.7621 3.51748 72.0014 4.3026 72Z" fill="white"/>
<path d="M19 75C19 70.5817 22.5817 67 27 67L59 67C63.4183 67 67 70.5817 67 75L67 121C67 125.418 63.4183 129 59 129L27 129C22.5817 129 19 125.418 19 121L19 75Z" fill="white"/>
</svg>
