<svg width="300" height="89" viewBox="0 0 300 89" fill="none" xmlns="http://www.w3.org/2000/svg">
<rect width="300" height="89" rx="8" transform="matrix(1 0 0 -1 0 89)" fill="url(#paint0_linear_417_6)"/>
<path d="M16.77 61L23.026 31.376H44.554L43.358 37.08H29.236L27.902 43.29H40.322L39.126 49.086H26.706L24.176 61H16.77ZM36.513 61L54.085 31.376H62.089L67.149 61H59.973L58.731 54.284H48.565L44.517 61H36.513ZM50.727 48.81H58.501L56.799 38.506L50.727 48.81ZM73.8916 61L78.9516 37.08H70.2576L71.4536 31.376H96.2476L95.0516 37.08H86.3576L81.2976 61H73.8916ZM87.9485 61L105.521 31.376H113.525L118.585 61H111.409L110.167 54.284H100.001L95.9525 61H87.9485ZM102.163 48.81H109.937L108.235 38.506L102.163 48.81ZM122.381 61L128.637 31.376H136.043L130.983 55.296H144.967L143.771 61H122.381ZM156.567 61L162.823 31.376H178.095C181.039 31.376 183.186 32.112 184.535 33.584C185.884 35.056 186.298 37.0187 185.777 39.472C185.44 41.036 184.857 42.3547 184.029 43.428C183.232 44.4707 182.266 45.2833 181.131 45.866C182.388 46.3567 183.293 47.1233 183.845 48.166C184.397 49.178 184.489 50.558 184.121 52.306C183.538 55.1273 182.296 57.2893 180.395 58.792C178.524 60.264 175.948 61 172.667 61H156.567ZM167.699 43.428H173.725C175.013 43.428 176.01 43.1367 176.715 42.554C177.42 41.9713 177.88 41.1587 178.095 40.116C178.34 38.9813 178.233 38.138 177.773 37.586C177.313 37.0033 176.316 36.712 174.783 36.712H169.125L167.699 43.428ZM165.077 55.71H171.839C173.342 55.71 174.43 55.434 175.105 54.882C175.81 54.33 176.316 53.3487 176.623 51.938C176.868 50.8033 176.73 49.96 176.209 49.408C175.688 48.8253 174.645 48.534 173.081 48.534H166.595L165.077 55.71ZM186.081 61L192.337 31.376H199.743L194.683 55.296H208.667L207.471 61H186.081ZM223.642 61.46C220.698 61.46 218.229 60.908 216.236 59.804C214.273 58.7 212.909 57.0287 212.142 54.79C211.375 52.5513 211.36 49.73 212.096 46.326C213.261 40.8367 215.301 36.896 218.214 34.504C221.127 32.112 225.114 30.916 230.174 30.916C233.118 30.916 235.571 31.468 237.534 32.572C239.527 33.6453 240.892 35.3167 241.628 37.586C242.395 39.8553 242.395 42.7687 241.628 46.326C240.524 51.5087 238.5 55.3267 235.556 57.78C232.643 60.2333 228.671 61.46 223.642 61.46ZM224.976 55.158C227.46 55.158 229.423 54.4527 230.864 53.042C232.336 51.6007 233.394 49.362 234.038 46.326C234.529 44.026 234.697 42.2167 234.544 40.898C234.391 39.5793 233.839 38.644 232.888 38.092C231.968 37.54 230.603 37.264 228.794 37.264C226.279 37.264 224.301 37.954 222.86 39.334C221.419 40.6833 220.345 43.014 219.64 46.326C219.211 48.442 219.073 50.1593 219.226 51.478C219.379 52.766 219.916 53.7013 220.836 54.284C221.756 54.8667 223.136 55.158 224.976 55.158ZM246.461 61L245.817 31.376H253.085L253.223 49.224L260.169 35.562L261.043 31.376H267.115L268.449 49.27L276.315 31.376H283.583L270.473 61H263.803L262.469 43.888L253.499 61H246.461Z" fill="white"/>
<defs>
<linearGradient id="paint0_linear_417_6" x1="300" y1="-7.53429e-06" x2="-9.78844e-07" y2="95.5" gradientUnits="userSpaceOnUse">
<stop stop-color="#FA6F0A"/>
<stop offset="0.401042" stop-color="#E88910"/>
<stop offset="0.494792" stop-color="#F9A221"/>
<stop offset="1" stop-color="#FC460D"/>
</linearGradient>
</defs>
</svg>
