<svg width="300" height="89" viewBox="0 0 300 89" fill="none" xmlns="http://www.w3.org/2000/svg">
<rect width="300" height="89" rx="8" transform="matrix(1 0 0 -1 0 89)" fill="url(#paint0_linear_417_6)"/>
<path d="M14.76 61L21.288 30.088H43.752L42.504 36.04H27.768L26.376 42.52H39.336L38.088 48.568H25.128L22.488 61H14.76ZM35.3614 61L53.6974 30.088H62.0494L67.3294 61H59.8414L58.5454 53.992H47.9374L43.7134 61H35.3614ZM50.1934 48.28H58.3054L56.5294 37.528L50.1934 48.28ZM74.3651 61L79.6451 36.04H70.5731L71.8211 30.088H97.6931L96.4451 36.04H87.3731L82.0931 61H74.3651ZM89.0332 61L107.369 30.088H115.721L121.001 61H113.513L112.217 53.992H101.609L97.3853 61H89.0332ZM103.865 48.28H111.977L110.201 37.528L103.865 48.28ZM124.963 61L131.491 30.088H139.219L133.939 55.048H148.531L147.283 61H124.963ZM160.635 61L167.163 30.088H183.099C186.171 30.088 188.411 30.856 189.819 32.392C191.227 33.928 191.659 35.976 191.115 38.536C190.763 40.168 190.155 41.544 189.291 42.664C188.459 43.752 187.451 44.6 186.267 45.208C187.579 45.72 188.523 46.52 189.099 47.608C189.675 48.664 189.771 50.104 189.387 51.928C188.779 54.872 187.483 57.128 185.499 58.696C183.547 60.232 180.859 61 177.435 61H160.635ZM172.251 42.664H178.539C179.883 42.664 180.923 42.36 181.659 41.752C182.395 41.144 182.875 40.296 183.099 39.208C183.355 38.024 183.243 37.144 182.763 36.568C182.283 35.96 181.243 35.656 179.643 35.656H173.739L172.251 42.664ZM169.515 55.48H176.571C178.139 55.48 179.275 55.192 179.979 54.616C180.715 54.04 181.243 53.016 181.563 51.544C181.819 50.36 181.675 49.48 181.131 48.904C180.587 48.296 179.499 47.992 177.867 47.992H171.099L169.515 55.48ZM191.432 61L197.96 30.088H205.688L200.408 55.048H215L213.752 61H191.432ZM230.627 61.48C227.555 61.48 224.979 60.904 222.898 59.752C220.851 58.6 219.427 56.856 218.627 54.52C217.827 52.184 217.811 49.24 218.579 45.688C219.795 39.96 221.923 35.848 224.963 33.352C228.003 30.856 232.163 29.608 237.443 29.608C240.515 29.608 243.075 30.184 245.123 31.336C247.203 32.456 248.627 34.2 249.395 36.568C250.195 38.936 250.195 41.976 249.395 45.688C248.243 51.096 246.131 55.08 243.059 57.64C240.019 60.2 235.875 61.48 230.627 61.48ZM232.019 54.904C234.611 54.904 236.659 54.168 238.163 52.696C239.699 51.192 240.803 48.856 241.475 45.688C241.987 43.288 242.163 41.4 242.003 40.024C241.843 38.648 241.267 37.672 240.275 37.096C239.315 36.52 237.891 36.232 236.003 36.232C233.379 36.232 231.315 36.952 229.811 38.392C228.307 39.8 227.187 42.232 226.451 45.688C226.003 47.896 225.859 49.688 226.019 51.064C226.179 52.408 226.739 53.384 227.699 53.992C228.659 54.6 230.099 54.904 232.019 54.904ZM254.438 61L253.766 30.088H261.35L261.494 48.712L268.742 34.456L269.654 30.088H275.99L277.382 48.76L285.59 30.088H293.174L279.494 61H272.534L271.142 43.144L261.782 61H254.438Z" fill="white"/>
<defs>
<linearGradient id="paint0_linear_417_6" x1="300" y1="-7.53429e-06" x2="-9.78844e-07" y2="95.5" gradientUnits="userSpaceOnUse">
<stop stop-color="#E96D13"/>
<stop offset="0.494792" stop-color="#E38F11"/>
<stop offset="1" stop-color="#EB4B18"/>
</linearGradient>
</defs>
</svg>
