<svg width="328" height="328" viewBox="0 0 328 328" fill="none" xmlns="http://www.w3.org/2000/svg">
<g clip-path="url(#clip0_105_10)">
<rect x="45" y="105" width="146" height="126" fill="#FF424D"/>
<path d="M4.08086 70.7448L4.08205 70.6369C4.08805 70.5903 4.09612 70.5309 4.1066 70.4598C4.14035 70.2309 4.19825 69.8866 4.2906 69.4665C4.47864 68.611 4.79277 67.5187 5.29056 66.4667C6.30176 64.3297 7.67773 63.0218 9.881 63.0218H259.742C259.825 63.0338 259.935 63.0501 260.069 63.0712C260.442 63.1296 261.007 63.2244 261.738 63.3655C263.2 63.648 265.327 64.1153 267.922 64.8471C273.12 66.3131 280.153 68.8277 287.49 73.012C302.112 81.3503 317.907 96.2745 322.961 122.951C328.016 149.79 320.455 173.071 304.688 189.272C288.885 205.511 264.56 214.911 235.657 213.303L231.872 213.093L231.964 216.883C232.154 224.647 231.406 235.283 226.819 244.572C222.362 253.598 214.18 261.587 198.847 264.345C173.556 264.529 132.865 264.699 98.4385 264.825C81.1591 264.887 65.4592 264.939 54.0793 264.974C48.3893 264.992 43.7793 265.006 40.5919 265.015L36.9204 265.026L35.9651 265.029L35.8535 265.029C35.823 265.025 35.7884 265.02 35.7497 265.015C35.5466 264.987 35.2324 264.941 34.8225 264.87C34.0019 264.727 32.8028 264.486 31.3467 264.097C28.4233 263.318 24.5259 261.961 20.5876 259.664C12.8287 255.138 4.86471 246.975 3.80585 231.885C3.38755 201.182 3.45659 160.857 3.63064 128.18C3.71774 111.827 3.83109 97.3952 3.92268 87.0519C3.96847 81.8803 4.00881 77.7309 4.03771 74.8747C4.05215 73.4466 4.06374 72.3418 4.07171 71.5941L4.08086 70.7448ZM177.857 172.586L177.866 172.575C186.014 163.024 190.405 150.163 189.187 138.021C187.952 125.708 180.94 114.283 166.72 108.143L166.716 108.141C152.361 101.963 139.341 105.652 130.184 110.643C125.604 113.139 121.911 115.996 119.365 118.223C118.848 118.676 118.377 119.103 117.953 119.499C98.2222 100.535 69.699 101.726 55.7534 116.542L55.7499 116.546C48.3936 124.384 46.1621 134.851 46.9314 144.807C47.6998 154.751 51.4751 164.598 56.6985 171.727L56.7039 171.734C61.4963 178.239 74.04 190.484 85.8324 201.602C92.1086 207.519 98.2031 213.145 103.024 217.595C107.372 221.609 110.684 224.666 112.159 226.118C112.185 226.146 112.215 226.178 112.248 226.212C112.348 226.314 112.478 226.442 112.641 226.592C112.967 226.893 113.424 227.282 114.035 227.733L114.268 227.905L114.527 228.036C116.727 229.154 118.769 229.099 120.336 228.578C121.075 228.333 121.654 228.004 122.064 227.724C122.27 227.582 122.44 227.449 122.571 227.338C122.637 227.282 122.694 227.231 122.743 227.187C122.753 227.177 122.764 227.167 122.774 227.157L122.774 227.157L122.857 227.081L123.179 226.786C123.462 226.527 123.878 226.145 124.414 225.652C125.484 224.667 127.032 223.238 128.941 221.462C132.759 217.91 138.029 212.968 143.832 207.403C155.407 196.307 169.223 182.629 177.857 172.586ZM259.998 180.295L260.325 180.254L260.64 180.152C268.365 177.649 276.088 173.586 281.861 166.44C287.665 159.255 291.207 149.313 291.207 135.608C291.207 120.068 283.791 110.128 276.423 104.176C272.769 101.224 269.129 99.2473 266.404 98.0059C265.038 97.3835 263.89 96.9407 263.069 96.6494C262.658 96.5037 262.328 96.3955 262.093 96.3214C261.975 96.2843 261.881 96.2558 261.812 96.2353C261.777 96.2251 261.749 96.2168 261.727 96.2106L261.699 96.2026L261.689 96.1997L261.685 96.1986C261.683 96.1981 261.681 96.1976 260.74 99.5685L261.681 96.1976L261.219 96.0685H260.74H236.56H233.06V99.5685V177.192V180.298L236.144 180.667L236.56 177.192C236.144 180.667 236.145 180.667 236.146 180.667L236.147 180.667L236.15 180.668L236.16 180.669L236.191 180.672L236.296 180.684C236.386 180.694 236.515 180.708 236.68 180.724C237.01 180.757 237.487 180.801 238.095 180.848C239.312 180.943 241.056 181.05 243.204 181.106C247.492 181.217 253.425 181.122 259.998 180.295Z" fill="#E5E5E5" stroke="black" stroke-width="7"/>
</g>
<defs>
<clipPath id="clip0_105_10">
<rect width="328" height="328" fill="white"/>
</clipPath>
</defs>
</svg>
