<?xml version="1.0" encoding="utf-8"?>
<!-- Generator: Adobe Illustrator 19.0.0, SVG Export Plug-In . SVG Version: 6.00 Build 0)  -->
<svg version="1.1" id="Layer_1"
    xmlns="http://www.w3.org/2000/svg"
    xmlns:xlink="http://www.w3.org/1999/xlink" x="0px" y="0px" viewBox="0 0 1809 1811" enable-background="new 0 0 1809 1811" xml:space="preserve">
    <g id="BASE" display="none">

        <rect id="base" x="336.4" y="1288" display="inline" opacity="0.15" fill="none" stroke="#000000" stroke-width="3" stroke-miterlimit="10" width="101.6" height="411.1"/>
        <g id="XMLID_53_" display="inline">
            <g id="XMLID_36_">
                <g id="XMLID_50_">
                    <polyline id="XMLID_52_" fill="none" stroke="#41F7E9" stroke-width="8" stroke-miterlimit="10" points="-1846,1550 -1900,1550 
					-1900,1448 -1849,1448 -1849,1474 				"/>
                    <polyline id="XMLID_51_" fill="none" stroke="#41F7E9" stroke-width="8" stroke-miterlimit="10" points="-1898,1550 -1849,1550 
					-1849,1651 -1900,1651 -1900,1619 				"/>
                </g>
                <g id="XMLID_47_">

                    <line id="XMLID_49_" fill="none" stroke="#41F7E9" stroke-width="8" stroke-miterlimit="10" x1="-1825" y1="1448" x2="-1774" y2="1448"/>

                    <line id="XMLID_48_" fill="none" stroke="#41F7E9" stroke-width="8" stroke-miterlimit="10" x1="-1802" y1="1445" x2="-1802" y2="1653"/>
                </g>
                <g id="XMLID_44_">

                    <line id="XMLID_46_" fill="none" stroke="#41F7E9" stroke-width="8" stroke-miterlimit="10" x1="-1574" y1="1450" x2="-1522" y2="1450"/>

                    <line id="XMLID_45_" fill="none" stroke="#41F7E9" stroke-width="8" stroke-miterlimit="10" x1="-1550" y1="1447" x2="-1550" y2="1655"/>
                </g>
                <g id="XMLID_41_">
                    <polyline id="XMLID_43_" fill="none" stroke="#41F7E9" stroke-width="8" stroke-miterlimit="10" points="-1693,1653 -1693,1447 
					-1745,1447 -1745,1653 				"/>

                    <line id="XMLID_42_" fill="none" stroke="#41F7E9" stroke-width="8" stroke-miterlimit="10" x1="-1743" y1="1541" x2="-1691" y2="1541"/>
                </g>
                <g id="XMLID_37_">
                    <polygon id="XMLID_40_" fill="none" stroke="#41F7E9" stroke-width="8" stroke-miterlimit="10" points="-1601,1447 
					-1601,1540.6 -1601.7,1553 -1653,1553 -1653,1447 				"/>

                    <line id="XMLID_39_" fill="none" stroke="#41F7E9" stroke-width="8" stroke-miterlimit="10" x1="-1653" y1="1550" x2="-1653" y2="1653"/>
                    <polyline id="XMLID_38_" fill="none" stroke="#41F7E9" stroke-width="8" stroke-miterlimit="10" points="-1604.6,1550.1 
					-1601,1558.3 -1601,1653 				"/>
                </g>
            </g>
            <g id="XMLID_35_">
                <g id="XMLID_4_">

                    <line id="XMLID_5_" fill="none" stroke="#F915FF" stroke-width="8" stroke-miterlimit="10" x1="-1844" y1="1057" x2="-1895" y2="1057"/>

                    <line id="XMLID_6_" fill="none" stroke="#F915FF" stroke-width="8" stroke-miterlimit="10" x1="-1898" y1="1052" x2="-1898" y2="1269"/>

                    <line id="XMLID_7_" fill="none" stroke="#F915FF" stroke-width="8" stroke-miterlimit="10" x1="-1897" y1="1266" x2="-1844" y2="1266"/>

                    <line id="XMLID_8_" fill="none" stroke="#F915FF" stroke-width="8" stroke-miterlimit="10" x1="-1847" y1="1269" x2="-1847" y2="1233"/>

                    <line id="XMLID_9_" fill="none" stroke="#F915FF" stroke-width="8" stroke-miterlimit="10" x1="-1846" y1="1087" x2="-1846" y2="1052"/>
                </g>

                <rect id="XMLID_10_" x="-1817.6" y="1056.7" fill="none" stroke="#F915FF" stroke-width="8" stroke-miterlimit="10" width="51.6" height="208.5"/>

                <rect id="XMLID_18_" x="-1575.1" y="1056.7" fill="none" stroke="#F915FF" stroke-width="8" stroke-miterlimit="10" width="51.6" height="208.5"/>
                <g id="XMLID_11_">
                    <polygon id="XMLID_16_" fill="none" stroke="#F915FF" stroke-width="8" stroke-miterlimit="10" points="-1610,1057 
					-1610,1151.4 -1612.1,1163 -1662,1163 -1662,1057 				"/>
                    <polygon id="XMLID_17_" fill="none" stroke="#F915FF" stroke-width="8" stroke-miterlimit="10" points="-1610,1267 
					-1610,1171.6 -1612.1,1164 -1662,1164 -1662,1267 				"/>
                </g>
                <path id="XMLID_27_" fill="none" stroke="#F915FF" stroke-width="8" stroke-miterlimit="10" d="M-1524,1160.5"/>
                <polyline id="XMLID_32_" fill="none" stroke="#F915FF" stroke-width="8" stroke-miterlimit="10" points="-1741,1269 
				-1741,1063.7 -1715.5,1096.3 -1690,1063.7 -1690,1269 			"/>
            </g>
        </g>
    </g>
    <path id="BG_x5F_BG" fill="#F915FF" d="M-480.4,1520h-410.2c-28.1,0-50.9-22.8-50.9-50.9v-434.2c0-28.1,22.8-50.9,50.9-50.9h410.2
	c28.1,0,50.9,22.8,50.9,50.9v434.2C-429.5,1497.2-452.3,1520-480.4,1520z"/>
    <path id="BG" fill="#41F7E9" d="M-469.4,1511.5h-408.2c-28.7,0-51.9-23.2-51.9-51.9v-432.2c0-28.7,23.2-51.9,51.9-51.9h408.2
	c28.7,0,51.9,23.2,51.9,51.9v432.2C-417.5,1488.3-440.7,1511.5-469.4,1511.5z"/>
    <path id="START_x5F_BG" fill="#F915FF" d="M-497.3,1478.7h-368.2c-11.9,0-21.6-9.7-21.6-21.6v-192c0-11.9,9.7-21.6,21.6-21.6h368.2
	c11.9,0,21.6,9.7,21.6,21.6v192C-475.7,1469-485.3,1478.7-497.3,1478.7z"/>
    <g id="START">
        <g id="XMLID_15_">
            <polyline id="XMLID_19_" fill="none" stroke="#41F7E9" stroke-width="20" stroke-miterlimit="10" points="-806,1364 -860,1364 
			-860,1267 -809,1267 -809,1292 		"/>
            <polyline id="XMLID_20_" fill="none" stroke="#41F7E9" stroke-width="20" stroke-miterlimit="10" points="-858,1364 -809,1364 
			-809,1460 -860,1460 -860,1429 		"/>
        </g>
        <g id="XMLID_21_">

            <line id="XMLID_22_" fill="none" stroke="#41F7E9" stroke-width="20" stroke-miterlimit="10" x1="-783" y1="1266" x2="-731" y2="1266"/>

            <line id="XMLID_23_" fill="none" stroke="#41F7E9" stroke-width="20" stroke-miterlimit="10" x1="-757" y1="1263" x2="-757" y2="1471"/>
        </g>
        <g id="XMLID_2_">

            <line id="XMLID_13_" fill="none" stroke="#41F7E9" stroke-width="20" stroke-miterlimit="10" x1="-540" y1="1266" x2="-488" y2="1266"/>

            <line id="XMLID_12_" fill="none" stroke="#41F7E9" stroke-width="20" stroke-miterlimit="10" x1="-514" y1="1263" x2="-514" y2="1471"/>
        </g>
        <g id="XMLID_25_">
            <polyline id="XMLID_24_" fill="none" stroke="#41F7E9" stroke-width="20" stroke-miterlimit="10" points="-653,1472 -653,1266 
			-705,1266 -705,1472 		"/>

            <line id="XMLID_26_" fill="none" stroke="#41F7E9" stroke-width="20" stroke-miterlimit="10" x1="-703" y1="1360" x2="-651" y2="1360"/>
        </g>
        <g id="XMLID_30_">
            <polygon id="XMLID_31_" fill="none" stroke="#41F7E9" stroke-width="20" stroke-miterlimit="10" points="-561,1267 -561,1350.2 
			-568,1363 -613,1363 -613,1267 		"/>

            <line id="XMLID_29_" fill="none" stroke="#41F7E9" stroke-width="20" stroke-miterlimit="10" x1="-613" y1="1360" x2="-613" y2="1472"/>
            <polyline id="XMLID_28_" fill="none" stroke="#41F7E9" stroke-width="20" stroke-miterlimit="10" points="-564.6,1364.8 
			-561,1373.7 -561,1472 		"/>
        </g>
    </g>
    <g id="COMBO">
        <g id="XMLID_62_">

            <line id="XMLID_67_" fill="none" stroke="#F915FF" stroke-width="20" stroke-miterlimit="10" x1="-821" y1="1015" x2="-872" y2="1015"/>

            <line id="XMLID_66_" fill="none" stroke="#F915FF" stroke-width="20" stroke-miterlimit="10" x1="-875" y1="1005" x2="-875" y2="1234"/>

            <line id="XMLID_65_" fill="none" stroke="#F915FF" stroke-width="20" stroke-miterlimit="10" x1="-874" y1="1224" x2="-821" y2="1224"/>

            <line id="XMLID_64_" fill="none" stroke="#F915FF" stroke-width="20" stroke-miterlimit="10" x1="-824" y1="1234" x2="-824" y2="1196"/>

            <line id="XMLID_63_" fill="none" stroke="#F915FF" stroke-width="20" stroke-miterlimit="10" x1="-823" y1="1041" x2="-823" y2="1005"/>
        </g>

        <rect id="XMLID_61_" x="-786.1" y="1014.8" fill="none" stroke="#F915FF" stroke-width="20" stroke-miterlimit="10" width="51.6" height="208.5"/>

        <rect id="XMLID_60_" x="-530.1" y="1014.8" fill="none" stroke="#F915FF" stroke-width="20" stroke-miterlimit="10" width="51.6" height="208.5"/>
        <g id="XMLID_57_">
            <polygon id="XMLID_59_" fill="none" stroke="#F915FF" stroke-width="20" stroke-miterlimit="10" points="-562,1015 -562,1108.1 
			-563.9,1120 -614,1120 -614,1015 		"/>
            <polygon id="XMLID_58_" fill="none" stroke="#F915FF" stroke-width="20" stroke-miterlimit="10" points="-562,1223 -562,1128.2 
			-563.9,1121 -614,1121 -614,1223 		"/>
        </g>
        <path id="XMLID_56_" fill="none" stroke="#F915FF" stroke-width="20" stroke-miterlimit="10" d="M-535,1121.1"/>
        <polyline id="XMLID_55_" fill="none" stroke="#F915FF" stroke-width="20" stroke-miterlimit="10" points="-648,1233 -648,1015 
		-654.3,1015 -671.5,1040.5 -689,1015 -696,1015 -696,1234 	"/>
    </g>
    <path id="BG_x5F_BG_1_" d="M-472.4,2161h-410.2c-28.1,0-50.9-22.8-50.9-50.9v-434.2c0-28.1,22.8-50.9,50.9-50.9h410.2
	c28.1,0,50.9,22.8,50.9,50.9v434.2C-421.5,2138.2-444.3,2161-472.4,2161z"/>
    <path id="BG_5_" fill="#FFFFFF" d="M-461.4,2152.5h-408.2c-28.7,0-51.9-23.2-51.9-51.9v-432.2c0-28.7,23.2-51.9,51.9-51.9h408.2
	c28.7,0,51.9,23.2,51.9,51.9v432.2C-409.5,2129.3-432.7,2152.5-461.4,2152.5z"/>
    <path id="START_x5F_BG_1_" d="M-489.3,2119.7h-368.2c-11.9,0-21.6-9.7-21.6-21.6v-192c0-11.9,9.7-21.6,21.6-21.6h368.2
	c11.9,0,21.6,9.7,21.6,21.6v192C-467.7,2110-477.3,2119.7-489.3,2119.7z"/>
    <g id="START_2_">
        <g id="XMLID_181_">
            <polyline id="XMLID_183_" fill="none" stroke="#EBEBEB" stroke-width="20" stroke-miterlimit="10" points="-798,2005 -852,2005 
			-852,1908 -801,1908 -801,1933 		"/>
            <polyline id="XMLID_182_" fill="none" stroke="#EBEBEB" stroke-width="20" stroke-miterlimit="10" points="-850,2005 -801,2005 
			-801,2101 -852,2101 -852,2070 		"/>
        </g>
        <g id="XMLID_178_">

            <line id="XMLID_180_" fill="none" stroke="#EBEBEB" stroke-width="20" stroke-miterlimit="10" x1="-775" y1="1907" x2="-723" y2="1907"/>

            <line id="XMLID_179_" fill="none" stroke="#EBEBEB" stroke-width="20" stroke-miterlimit="10" x1="-749" y1="1904" x2="-749" y2="2112"/>
        </g>
        <g id="XMLID_175_">

            <line id="XMLID_177_" fill="none" stroke="#EBEBEB" stroke-width="20" stroke-miterlimit="10" x1="-532" y1="1907" x2="-480" y2="1907"/>

            <line id="XMLID_176_" fill="none" stroke="#EBEBEB" stroke-width="20" stroke-miterlimit="10" x1="-506" y1="1904" x2="-506" y2="2112"/>
        </g>
        <g id="XMLID_172_">
            <polyline id="XMLID_174_" fill="none" stroke="#EBEBEB" stroke-width="20" stroke-miterlimit="10" points="-645,2113 -645,1907 
			-697,1907 -697,2113 		"/>

            <line id="XMLID_173_" fill="none" stroke="#EBEBEB" stroke-width="20" stroke-miterlimit="10" x1="-695" y1="2001" x2="-643" y2="2001"/>
        </g>
        <g id="XMLID_168_">
            <polygon id="XMLID_171_" fill="none" stroke="#EBEBEB" stroke-width="20" stroke-miterlimit="10" points="-553,1908 -553,1991.2 
			-560,2004 -605,2004 -605,1908 		"/>

            <line id="XMLID_170_" fill="none" stroke="#EBEBEB" stroke-width="20" stroke-miterlimit="10" x1="-605" y1="2001" x2="-605" y2="2113"/>
            <polyline id="XMLID_169_" fill="none" stroke="#EBEBEB" stroke-width="20" stroke-miterlimit="10" points="-556.6,2005.8 
			-553,2014.7 -553,2113 		"/>
        </g>
    </g>
    <g id="COMBO_2_">
        <g id="XMLID_162_">

            <line id="XMLID_167_" fill="none" stroke="#000000" stroke-width="20" stroke-miterlimit="10" x1="-813" y1="1656" x2="-864" y2="1656"/>

            <line id="XMLID_166_" fill="none" stroke="#000000" stroke-width="20" stroke-miterlimit="10" x1="-867" y1="1646" x2="-867" y2="1875"/>

            <line id="XMLID_165_" fill="none" stroke="#000000" stroke-width="20" stroke-miterlimit="10" x1="-866" y1="1865" x2="-813" y2="1865"/>

            <line id="XMLID_164_" fill="none" stroke="#000000" stroke-width="20" stroke-miterlimit="10" x1="-816" y1="1875" x2="-816" y2="1837"/>

            <line id="XMLID_163_" fill="none" stroke="#000000" stroke-width="20" stroke-miterlimit="10" x1="-815" y1="1682" x2="-815" y2="1646"/>
        </g>

        <rect id="XMLID_161_" x="-778.1" y="1655.8" fill="none" stroke="#000000" stroke-width="20" stroke-miterlimit="10" width="51.6" height="208.5"/>

        <rect id="XMLID_160_" x="-522.1" y="1655.8" fill="none" stroke="#000000" stroke-width="20" stroke-miterlimit="10" width="51.6" height="208.5"/>
        <g id="XMLID_157_">
            <polygon id="XMLID_159_" fill="none" stroke="#000000" stroke-width="20" stroke-miterlimit="10" points="-554,1656 -554,1749.1 
			-555.9,1761 -606,1761 -606,1656 		"/>
            <polygon id="XMLID_158_" fill="none" stroke="#000000" stroke-width="20" stroke-miterlimit="10" points="-554,1864 -554,1769.2 
			-555.9,1762 -606,1762 -606,1864 		"/>
        </g>
        <path id="XMLID_156_" fill="none" stroke="#000000" stroke-width="20" stroke-miterlimit="10" d="M-527,1762.1"/>
        <polyline id="XMLID_155_" fill="none" stroke="#000000" stroke-width="20" stroke-miterlimit="10" points="-640,1874 -640,1656 
		-646.3,1656 -663.5,1681.5 -681,1656 -688,1656 -688,1875 	"/>
    </g>
    <g id="XMLID_269_">
        <circle id="XMLID_271_" fill="#FC1A35" cx="905" cy="926.5" r="899.6"/>
        <polyline id="XMLID_273_" fill="none" stroke="#EBEBEB" stroke-width="40" stroke-miterlimit="10" points="531,1277 373,1277 
		373,1024 523,1024 523,1089 	"/>
        <polyline id="XMLID_274_" fill="none" stroke="#EBEBEB" stroke-width="40" stroke-miterlimit="10" points="379,1277 523,1277 
		523,1527 373,1527 373,1447 	"/>

        <line id="XMLID_275_" fill="none" stroke="#EBEBEB" stroke-width="40" stroke-miterlimit="10" x1="599" y1="1021" x2="753" y2="1021"/>

        <line id="XMLID_276_" fill="none" stroke="#EBEBEB" stroke-width="40" stroke-miterlimit="10" x1="675" y1="1012" x2="675" y2="1556"/>

        <line id="XMLID_277_" fill="none" stroke="#EBEBEB" stroke-width="40" stroke-miterlimit="10" x1="1316" y1="1021" x2="1468" y2="1021"/>

        <line id="XMLID_278_" fill="none" stroke="#EBEBEB" stroke-width="40" stroke-miterlimit="10" x1="1392" y1="1012" x2="1392" y2="1556"/>
        <polyline id="XMLID_279_" fill="none" stroke="#EBEBEB" stroke-width="40" stroke-miterlimit="10" points="982,1560 982,1021 
		829,1021 829,1560 	"/>

        <line id="XMLID_280_" fill="none" stroke="#EBEBEB" stroke-width="40" stroke-miterlimit="10" x1="835" y1="1267" x2="987" y2="1267"/>
        <polygon id="XMLID_281_" fill="none" stroke="#EBEBEB" stroke-width="40" stroke-miterlimit="10" points="1252,1024 1252,1171 
		1212.1,1216 1100,1216 1100,1024 	"/>

        <line id="XMLID_282_" fill="none" stroke="#EBEBEB" stroke-width="40" stroke-miterlimit="10" x1="1100" y1="1240" x2="1100" y2="1560"/>
        <polyline id="XMLID_283_" fill="none" stroke="#EBEBEB" stroke-width="40" stroke-miterlimit="10" points="1186.7,1211.2 
		1252,1302.3 1252,1560 	"/>

        <line id="XMLID_284_" fill="none" stroke="#EBEBEB" stroke-width="49" stroke-miterlimit="10" x1="482" y1="376.5" x2="331" y2="376.5"/>

        <line id="XMLID_285_" fill="none" stroke="#EBEBEB" stroke-width="49" stroke-miterlimit="10" x1="315.5" y1="352" x2="315.5" y2="863"/>

        <line id="XMLID_286_" fill="none" stroke="#EBEBEB" stroke-width="49" stroke-miterlimit="10" x1="325" y1="838.5" x2="482" y2="838.5"/>

        <line id="XMLID_287_" fill="none" stroke="#EBEBEB" stroke-width="49" stroke-miterlimit="10" x1="465.5" y1="863" x2="465.5" y2="741"/>

        <line id="XMLID_288_" fill="none" stroke="#EBEBEB" stroke-width="49" stroke-miterlimit="10" x1="468.5" y1="465" x2="468.5" y2="352"/>

        <rect id="XMLID_289_" x="584.4" y="373.1" fill="none" stroke="#EBEBEB" stroke-width="49" stroke-miterlimit="10" width="151.8" height="454.2"/>

        <rect id="XMLID_290_" x="1338.1" y="373.1" fill="none" stroke="#EBEBEB" stroke-width="49" stroke-miterlimit="10" width="151.8" height="454.2"/>
        <polygon id="XMLID_291_" fill="none" stroke="#EBEBEB" stroke-width="49" stroke-miterlimit="10" points="1237.5,380.5 1237.5,535 
		1201,596.5 1084.5,596.5 1084.5,380.5 	"/>
        <polygon id="XMLID_292_" fill="none" stroke="#EBEBEB" stroke-width="49" stroke-miterlimit="10" points="1237.5,833.5 
		1237.5,650.1 1218.2,618.9 1084.5,618 1084.5,833.5 	"/>
        <polyline id="XMLID_293_" fill="none" stroke="#EBEBEB" stroke-width="49" stroke-miterlimit="10" points="984.5,863 984.5,380.5 
		972.2,380.5 914.1,436 853.8,380.5 842.5,380.5 842.5,862 	"/>
    </g>
    <path id="BG_3_" fill="none" stroke="#000000" stroke-width="20" stroke-miterlimit="10" d="M-2188.5,1969.2h-242.3
	c-28.7,0-51.9-23.2-51.9-51.9v-258.5c0-28.7,23.2-51.9,51.9-51.9h242.3c28.7,0,51.9,23.2,51.9,51.9v258.5
	C-2136.6,1945.9-2159.8,1969.2-2188.5,1969.2z"/>
    <path id="BG_4_" fill="#EBEBEB" d="M-2202.7,1954.2h-213.8c-28.7,0-51.9-23.2-51.9-51.9v-228.7c0-28.7,23.2-51.9,51.9-51.9h213.8
	c28.7,0,51.9,23.2,51.9,51.9v228.7C-2150.9,1931-2174.1,1954.2-2202.7,1954.2z"/>
    <g id="XMLID_265_">
        <path id="BG_2_" fill="none" stroke="#EBEBEB" stroke-width="10" stroke-miterlimit="10" d="M-1288.6,1511.5h-408.2
		c-28.7,0-51.9-23.2-51.9-51.9v-432.2c0-28.7,23.2-51.9,51.9-51.9h408.2c28.7,0,51.9,23.2,51.9,51.9v432.2
		C-1236.8,1488.3-1260,1511.5-1288.6,1511.5z"/>
        <g id="XMLID_119_">
            <polyline id="XMLID_121_" fill="none" stroke="#EBEBEB" stroke-width="20" stroke-miterlimit="10" points="-1637,1384 -1691,1384 
			-1691,1301 -1640,1301 -1640,1323 		"/>
            <polyline id="XMLID_120_" fill="none" stroke="#EBEBEB" stroke-width="20" stroke-miterlimit="10" points="-1689,1384 -1640,1384 
			-1640,1465 -1691,1465 -1691,1439 		"/>
        </g>
        <g id="XMLID_116_">

            <line id="XMLID_118_" fill="none" stroke="#EBEBEB" stroke-width="20" stroke-miterlimit="10" x1="-1609" y1="1301" x2="-1557" y2="1301"/>

            <line id="XMLID_117_" fill="none" stroke="#EBEBEB" stroke-width="20" stroke-miterlimit="10" x1="-1583" y1="1298" x2="-1583" y2="1474"/>
        </g>
        <g id="XMLID_113_">

            <line id="XMLID_115_" fill="none" stroke="#EBEBEB" stroke-width="20" stroke-miterlimit="10" x1="-1337" y1="1301" x2="-1285" y2="1301"/>

            <line id="XMLID_114_" fill="none" stroke="#EBEBEB" stroke-width="20" stroke-miterlimit="10" x1="-1311" y1="1298" x2="-1311" y2="1474"/>
        </g>
        <g id="XMLID_110_">
            <polyline id="XMLID_112_" fill="none" stroke="#EBEBEB" stroke-width="20" stroke-miterlimit="10" points="-1472,1475 -1472,1301 
			-1524,1301 -1524,1475 		"/>

            <line id="XMLID_111_" fill="none" stroke="#EBEBEB" stroke-width="20" stroke-miterlimit="10" x1="-1522" y1="1380" x2="-1470" y2="1380"/>
        </g>
        <g id="XMLID_3_">
            <polygon id="XMLID_109_" fill="none" stroke="#EBEBEB" stroke-width="20" stroke-miterlimit="10" points="-1372,1301 
			-1371,1361.9 -1383.3,1372.7 -1423,1373 -1424,1301 		"/>

            <line id="XMLID_108_" fill="none" stroke="#EBEBEB" stroke-width="20" stroke-miterlimit="10" x1="-1423" y1="1380" x2="-1423" y2="1475"/>
            <polyline id="XMLID_107_" fill="none" stroke="#EBEBEB" stroke-width="20" stroke-miterlimit="10" points="-1385.8,1372.7 
			-1371,1390.3 -1371,1475 		"/>
        </g>
        <g id="XMLID_100_">

            <line id="XMLID_105_" fill="none" stroke="#EBEBEB" stroke-width="20" stroke-miterlimit="10" x1="-1637" y1="1034" x2="-1688" y2="1034"/>

            <line id="XMLID_104_" fill="none" stroke="#EBEBEB" stroke-width="20" stroke-miterlimit="10" x1="-1691" y1="1024" x2="-1691" y2="1253"/>

            <line id="XMLID_103_" fill="none" stroke="#EBEBEB" stroke-width="20" stroke-miterlimit="10" x1="-1690" y1="1243" x2="-1637" y2="1243"/>

            <line id="XMLID_102_" fill="none" stroke="#EBEBEB" stroke-width="20" stroke-miterlimit="10" x1="-1640" y1="1253" x2="-1640" y2="1215"/>

            <line id="XMLID_101_" fill="none" stroke="#EBEBEB" stroke-width="20" stroke-miterlimit="10" x1="-1639" y1="1060" x2="-1639" y2="1024"/>
        </g>

        <rect id="XMLID_99_" x="-1602.1" y="1033.8" fill="none" stroke="#EBEBEB" stroke-width="20" stroke-miterlimit="10" width="51.6" height="208.5"/>

        <rect id="XMLID_98_" x="-1346.1" y="1033.8" fill="none" stroke="#EBEBEB" stroke-width="20" stroke-miterlimit="10" width="51.6" height="208.5"/>
        <g id="XMLID_97_">
            <g id="XMLID_95_">
                <polygon id="XMLID_96_" fill="none" stroke="#EBEBEB" stroke-width="20" stroke-miterlimit="10" points="-1378,1245 
				-1378,1166.7 -1391.5,1146 -1430,1146 -1430,1245 			"/>
            </g>
            <g id="XMLID_106_">
                <polygon id="XMLID_122_" fill="none" stroke="#EBEBEB" stroke-width="20" stroke-miterlimit="10" points="-1378,1034 
				-1378,1111.6 -1391.5,1132.3 -1430,1132.4 -1430,1034 			"/>
            </g>
        </g>
        <polyline id="XMLID_93_" fill="none" stroke="#EBEBEB" stroke-width="20" stroke-miterlimit="10" points="-1464,1252 -1464,1034 
		-1470.3,1034 -1487.5,1059.5 -1505,1034 -1512,1034 -1512,1253 	"/>
    </g>
    <g id="XMLID_33_">
        <path id="BG_1_" fill="none" stroke="#000000" stroke-width="10" stroke-miterlimit="10" d="M-1293.6,2207.5h-408.2
		c-28.7,0-51.9-23.2-51.9-51.9v-432.2c0-28.7,23.2-51.9,51.9-51.9h408.2c28.7,0,51.9,23.2,51.9,51.9v432.2
		C-1241.8,2184.3-1265,2207.5-1293.6,2207.5z"/>
        <g id="XMLID_94_">
            <polyline id="XMLID_267_" fill="none" stroke="#000000" stroke-width="20" stroke-miterlimit="10" points="-1642,2080 -1696,2080 
			-1696,1997 -1645,1997 -1645,2019 		"/>
            <polyline id="XMLID_266_" fill="none" stroke="#000000" stroke-width="20" stroke-miterlimit="10" points="-1694,2080 -1645,2080 
			-1645,2161 -1696,2161 -1696,2135 		"/>
        </g>
        <g id="XMLID_90_">

            <line id="XMLID_92_" fill="none" stroke="#000000" stroke-width="20" stroke-miterlimit="10" x1="-1614" y1="1997" x2="-1562" y2="1997"/>

            <line id="XMLID_91_" fill="none" stroke="#000000" stroke-width="20" stroke-miterlimit="10" x1="-1588" y1="1994" x2="-1588" y2="2170"/>
        </g>
        <g id="XMLID_87_">

            <line id="XMLID_89_" fill="none" stroke="#000000" stroke-width="20" stroke-miterlimit="10" x1="-1342" y1="1997" x2="-1290" y2="1997"/>

            <line id="XMLID_88_" fill="none" stroke="#000000" stroke-width="20" stroke-miterlimit="10" x1="-1316" y1="1994" x2="-1316" y2="2170"/>
        </g>
        <g id="XMLID_84_">
            <polyline id="XMLID_86_" fill="none" stroke="#000000" stroke-width="20" stroke-miterlimit="10" points="-1477,2171 -1477,1997 
			-1529,1997 -1529,2171 		"/>

            <line id="XMLID_85_" fill="none" stroke="#000000" stroke-width="20" stroke-miterlimit="10" x1="-1527" y1="2076" x2="-1475" y2="2076"/>
        </g>
        <g id="XMLID_80_">
            <polygon id="XMLID_83_" fill="none" stroke="#000000" stroke-width="20" stroke-miterlimit="10" points="-1377,1997 -1376,2057.9 
			-1388.3,2068.7 -1428,2069 -1429,1997 		"/>

            <line id="XMLID_82_" fill="none" stroke="#000000" stroke-width="20" stroke-miterlimit="10" x1="-1428" y1="2076" x2="-1428" y2="2171"/>
            <polyline id="XMLID_81_" fill="none" stroke="#000000" stroke-width="20" stroke-miterlimit="10" points="-1390.8,2068.7 
			-1376,2086.3 -1376,2171 		"/>
        </g>
        <g id="XMLID_74_">

            <line id="XMLID_79_" fill="none" stroke="#000000" stroke-width="20" stroke-miterlimit="10" x1="-1642" y1="1730" x2="-1693" y2="1730"/>

            <line id="XMLID_78_" fill="none" stroke="#000000" stroke-width="20" stroke-miterlimit="10" x1="-1696" y1="1720" x2="-1696" y2="1949"/>

            <line id="XMLID_77_" fill="none" stroke="#000000" stroke-width="20" stroke-miterlimit="10" x1="-1695" y1="1939" x2="-1642" y2="1939"/>

            <line id="XMLID_76_" fill="none" stroke="#000000" stroke-width="20" stroke-miterlimit="10" x1="-1645" y1="1949" x2="-1645" y2="1911"/>

            <line id="XMLID_75_" fill="none" stroke="#000000" stroke-width="20" stroke-miterlimit="10" x1="-1644" y1="1756" x2="-1644" y2="1720"/>
        </g>

        <rect id="XMLID_73_" x="-1607.1" y="1729.8" fill="none" stroke="#000000" stroke-width="20" stroke-miterlimit="10" width="51.6" height="208.5"/>

        <rect id="XMLID_72_" x="-1351.1" y="1729.8" fill="none" stroke="#000000" stroke-width="20" stroke-miterlimit="10" width="51.6" height="208.5"/>
        <g id="XMLID_54_">
            <g id="XMLID_70_">
                <polygon id="XMLID_71_" fill="none" stroke="#000000" stroke-width="20" stroke-miterlimit="10" points="-1383,1941 
				-1383,1862.7 -1396.5,1842 -1435,1842 -1435,1941 			"/>
            </g>
            <g id="XMLID_68_">
                <polygon id="XMLID_69_" fill="none" stroke="#000000" stroke-width="20" stroke-miterlimit="10" points="-1383,1730 
				-1383,1807.6 -1396.5,1828.3 -1435,1828.4 -1435,1730 			"/>
            </g>
        </g>
        <polyline id="XMLID_34_" fill="none" stroke="#000000" stroke-width="20" stroke-miterlimit="10" points="-1469,1948 -1469,1730 
		-1475.3,1730 -1492.5,1755.5 -1510,1730 -1517,1730 -1517,1949 	"/>
    </g>
    <g id="XMLID_123_">
        <g id="XMLID_152_">
            <polyline id="XMLID_154_" fill="none" stroke="#000000" stroke-width="20" stroke-miterlimit="10" points="-2208,1789 -2279,1789 
			-2279,1650 -2212,1650 -2212,1687 		"/>
            <polyline id="XMLID_153_" fill="none" stroke="#000000" stroke-width="20" stroke-miterlimit="10" points="-2276,1789 -2212,1789 
			-2212,1929 -2279,1929 -2279,1884 		"/>
        </g>
        <g id="XMLID_133_">

            <line id="XMLID_138_" fill="none" stroke="#000000" stroke-width="20" stroke-miterlimit="10" x1="-2340" y1="1648" x2="-2407" y2="1648"/>

            <line id="XMLID_137_" fill="none" stroke="#000000" stroke-width="20" stroke-miterlimit="10" x1="-2411" y1="1638" x2="-2411" y2="1939"/>

            <line id="XMLID_136_" fill="none" stroke="#000000" stroke-width="20" stroke-miterlimit="10" x1="-2410" y1="1929" x2="-2340" y2="1929"/>

            <line id="XMLID_135_" fill="none" stroke="#000000" stroke-width="20" stroke-miterlimit="10" x1="-2344" y1="1939" x2="-2344" y2="1889"/>

            <line id="XMLID_134_" fill="none" stroke="#000000" stroke-width="20" stroke-miterlimit="10" x1="-2343" y1="1685" x2="-2343" y2="1638"/>
        </g>
    </g>
    <g id="XMLID_1_">
        <g id="XMLID_219_">
            <circle id="XMLID_249_" fill="#F9192A" cx="3211" cy="1533" r="351.5"/>
            <circle id="XMLID_248_" fill="none" stroke="#EBEBEB" stroke-width="20" stroke-miterlimit="10" cx="3211" cy="1533" r="351.5"/>
        </g>
        <g id="XMLID_14_">
            <g id="XMLID_226_">
                <polyline id="XMLID_228_" fill="none" stroke="#EBEBEB" stroke-width="50" stroke-miterlimit="10" points="3378,1532 3268,1532 
				3268,1338 3361,1338 3361,1395 			"/>
                <polyline id="XMLID_227_" fill="none" stroke="#EBEBEB" stroke-width="50" stroke-miterlimit="10" points="3283,1532 3361,1532 
				3361,1727 3268,1727 3268,1654 			"/>
            </g>
            <g id="XMLID_220_">

                <line id="XMLID_225_" fill="none" stroke="#EBEBEB" stroke-width="50" stroke-miterlimit="10" x1="3154" y1="1341" x2="3061" y2="1341"/>

                <line id="XMLID_224_" fill="none" stroke="#EBEBEB" stroke-width="50" stroke-miterlimit="10" x1="3044" y1="1316" x2="3044" y2="1751"/>

                <line id="XMLID_223_" fill="none" stroke="#EBEBEB" stroke-width="50" stroke-miterlimit="10" x1="3056" y1="1726" x2="3154" y2="1726"/>

                <line id="XMLID_222_" fill="none" stroke="#EBEBEB" stroke-width="50" stroke-miterlimit="10" x1="3137" y1="1751" x2="3137" y2="1651"/>

                <line id="XMLID_221_" fill="none" stroke="#EBEBEB" stroke-width="50" stroke-miterlimit="10" x1="3139" y1="1411" x2="3139" y2="1316"/>
            </g>
        </g>
    </g>
    <g id="XMLID_125_">
        <g id="XMLID_140_">
            <path id="XMLID_126_" fill="#EBEBEB" d="M-2309.6,1789.5c1.9,0,1.9-3,0-3C-2311.6,1786.5-2311.6,1789.5-2309.6,1789.5
			L-2309.6,1789.5z"/>
        </g>
    </g>
    <g id="XMLID_124_">
        <circle id="XMLID_127_" fill="#F9192A" cx="1929" cy="2681.5" r="351.5"/>
        <circle id="XMLID_218_" fill="none" stroke="#EBEBEB" stroke-width="20" stroke-miterlimit="10" cx="1929" cy="2681.5" r="351.5"/>
        <g id="START_3_">
            <g id="XMLID_215_">
                <polyline id="XMLID_217_" fill="none" stroke="#EBEBEB" stroke-width="20" stroke-miterlimit="10" points="1802,2823 1748,2823 
				1748,2726 1799,2726 1799,2751 			"/>
                <polyline id="XMLID_216_" fill="none" stroke="#EBEBEB" stroke-width="20" stroke-miterlimit="10" points="1750,2823 1799,2823 
				1799,2919 1748,2919 1748,2888 			"/>
            </g>
            <g id="XMLID_212_">

                <line id="XMLID_214_" fill="none" stroke="#EBEBEB" stroke-width="20" stroke-miterlimit="10" x1="1825" y1="2725" x2="1877" y2="2725"/>

                <line id="XMLID_213_" fill="none" stroke="#EBEBEB" stroke-width="20" stroke-miterlimit="10" x1="1851" y1="2722" x2="1851" y2="2930"/>
            </g>
            <g id="XMLID_209_">

                <line id="XMLID_211_" fill="none" stroke="#EBEBEB" stroke-width="20" stroke-miterlimit="10" x1="2068" y1="2725" x2="2120" y2="2725"/>

                <line id="XMLID_210_" fill="none" stroke="#EBEBEB" stroke-width="20" stroke-miterlimit="10" x1="2094" y1="2722" x2="2094" y2="2930"/>
            </g>
            <g id="XMLID_206_">
                <polyline id="XMLID_208_" fill="none" stroke="#EBEBEB" stroke-width="20" stroke-miterlimit="10" points="1955,2931 1955,2725 
				1903,2725 1903,2931 			"/>

                <line id="XMLID_207_" fill="none" stroke="#EBEBEB" stroke-width="20" stroke-miterlimit="10" x1="1905" y1="2819" x2="1957" y2="2819"/>
            </g>
            <g id="XMLID_202_">
                <polygon id="XMLID_205_" fill="none" stroke="#EBEBEB" stroke-width="20" stroke-miterlimit="10" points="2047,2726 2047,2788.2 
				2033.1,2800 1995,2800 1995,2726 			"/>

                <line id="XMLID_204_" fill="none" stroke="#EBEBEB" stroke-width="20" stroke-miterlimit="10" x1="1995" y1="2809" x2="1995" y2="2931"/>
                <polyline id="XMLID_203_" fill="none" stroke="#EBEBEB" stroke-width="20" stroke-miterlimit="10" points="2024.8,2797.7 
				2047,2832.7 2047,2931 			"/>
            </g>
        </g>
        <g id="COMBO_3_">
            <g id="XMLID_196_">

                <line id="XMLID_201_" fill="none" stroke="#EBEBEB" stroke-width="20" stroke-miterlimit="10" x1="1785" y1="2469" x2="1734" y2="2469"/>

                <line id="XMLID_200_" fill="none" stroke="#EBEBEB" stroke-width="20" stroke-miterlimit="10" x1="1731" y1="2459" x2="1731" y2="2688"/>

                <line id="XMLID_199_" fill="none" stroke="#EBEBEB" stroke-width="20" stroke-miterlimit="10" x1="1732" y1="2678" x2="1785" y2="2678"/>

                <line id="XMLID_198_" fill="none" stroke="#EBEBEB" stroke-width="20" stroke-miterlimit="10" x1="1782" y1="2688" x2="1782" y2="2650"/>

                <line id="XMLID_197_" fill="none" stroke="#EBEBEB" stroke-width="20" stroke-miterlimit="10" x1="1783" y1="2495" x2="1783" y2="2459"/>
            </g>

            <rect id="XMLID_195_" x="1819.9" y="2468.8" fill="none" stroke="#EBEBEB" stroke-width="20" stroke-miterlimit="10" width="51.6" height="208.5"/>

            <rect id="XMLID_192_" x="2075.9" y="2468.8" fill="none" stroke="#EBEBEB" stroke-width="20" stroke-miterlimit="10" width="51.6" height="208.5"/>
            <g id="XMLID_187_">
                <polygon id="XMLID_189_" fill="none" stroke="#EBEBEB" stroke-width="20" stroke-miterlimit="10" points="2044,2469 2044,2562.1 
				2042.1,2574 1992,2574 1992,2469 			"/>
                <polygon id="XMLID_188_" fill="none" stroke="#EBEBEB" stroke-width="20" stroke-miterlimit="10" points="2044,2677 2044,2582.2 
				2042.1,2575 1992,2575 1992,2677 			"/>
            </g>
            <path id="XMLID_186_" fill="none" stroke="#EBEBEB" stroke-width="20" stroke-miterlimit="10" d="M2071,2575.1"/>
            <polyline id="XMLID_185_" fill="none" stroke="#EBEBEB" stroke-width="20" stroke-miterlimit="10" points="1958,2687 1958,2469 
			1951.7,2469 1934.5,2494.5 1917,2469 1910,2469 1910,2688 		"/>
        </g>
        <g id="XMLID_128_">
            <g id="XMLID_129_">
                <polyline id="XMLID_130_" fill="none" stroke="#005EFF" stroke-width="20" stroke-miterlimit="10" points="1758,3197 1758,3101 
				1706,3101 1706,3197 			"/>

                <line id="XMLID_132_" fill="none" stroke="#005EFF" stroke-width="20" stroke-miterlimit="10" x1="1708" y1="3145" x2="1760" y2="3145"/>
            </g>
            <g id="XMLID_146_">
                <polyline id="XMLID_148_" fill="none" stroke="#005EFF" stroke-width="20" stroke-miterlimit="10" points="2144,3198 2144,3102 
				2092,3102 2092,3198 			"/>

                <line id="XMLID_147_" fill="none" stroke="#005EFF" stroke-width="20" stroke-miterlimit="10" x1="2094" y1="3146" x2="2146" y2="3146"/>
            </g>
            <polyline id="XMLID_139_" fill="none" stroke="#005EFF" stroke-width="20" stroke-miterlimit="10" points="1803,3092 1803,3188 
			1859,3188 		"/>
            <g id="XMLID_150_">
                <polyline id="XMLID_145_" fill="none" stroke="#005EFF" stroke-width="20" stroke-miterlimit="10" points="1897,3198 1897,3102 
				1938,3102 			"/>
                <polyline id="XMLID_149_" fill="none" stroke="#005EFF" stroke-width="20" stroke-miterlimit="10" points="1927,3102 1948,3102 
				1948,3145 1901,3145 			"/>
            </g>
            <g id="XMLID_144_">

                <line id="XMLID_151_" fill="none" stroke="#005EFF" stroke-width="20" stroke-miterlimit="10" x1="1991" y1="3095" x2="1991" y2="3197"/>
                <g id="XMLID_184_">

                    <line id="XMLID_229_" fill="none" stroke="#005EFF" stroke-width="20" stroke-miterlimit="10" x1="2046" y1="3096" x2="2046" y2="3198"/>

                    <line id="XMLID_263_" fill="none" stroke="#005EFF" stroke-width="20" stroke-miterlimit="10" x1="1991" y1="3145" x2="2050" y2="3145"/>
                </g>
            </g>
        </g>
    </g>
</svg>
