<svg width="10" height="10" viewBox="0 0 10 10" fill="none" xmlns="http://www.w3.org/2000/svg">
<path d="M0.777777 10L4.27778 6.5C4.55556 6.72222 4.875 6.89815 5.23611 7.02778C5.59722 7.15741 5.98148 7.22222 6.38889 7.22222C7.39815 7.22222 8.25222 6.87259 8.95111 6.17333C9.65 5.47407 9.99963 4.62 10 3.61111C10 2.60185 9.65037 1.74778 8.95111 1.04889C8.25185 0.35 7.39778 0.00037037 6.38889 0C5.37963 0 4.52556 0.34963 3.82667 1.04889C3.12778 1.74815 2.77815 2.60222 2.77778 3.61111C2.77778 4.01852 2.84259 4.40278 2.97222 4.76389C3.10185 5.125 3.27778 5.44444 3.5 5.72222L0 9.22222L0.777777 10ZM6.38889 6.11111C5.69444 6.11111 5.10407 5.86796 4.61778 5.38167C4.13148 4.89537 3.88852 4.30519 3.88889 3.61111C3.88889 2.91667 4.13204 2.3263 4.61833 1.84C5.10463 1.3537 5.69481 1.11074 6.38889 1.11111C7.08333 1.11111 7.6737 1.35426 8.16 1.84056C8.6463 2.32685 8.88926 2.91704 8.88889 3.61111C8.88889 4.30556 8.64574 4.89593 8.15944 5.38222C7.67315 5.86852 7.08296 6.11148 6.38889 6.11111Z" fill="#F8F8F8"/>
</svg>