<svg width="19" height="21" viewBox="0 0 19 21" fill="none" xmlns="http://www.w3.org/2000/svg">
<path d="M13.782 9.608C13.62 6.621 11.988 4.911 9.248 4.894C7.596 4.884 6.215 5.584 5.369 6.867L6.877 7.9C7.511 6.939 8.512 6.74 9.237 6.747C10.14 6.753 10.82 7.015 11.261 7.527C11.581 7.899 11.796 8.414 11.903 9.063C11.103 8.927 10.237 8.885 9.313 8.938C6.707 9.088 5.033 10.608 5.145 12.719C5.202 13.79 5.735 14.712 6.647 15.314C7.417 15.823 8.411 16.071 9.442 16.015C10.805 15.94 11.874 15.42 12.62 14.47C13.186 13.748 13.544 12.812 13.702 11.634C14.352 12.026 14.832 12.541 15.099 13.161C15.551 14.215 15.577 15.947 14.164 17.359C12.926 18.595 11.438 19.131 9.189 19.147C6.694 19.129 4.807 18.328 3.581 16.769C2.431 15.309 1.838 13.199 1.816 10.5C1.838 7.8 2.432 5.691 3.581 4.23C4.807 2.671 6.694 1.871 9.189 1.853C11.702 1.872 13.621 2.675 14.895 4.243C15.52 5.011 15.99 5.977 16.301 7.103L18.067 6.633C17.69 5.246 17.098 4.051 16.293 3.06C14.66 1.05 12.26 0.021 9.183 0C6.112 0.021 3.75 1.055 2.164 3.071C0.753 4.866 0.024 7.377 0 10.507C0.024 13.637 0.753 16.134 2.164 17.929C3.751 19.945 6.124 20.979 9.194 21C11.925 20.981 13.849 20.266 15.434 18.683C17.509 16.61 17.446 14.013 16.763 12.419C16.238 11.194 15.193 10.213 13.783 9.609L13.782 9.608ZM9.344 14.165C8.202 14.229 7.016 13.717 6.957 12.619C6.914 11.805 7.537 10.897 9.414 10.789C10.2623 10.732 11.1144 10.7906 11.947 10.963C11.731 13.665 10.462 14.103 9.344 14.165Z" fill="#EBEBEB"/>
</svg>
