<svg width="420" height="86" viewBox="0 0 420 86" fill="none" xmlns="http://www.w3.org/2000/svg">
<path d="M26.44 84V12.448H0.072V1.56799H66.632V12.448H40.392V84H26.44ZM77.814 84V1.56799H91.766V37.408H131.446V1.56799H145.398V84H131.446V48.16H91.766V84H77.814ZM161.564 84V1.56799H199.452C208.668 1.56799 215.367 3.95733 219.548 8.736C223.815 13.4293 225.948 19.8293 225.948 27.936C225.948 33.7387 224.497 38.688 221.596 42.784C218.695 46.88 214.513 49.7387 209.052 51.36C210.588 52.4693 211.783 53.664 212.636 54.944C213.489 56.224 214.343 57.9307 215.196 60.064L225.564 84H211.228L201.116 60.96C200.177 58.7413 199.025 57.1627 197.66 56.224C196.38 55.2853 194.161 54.816 191.004 54.816H175.516V84H161.564ZM175.516 43.552H195.74C200.775 43.552 204.743 42.3147 207.644 39.84C210.545 37.3653 211.996 33.3973 211.996 27.936C211.996 17.6107 207.004 12.448 197.02 12.448H175.516V43.552ZM274.294 85.28C261.238 85.28 251.467 81.8667 244.982 75.04C238.497 68.128 235.254 57.4613 235.254 43.04C235.254 28.0213 238.497 17.1413 244.982 10.4C251.467 3.65866 261.238 0.287994 274.294 0.287994C287.435 0.287994 297.206 3.65866 303.606 10.4C310.091 17.1413 313.334 28.0213 313.334 43.04C313.334 57.4613 310.091 68.128 303.606 75.04C297.206 81.8667 287.435 85.28 274.294 85.28ZM274.294 73.504C282.913 73.504 289.227 71.1573 293.238 66.464C297.334 61.6853 299.382 53.8773 299.382 43.04C299.382 31.6053 297.334 23.6267 293.238 19.104C289.227 14.496 282.913 12.192 274.294 12.192C265.761 12.192 259.446 14.496 255.35 19.104C251.339 23.6267 249.334 31.6053 249.334 43.04C249.334 53.8773 251.339 61.6853 255.35 66.464C259.446 71.1573 265.761 73.504 274.294 73.504ZM338.582 84L319.382 1.56799H333.078L347.03 63.392L362.646 11.552V1.56799H374.038L391.574 63.392L405.782 1.56799H419.35L400.278 84H386.582L370.07 26.272L352.534 84H338.582Z" fill="white"/>
<path d="M26.44 84H24.94V85.5H26.44V84ZM26.44 12.448H27.94V10.948H26.44V12.448ZM0.072 12.448H-1.428V13.948H0.072V12.448ZM0.072 1.56799V0.0679932H-1.428V1.56799H0.072ZM66.632 1.56799H68.132V0.0679932H66.632V1.56799ZM66.632 12.448V13.948H68.132V12.448H66.632ZM40.392 12.448V10.948H38.892V12.448H40.392ZM40.392 84V85.5H41.892V84H40.392ZM27.94 84V12.448H24.94V84H27.94ZM26.44 10.948H0.072V13.948H26.44V10.948ZM1.572 12.448V1.56799H-1.428V12.448H1.572ZM0.072 3.06799H66.632V0.0679932H0.072V3.06799ZM65.132 1.56799V12.448H68.132V1.56799H65.132ZM66.632 10.948H40.392V13.948H66.632V10.948ZM38.892 12.448V84H41.892V12.448H38.892ZM40.392 82.5H26.44V85.5H40.392V82.5ZM77.814 84H76.314V85.5H77.814V84ZM77.814 1.56799V0.0679932H76.314V1.56799H77.814ZM91.766 1.56799H93.266V0.0679932H91.766V1.56799ZM91.766 37.408H90.266V38.908H91.766V37.408ZM131.446 37.408V38.908H132.946V37.408H131.446ZM131.446 1.56799V0.0679932H129.946V1.56799H131.446ZM145.398 1.56799H146.898V0.0679932H145.398V1.56799ZM145.398 84V85.5H146.898V84H145.398ZM131.446 84H129.946V85.5H131.446V84ZM131.446 48.16H132.946V46.66H131.446V48.16ZM91.766 48.16V46.66H90.266V48.16H91.766ZM91.766 84V85.5H93.266V84H91.766ZM79.314 84V1.56799H76.314V84H79.314ZM77.814 3.06799H91.766V0.0679932H77.814V3.06799ZM90.266 1.56799V37.408H93.266V1.56799H90.266ZM91.766 38.908H131.446V35.908H91.766V38.908ZM132.946 37.408V1.56799H129.946V37.408H132.946ZM131.446 3.06799H145.398V0.0679932H131.446V3.06799ZM143.898 1.56799V84H146.898V1.56799H143.898ZM145.398 82.5H131.446V85.5H145.398V82.5ZM132.946 84V48.16H129.946V84H132.946ZM131.446 46.66H91.766V49.66H131.446V46.66ZM90.266 48.16V84H93.266V48.16H90.266ZM91.766 82.5H77.814V85.5H91.766V82.5ZM161.564 84H160.064V85.5H161.564V84ZM161.564 1.56799V0.0679932H160.064V1.56799H161.564ZM219.548 8.736L218.419 9.72375L218.429 9.73447L218.438 9.74501L219.548 8.736ZM221.596 42.784L220.372 41.917L221.596 42.784ZM209.052 51.36L208.625 49.922L205.701 50.7901L208.174 52.576L209.052 51.36ZM212.636 54.944L211.388 55.776L212.636 54.944ZM215.196 60.064L213.803 60.6211L213.811 60.6408L213.82 60.6602L215.196 60.064ZM225.564 84V85.5H227.848L226.94 83.4038L225.564 84ZM211.228 84L209.854 84.6028L210.248 85.5H211.228V84ZM201.116 60.96L199.735 61.5445L199.738 61.5537L199.742 61.5628L201.116 60.96ZM197.66 56.224L196.773 57.4336L196.791 57.4471L196.81 57.4601L197.66 56.224ZM175.516 54.816V53.316H174.016V54.816H175.516ZM175.516 84V85.5H177.016V84H175.516ZM175.516 43.552H174.016V45.052H175.516V43.552ZM207.644 39.84L206.671 38.6987L207.644 39.84ZM175.516 12.448V10.948H174.016V12.448H175.516ZM163.064 84V1.56799H160.064V84H163.064ZM161.564 3.06799H199.452V0.0679932H161.564V3.06799ZM199.452 3.06799C208.435 3.06799 214.632 5.39559 218.419 9.72375L220.677 7.74825C216.101 2.51907 208.901 0.0679932 199.452 0.0679932V3.06799ZM218.438 9.74501C222.39 14.092 224.448 20.0952 224.448 27.936H227.448C227.448 19.5634 225.239 12.7667 220.658 7.72699L218.438 9.74501ZM224.448 27.936C224.448 33.4781 223.067 38.1124 220.372 41.917L222.82 43.651C225.928 39.2635 227.448 33.9992 227.448 27.936H224.448ZM220.372 41.917C217.691 45.7022 213.81 48.3828 208.625 49.922L209.479 52.798C215.217 51.0946 219.699 48.0578 222.82 43.651L220.372 41.917ZM208.174 52.576C209.597 53.6039 210.654 54.6751 211.388 55.776L213.884 54.1119C212.911 52.6529 211.579 51.3347 209.93 50.144L208.174 52.576ZM211.388 55.776C212.163 56.9386 212.972 58.5419 213.803 60.6211L216.589 59.5069C215.714 57.3194 214.816 55.5094 213.884 54.1119L211.388 55.776ZM213.82 60.6602L224.188 84.5962L226.94 83.4038L216.572 59.4678L213.82 60.6602ZM225.564 82.5H211.228V85.5H225.564V82.5ZM212.602 83.3972L202.49 60.3572L199.742 61.5628L209.854 84.6028L212.602 83.3972ZM202.497 60.3755C201.495 58.0065 200.195 56.1465 198.51 54.9879L196.81 57.4601C197.856 58.1789 198.859 59.4762 199.735 61.5445L202.497 60.3755ZM198.547 55.0144C196.857 53.7751 194.216 53.316 191.004 53.316V56.316C194.106 56.316 195.903 56.7955 196.773 57.4336L198.547 55.0144ZM191.004 53.316H175.516V56.316H191.004V53.316ZM174.016 54.816V84H177.016V54.816H174.016ZM175.516 82.5H161.564V85.5H175.516V82.5ZM175.516 45.052H195.74V42.052H175.516V45.052ZM195.74 45.052C201.016 45.052 205.368 43.7529 208.617 40.9812L206.671 38.6987C204.117 40.8764 200.534 42.052 195.74 42.052V45.052ZM208.617 40.9812C211.978 38.1152 213.496 33.6405 213.496 27.936H210.496C210.496 33.1541 209.113 36.6155 206.671 38.6987L208.617 40.9812ZM213.496 27.936C213.496 22.5545 212.196 18.2406 209.33 15.2773C206.456 12.3046 202.256 10.948 197.02 10.948V13.948C201.768 13.948 205.056 15.1727 207.174 17.3627C209.3 19.562 210.496 22.9921 210.496 27.936H213.496ZM197.02 10.948H175.516V13.948H197.02V10.948ZM174.016 12.448V43.552H177.016V12.448H174.016ZM244.982 75.04L243.888 76.0664L243.895 76.0731L244.982 75.04ZM244.982 10.4L243.901 9.36005L244.982 10.4ZM303.606 10.4L302.518 11.4328L302.525 11.4399L303.606 10.4ZM303.606 75.04L302.512 74.0136L302.512 74.0141L303.606 75.04ZM293.238 66.464L292.099 65.4878L292.098 65.4895L293.238 66.464ZM293.238 19.104L292.107 20.0888L292.116 20.0999L292.126 20.1109L293.238 19.104ZM255.35 19.104L254.229 18.1075L254.228 18.1088L255.35 19.104ZM255.35 66.464L254.201 67.4283L254.21 67.4394L254.22 67.4503L255.35 66.464ZM274.294 83.78C261.486 83.78 252.176 80.4348 246.07 74.0069L243.895 76.0731C250.759 83.2985 260.99 86.78 274.294 86.78V83.78ZM246.076 74.0136C239.959 67.4944 236.754 57.2736 236.754 43.04H233.754C233.754 57.6491 237.034 68.7616 243.888 76.0664L246.076 74.0136ZM236.754 43.04C236.754 28.1848 239.97 17.7737 246.063 11.4399L243.901 9.36005C237.024 16.5089 233.754 27.8579 233.754 43.04H236.754ZM246.063 11.4399C252.169 5.09333 261.481 1.78799 274.294 1.78799V-1.21201C260.995 -1.21201 250.766 2.22399 243.901 9.36005L246.063 11.4399ZM274.294 1.78799C287.197 1.78799 296.502 5.09572 302.518 11.4328L304.694 9.36723C297.91 2.2216 287.673 -1.21201 274.294 -1.21201V1.78799ZM302.525 11.4399C308.618 17.7737 311.834 28.1848 311.834 43.04H314.834C314.834 27.8579 311.564 16.5089 304.687 9.36005L302.525 11.4399ZM311.834 43.04C311.834 57.2736 308.629 67.4944 302.512 74.0136L304.7 76.0664C311.554 68.7616 314.834 57.6491 314.834 43.04H311.834ZM302.512 74.0141C296.495 80.4324 287.192 83.78 274.294 83.78V86.78C287.678 86.78 297.918 83.3009 304.7 76.0659L302.512 74.0141ZM274.294 75.004C283.17 75.004 289.983 72.582 294.378 67.4385L292.098 65.4895C288.472 69.7327 282.655 72.004 274.294 72.004V75.004ZM294.377 67.4402C298.823 62.2525 300.882 53.9996 300.882 43.04H297.882C297.882 53.755 295.845 61.1182 292.099 65.4878L294.377 67.4402ZM300.882 43.04C300.882 31.5206 298.838 23.0526 294.35 18.0971L292.126 20.1109C295.83 24.2008 297.882 31.6901 297.882 43.04H300.882ZM294.369 18.1192C289.972 13.0666 283.162 10.692 274.294 10.692V13.692C282.663 13.692 288.483 15.9254 292.107 20.0888L294.369 18.1192ZM274.294 10.692C265.503 10.692 258.706 13.0705 254.229 18.1075L256.471 20.1005C260.186 15.9215 266.018 13.692 274.294 13.692V10.692ZM254.228 18.1088C249.834 23.0633 247.834 31.5254 247.834 43.04H250.834C250.834 31.6852 252.845 24.19 256.472 20.0992L254.228 18.1088ZM247.834 43.04C247.834 53.9945 249.848 62.2418 254.201 67.4283L256.499 65.4997C252.831 61.1289 250.834 53.7602 250.834 43.04H247.834ZM254.22 67.4503C258.695 72.578 265.495 75.004 274.294 75.004V72.004C266.026 72.004 260.197 69.7366 256.48 65.4777L254.22 67.4503ZM338.582 84L337.121 84.3403L337.391 85.5H338.582V84ZM319.382 1.56799V0.0679932H317.492L317.921 1.90826L319.382 1.56799ZM333.078 1.56799L334.541 1.23779L334.277 0.0679932H333.078V1.56799ZM347.03 63.392L345.567 63.7222L346.822 69.2835L348.466 63.8246L347.03 63.392ZM362.646 11.552L364.082 11.9846L364.146 11.773V11.552H362.646ZM362.646 1.56799V0.0679932H361.146V1.56799H362.646ZM374.038 1.56799L375.481 1.15868L375.172 0.0679932H374.038V1.56799ZM391.574 63.392L390.131 63.8013L393.036 63.728L391.574 63.392ZM405.782 1.56799V0.0679932H404.588L404.32 1.23203L405.782 1.56799ZM419.35 1.56799L420.811 1.90611L421.237 0.0679932H419.35V1.56799ZM400.278 84V85.5H401.471L401.739 84.3381L400.278 84ZM386.582 84L385.14 84.4125L385.451 85.5H386.582V84ZM370.07 26.272L371.512 25.8595L370.113 20.9688L368.635 25.836L370.07 26.272ZM352.534 84V85.5H353.646L353.969 84.436L352.534 84ZM340.043 83.6597L320.843 1.22772L317.921 1.90826L337.121 84.3403L340.043 83.6597ZM319.382 3.06799H333.078V0.0679932H319.382V3.06799ZM331.615 1.8982L345.567 63.7222L348.493 63.0618L334.541 1.23779L331.615 1.8982ZM348.466 63.8246L364.082 11.9846L361.21 11.1193L345.594 62.9594L348.466 63.8246ZM364.146 11.552V1.56799H361.146V11.552H364.146ZM362.646 3.06799H374.038V0.0679932H362.646V3.06799ZM372.595 1.97731L390.131 63.8013L393.017 62.9827L375.481 1.15868L372.595 1.97731ZM393.036 63.728L407.244 1.90396L404.32 1.23203L390.112 63.056L393.036 63.728ZM405.782 3.06799H419.35V0.0679932H405.782V3.06799ZM417.889 1.22987L398.817 83.6619L401.739 84.3381L420.811 1.90611L417.889 1.22987ZM400.278 82.5H386.582V85.5H400.278V82.5ZM388.024 83.5875L371.512 25.8595L368.628 26.6845L385.14 84.4125L388.024 83.5875ZM368.635 25.836L351.099 83.564L353.969 84.436L371.505 26.708L368.635 25.836ZM352.534 82.5H338.582V85.5H352.534V82.5Z" fill="black"/>
</svg>
