<svg width="14" height="14" viewBox="0 0 14 14" fill="none" xmlns="http://www.w3.org/2000/svg">
<path d="M4.20001 0.333374H9.80001C11.9333 0.333374 13.6667 2.06671 13.6667 4.20004V9.80004C13.6667 10.8255 13.2593 11.809 12.5342 12.5342C11.809 13.2593 10.8255 13.6667 9.80001 13.6667H4.20001C2.06668 13.6667 0.333344 11.9334 0.333344 9.80004V4.20004C0.333344 3.17454 0.740723 2.19104 1.46586 1.46589C2.191 0.740754 3.17451 0.333374 4.20001 0.333374ZM4.06668 1.66671C3.43016 1.66671 2.81971 1.91956 2.36962 2.36965C1.91953 2.81974 1.66668 3.43019 1.66668 4.06671V9.93337C1.66668 11.26 2.74001 12.3334 4.06668 12.3334H9.93334C10.5699 12.3334 11.1803 12.0805 11.6304 11.6304C12.0805 11.1803 12.3333 10.5699 12.3333 9.93337V4.06671C12.3333 2.74004 11.26 1.66671 9.93334 1.66671H4.06668ZM10.5 2.66671C10.721 2.66671 10.933 2.7545 11.0893 2.91078C11.2455 3.06707 11.3333 3.27903 11.3333 3.50004C11.3333 3.72105 11.2455 3.93302 11.0893 4.0893C10.933 4.24558 10.721 4.33337 10.5 4.33337C10.279 4.33337 10.067 4.24558 9.91075 4.0893C9.75447 3.93302 9.66668 3.72105 9.66668 3.50004C9.66668 3.27903 9.75447 3.06707 9.91075 2.91078C10.067 2.7545 10.279 2.66671 10.5 2.66671ZM7.00001 3.66671C7.88406 3.66671 8.73191 4.0179 9.35703 4.64302C9.98215 5.26814 10.3333 6.11599 10.3333 7.00004C10.3333 7.8841 9.98215 8.73194 9.35703 9.35706C8.73191 9.98218 7.88406 10.3334 7.00001 10.3334C6.11595 10.3334 5.26811 9.98218 4.64299 9.35706C4.01787 8.73194 3.66668 7.8841 3.66668 7.00004C3.66668 6.11599 4.01787 5.26814 4.64299 4.64302C5.26811 4.0179 6.11595 3.66671 7.00001 3.66671ZM7.00001 5.00004C6.46958 5.00004 5.96087 5.21075 5.5858 5.58583C5.21072 5.9609 5.00001 6.46961 5.00001 7.00004C5.00001 7.53047 5.21072 8.03918 5.5858 8.41425C5.96087 8.78933 6.46958 9.00004 7.00001 9.00004C7.53044 9.00004 8.03915 8.78933 8.41422 8.41425C8.7893 8.03918 9.00001 7.53047 9.00001 7.00004C9.00001 6.46961 8.7893 5.9609 8.41422 5.58583C8.03915 5.21075 7.53044 5.00004 7.00001 5.00004Z" fill="#1A1919"/>
</svg>
