<svg width="59" height="38" viewBox="0 0 59 38" fill="none" xmlns="http://www.w3.org/2000/svg">
<rect y="18" width="58" height="20" fill="#232323"/>
<path d="M5.95419 15.16C4.94085 15.16 4.07152 14.9947 3.34619 14.664C2.63152 14.3333 2.07152 13.848 1.66619 13.208C1.27152 12.568 1.05285 11.7733 1.01019 10.824C0.999521 10.3867 0.994188 9.91733 0.994188 9.416C0.994188 8.91467 0.999521 8.43467 1.01019 7.976C1.05285 7.048 1.27685 6.264 1.68219 5.624C2.08752 4.97333 2.65285 4.48267 3.37819 4.152C4.10352 3.81067 4.96219 3.64 5.95419 3.64C6.65819 3.64 7.30885 3.73067 7.90619 3.912C8.50352 4.08267 9.02619 4.33867 9.47419 4.68C9.92219 5.01067 10.2689 5.416 10.5142 5.896C10.7702 6.36533 10.9035 6.89867 10.9142 7.496C10.9249 7.592 10.8929 7.672 10.8182 7.736C10.7542 7.8 10.6742 7.832 10.5782 7.832H8.41819C8.27952 7.832 8.17285 7.80533 8.09819 7.752C8.02352 7.688 7.95952 7.576 7.90619 7.416C7.75685 6.85067 7.51152 6.46667 7.17019 6.264C6.83952 6.05067 6.42885 5.944 5.93819 5.944C5.35152 5.944 4.88752 6.10933 4.54619 6.44C4.20485 6.76 4.01819 7.29867 3.98619 8.056C3.95419 8.93067 3.95419 9.82667 3.98619 10.744C4.01819 11.5013 4.20485 12.0453 4.54619 12.376C4.88752 12.696 5.35152 12.856 5.93819 12.856C6.42885 12.856 6.84485 12.7493 7.18619 12.536C7.52752 12.3227 7.76752 11.9387 7.90619 11.384C7.94885 11.224 8.00752 11.1173 8.08219 11.064C8.16752 11 8.27952 10.968 8.41819 10.968H10.5782C10.6742 10.968 10.7542 11 10.8182 11.064C10.8929 11.128 10.9249 11.208 10.9142 11.304C10.9035 11.9013 10.7702 12.44 10.5142 12.92C10.2689 13.3893 9.92219 13.7947 9.47419 14.136C9.02619 14.4667 8.50352 14.7227 7.90619 14.904C7.30885 15.0747 6.65819 15.16 5.95419 15.16ZM17.1726 15.16C16.1912 15.16 15.3379 15 14.6126 14.68C13.8872 14.36 13.3219 13.88 12.9166 13.24C12.5112 12.5893 12.2872 11.7787 12.2446 10.808C12.2339 10.3493 12.2286 9.89067 12.2286 9.432C12.2286 8.97333 12.2339 8.50933 12.2446 8.04C12.2872 7.08 12.5112 6.27467 12.9166 5.624C13.3326 4.96267 13.9032 4.46667 14.6286 4.136C15.3539 3.80533 16.2019 3.64 17.1726 3.64C18.1326 3.64 18.9752 3.80533 19.7006 4.136C20.4366 4.46667 21.0126 4.96267 21.4286 5.624C21.8446 6.27467 22.0686 7.08 22.1006 8.04C22.1219 8.50933 22.1326 8.97333 22.1326 9.432C22.1326 9.89067 22.1219 10.3493 22.1006 10.808C22.0579 11.7787 21.8339 12.5893 21.4286 13.24C21.0232 13.88 20.4579 14.36 19.7326 14.68C19.0072 15 18.1539 15.16 17.1726 15.16ZM17.1726 12.856C17.7379 12.856 18.1966 12.6853 18.5486 12.344C18.9112 12.0027 19.1032 11.4587 19.1246 10.712C19.1459 10.2427 19.1566 9.8 19.1566 9.384C19.1566 8.968 19.1459 8.536 19.1246 8.088C19.1032 7.58667 19.0072 7.18133 18.8366 6.872C18.6766 6.552 18.4526 6.31733 18.1646 6.168C17.8766 6.01867 17.5459 5.944 17.1726 5.944C16.8099 5.944 16.4846 6.01867 16.1966 6.168C15.9086 6.31733 15.6792 6.552 15.5086 6.872C15.3379 7.18133 15.2419 7.58667 15.2206 8.088C15.2099 8.536 15.2046 8.968 15.2046 9.384C15.2046 9.8 15.2099 10.2427 15.2206 10.712C15.2526 11.4587 15.4446 12.0027 15.7966 12.344C16.1486 12.6853 16.6072 12.856 17.1726 12.856ZM24.3872 15C24.2805 15 24.1845 14.9627 24.0992 14.888C24.0245 14.8133 23.9872 14.7173 23.9872 14.6V4.2C23.9872 4.08267 24.0245 3.98667 24.0992 3.912C24.1845 3.83733 24.2805 3.8 24.3872 3.8H26.1152C26.2859 3.8 26.4139 3.848 26.4992 3.944C26.5952 4.02933 26.6539 4.09867 26.6752 4.152L29.4912 9.208L32.3072 4.152C32.3392 4.09867 32.3925 4.02933 32.4672 3.944C32.5525 3.848 32.6859 3.8 32.8672 3.8H34.5792C34.6965 3.8 34.7925 3.83733 34.8672 3.912C34.9525 3.98667 34.9952 4.08267 34.9952 4.2V14.6C34.9952 14.7173 34.9525 14.8133 34.8672 14.888C34.7925 14.9627 34.6965 15 34.5792 15H32.6752C32.5579 15 32.4565 14.9627 32.3712 14.888C32.2965 14.8133 32.2592 14.7173 32.2592 14.6V8.6L30.4512 11.944C30.4085 12.04 30.3445 12.1253 30.2592 12.2C30.1739 12.2747 30.0565 12.312 29.9072 12.312H29.0752C28.9259 12.312 28.8085 12.2747 28.7232 12.2C28.6379 12.1253 28.5685 12.04 28.5152 11.944L26.7072 8.6V14.6C26.7072 14.7173 26.6699 14.8133 26.5952 14.888C26.5205 14.9627 26.4245 15 26.3072 15H24.3872ZM37.6216 15C37.5042 15 37.4082 14.9627 37.3336 14.888C37.2589 14.8133 37.2216 14.7173 37.2216 14.6V4.2C37.2216 4.08267 37.2589 3.98667 37.3336 3.912C37.4082 3.83733 37.5042 3.8 37.6216 3.8H42.5016C43.4189 3.8 44.1709 3.928 44.7576 4.184C45.3442 4.44 45.7762 4.808 46.0536 5.288C46.3416 5.75733 46.4856 6.31733 46.4856 6.968C46.4856 7.352 46.4109 7.69333 46.2616 7.992C46.1229 8.28 45.9469 8.52 45.7336 8.712C45.5309 8.904 45.3389 9.04267 45.1576 9.128C45.5629 9.32 45.9202 9.63467 46.2296 10.072C46.5496 10.5093 46.7096 11.0213 46.7096 11.608C46.7096 12.312 46.5496 12.92 46.2296 13.432C45.9202 13.9333 45.4616 14.3227 44.8536 14.6C44.2562 14.8667 43.5202 15 42.6456 15H37.6216ZM40.0856 12.92H42.3256C42.7842 12.92 43.1309 12.7867 43.3656 12.52C43.6002 12.2533 43.7176 11.9493 43.7176 11.608C43.7176 11.2347 43.5949 10.92 43.3496 10.664C43.1149 10.408 42.7736 10.28 42.3256 10.28H40.0856V12.92ZM40.0856 8.248H42.1816C42.6189 8.248 42.9442 8.136 43.1576 7.912C43.3816 7.688 43.4936 7.4 43.4936 7.048C43.4936 6.70667 43.3816 6.42933 43.1576 6.216C42.9442 5.992 42.6189 5.88 42.1816 5.88H40.0856V8.248ZM53.0632 15.16C52.0819 15.16 51.2285 15 50.5032 14.68C49.7779 14.36 49.2125 13.88 48.8072 13.24C48.4019 12.5893 48.1779 11.7787 48.1352 10.808C48.1245 10.3493 48.1192 9.89067 48.1192 9.432C48.1192 8.97333 48.1245 8.50933 48.1352 8.04C48.1779 7.08 48.4019 6.27467 48.8072 5.624C49.2232 4.96267 49.7939 4.46667 50.5192 4.136C51.2445 3.80533 52.0925 3.64 53.0632 3.64C54.0232 3.64 54.8659 3.80533 55.5912 4.136C56.3272 4.46667 56.9032 4.96267 57.3192 5.624C57.7352 6.27467 57.9592 7.08 57.9912 8.04C58.0125 8.50933 58.0232 8.97333 58.0232 9.432C58.0232 9.89067 58.0125 10.3493 57.9912 10.808C57.9485 11.7787 57.7245 12.5893 57.3192 13.24C56.9139 13.88 56.3485 14.36 55.6232 14.68C54.8979 15 54.0445 15.16 53.0632 15.16ZM53.0632 12.856C53.6285 12.856 54.0872 12.6853 54.4392 12.344C54.8019 12.0027 54.9939 11.4587 55.0152 10.712C55.0365 10.2427 55.0472 9.8 55.0472 9.384C55.0472 8.968 55.0365 8.536 55.0152 8.088C54.9939 7.58667 54.8979 7.18133 54.7272 6.872C54.5672 6.552 54.3432 6.31733 54.0552 6.168C53.7672 6.01867 53.4365 5.944 53.0632 5.944C52.7005 5.944 52.3752 6.01867 52.0872 6.168C51.7992 6.31733 51.5699 6.552 51.3992 6.872C51.2285 7.18133 51.1325 7.58667 51.1112 8.088C51.1005 8.536 51.0952 8.968 51.0952 9.384C51.0952 9.8 51.1005 10.2427 51.1112 10.712C51.1432 11.4587 51.3352 12.0027 51.6872 12.344C52.0392 12.6853 52.4979 12.856 53.0632 12.856Z" fill="#232323"/>
<path d="M8.34288 34.16C7.27621 34.16 6.39088 34.0107 5.68688 33.712C4.98288 33.4027 4.44954 33.0027 4.08688 32.512C3.72421 32.0213 3.53221 31.4987 3.51088 30.944C3.51088 30.8587 3.54288 30.784 3.60688 30.72C3.68154 30.6453 3.76688 30.608 3.86288 30.608H5.87888C6.02821 30.608 6.14021 30.6347 6.21488 30.688C6.30021 30.7413 6.37488 30.8107 6.43888 30.896C6.52421 31.056 6.64154 31.2107 6.79088 31.36C6.95088 31.5093 7.15354 31.632 7.39888 31.728C7.65488 31.8133 7.96954 31.856 8.34288 31.856C8.96154 31.856 9.42554 31.76 9.73488 31.568C10.0549 31.376 10.2149 31.1147 10.2149 30.784C10.2149 30.5493 10.1295 30.3573 9.95888 30.208C9.78821 30.048 9.51088 29.9093 9.12688 29.792C8.75354 29.664 8.25221 29.536 7.62288 29.408C6.81221 29.2373 6.11888 29.0187 5.54288 28.752C4.97754 28.4747 4.54554 28.1173 4.24688 27.68C3.94821 27.232 3.79888 26.6773 3.79888 26.016C3.79888 25.3653 3.98021 24.784 4.34288 24.272C4.71621 23.76 5.23354 23.36 5.89488 23.072C6.55621 22.784 7.34021 22.64 8.24688 22.64C8.98288 22.64 9.62821 22.736 10.1829 22.928C10.7482 23.12 11.2229 23.376 11.6069 23.696C11.9909 24.016 12.2789 24.3573 12.4709 24.72C12.6735 25.072 12.7802 25.4187 12.7909 25.76C12.7909 25.8453 12.7589 25.9253 12.6949 26C12.6309 26.064 12.5509 26.096 12.4549 26.096H10.3429C10.2255 26.096 10.1242 26.0747 10.0389 26.032C9.95354 25.9893 9.87888 25.92 9.81488 25.824C9.75088 25.5893 9.58021 25.3867 9.30288 25.216C9.03621 25.0347 8.68421 24.944 8.24688 24.944C7.77754 24.944 7.40954 25.0293 7.14288 25.2C6.88688 25.36 6.75888 25.6107 6.75888 25.952C6.75888 26.1653 6.82821 26.352 6.96688 26.512C7.11621 26.672 7.35621 26.8107 7.68688 26.928C8.02821 27.0453 8.49221 27.168 9.07888 27.296C10.0495 27.4773 10.8335 27.7067 11.4309 27.984C12.0282 28.2507 12.4655 28.6027 12.7429 29.04C13.0202 29.4667 13.1589 30.0053 13.1589 30.656C13.1589 31.3813 12.9509 32.0107 12.5349 32.544C12.1295 33.0667 11.5642 33.4667 10.8389 33.744C10.1135 34.0213 9.28154 34.16 8.34288 34.16ZM17.5153 34C17.3979 34 17.3019 33.9627 17.2273 33.888C17.1526 33.8133 17.1153 33.7173 17.1153 33.6V25.312H14.2673C14.1499 25.312 14.0539 25.2747 13.9793 25.2C13.9046 25.1147 13.8673 25.0187 13.8673 24.912V23.2C13.8673 23.0827 13.9046 22.9867 13.9793 22.912C14.0539 22.8373 14.1499 22.8 14.2673 22.8H22.8753C22.9926 22.8 23.0886 22.8373 23.1633 22.912C23.2379 22.9867 23.2753 23.0827 23.2753 23.2V24.912C23.2753 25.0187 23.2379 25.1147 23.1633 25.2C23.0886 25.2747 22.9926 25.312 22.8753 25.312H20.0273V33.6C20.0273 33.7173 19.9899 33.8133 19.9153 33.888C19.8406 33.9627 19.7446 34 19.6273 34H17.5153ZM22.9488 34C22.8634 34 22.7834 33.968 22.7088 33.904C22.6448 33.8293 22.6128 33.7493 22.6128 33.664C22.6128 33.6107 22.6181 33.5627 22.6288 33.52L26.3888 23.248C26.4208 23.1307 26.4848 23.0293 26.5807 22.944C26.6874 22.848 26.8314 22.8 27.0128 22.8H29.3808C29.5621 22.8 29.7008 22.848 29.7968 22.944C29.9034 23.0293 29.9728 23.1307 30.0048 23.248L33.7488 33.52C33.7701 33.5627 33.7808 33.6107 33.7808 33.664C33.7808 33.7493 33.7434 33.8293 33.6688 33.904C33.6048 33.968 33.5248 34 33.4288 34H31.4608C31.3008 34 31.1781 33.9627 31.0928 33.888C31.0181 33.8027 30.9701 33.728 30.9488 33.664L30.3248 32.032H26.0528L25.4448 33.664C25.4234 33.728 25.3754 33.8027 25.3008 33.888C25.2261 33.9627 25.0981 34 24.9168 34H22.9488ZM26.7088 29.728H29.6848L28.1808 25.504L26.7088 29.728ZM35.4419 34C35.3245 34 35.2285 33.9627 35.1539 33.888C35.0792 33.8133 35.0419 33.7173 35.0419 33.6V23.2C35.0419 23.0827 35.0792 22.9867 35.1539 22.912C35.2285 22.8373 35.3245 22.8 35.4419 22.8H39.7939C41.1699 22.8 42.2525 23.12 43.0419 23.76C43.8419 24.3893 44.2419 25.2853 44.2419 26.448C44.2419 27.2053 44.0552 27.8453 43.6819 28.368C43.3192 28.8907 42.8392 29.2853 42.2419 29.552L44.4499 33.488C44.4819 33.552 44.4979 33.6107 44.4979 33.664C44.4979 33.7493 44.4605 33.8293 44.3859 33.904C44.3219 33.968 44.2419 34 44.1459 34H42.0339C41.8312 34 41.6819 33.952 41.5859 33.856C41.4899 33.7493 41.4205 33.6533 41.3779 33.568L39.5539 30.048H37.9059V33.6C37.9059 33.7173 37.8685 33.8133 37.7939 33.888C37.7192 33.9627 37.6232 34 37.5059 34H35.4419ZM37.9059 27.792H39.7619C40.2632 27.792 40.6365 27.6693 40.8819 27.424C41.1379 27.1787 41.2659 26.8427 41.2659 26.416C41.2659 26 41.1432 25.664 40.8979 25.408C40.6632 25.152 40.2845 25.024 39.7619 25.024H37.9059V27.792ZM48.859 34C48.7417 34 48.6457 33.9627 48.571 33.888C48.4963 33.8133 48.459 33.7173 48.459 33.6V25.312H45.611C45.4937 25.312 45.3977 25.2747 45.323 25.2C45.2483 25.1147 45.211 25.0187 45.211 24.912V23.2C45.211 23.0827 45.2483 22.9867 45.323 22.912C45.3977 22.8373 45.4937 22.8 45.611 22.8H54.219C54.3363 22.8 54.4323 22.8373 54.507 22.912C54.5817 22.9867 54.619 23.0827 54.619 23.2V24.912C54.619 25.0187 54.5817 25.1147 54.507 25.2C54.4323 25.2747 54.3363 25.312 54.219 25.312H51.371V33.6C51.371 33.7173 51.3337 33.8133 51.259 33.888C51.1843 33.9627 51.0883 34 50.971 34H48.859Z" fill="#D5D5D5"/>
</svg>
