<svg width="353" height="293" viewBox="0 0 353 293" fill="none" xmlns="http://www.w3.org/2000/svg">
<rect width="353" height="213" rx="10" fill="#D6D6D6"/>
<path d="M9 113C9 107.477 13.4772 103 19 103H330C335.523 103 340 107.477 340 113V190C340 195.523 335.523 200 330 200H19C13.4772 200 9 195.523 9 190V113Z" fill="#1A1A1A"/>
<path d="M72 232C72 226.477 76.4772 222 82 222H267C272.523 222 277 226.477 277 232V277C277 282.523 272.523 287 267 287H82C76.4772 287 72 282.523 72 277V232Z" fill="#1A1A1A"/>
<path d="M44.13 84.9C38.43 84.9 33.54 83.97 29.46 82.11C25.44 80.25 22.29 77.52 20.01 73.92C17.79 70.32 16.56 65.85 16.32 60.51C16.26 58.05 16.23 55.41 16.23 52.59C16.23 49.77 16.26 47.07 16.32 44.49C16.56 39.27 17.82 34.86 20.1 31.26C22.38 27.6 25.56 24.84 29.64 22.98C33.72 21.06 38.55 20.1 44.13 20.1C48.09 20.1 51.75 20.61 55.11 21.63C58.47 22.59 61.41 24.03 63.93 25.95C66.45 27.81 68.4 30.09 69.78 32.79C71.22 35.43 71.97 38.43 72.03 41.79C72.09 42.33 71.91 42.78 71.49 43.14C71.13 43.5 70.68 43.68 70.14 43.68H57.99C57.21 43.68 56.61 43.53 56.19 43.23C55.77 42.87 55.41 42.24 55.11 41.34C54.27 38.16 52.89 36 50.97 34.86C49.11 33.66 46.8 33.06 44.04 33.06C40.74 33.06 38.13 33.99 36.21 35.85C34.29 37.65 33.24 40.68 33.06 44.94C32.88 49.86 32.88 54.9 33.06 60.06C33.24 64.32 34.29 67.38 36.21 69.24C38.13 71.04 40.74 71.94 44.04 71.94C46.8 71.94 49.14 71.34 51.06 70.14C52.98 68.94 54.33 66.78 55.11 63.66C55.35 62.76 55.68 62.16 56.1 61.86C56.58 61.5 57.21 61.32 57.99 61.32H70.14C70.68 61.32 71.13 61.5 71.49 61.86C71.91 62.22 72.09 62.67 72.03 63.21C71.97 66.57 71.22 69.6 69.78 72.3C68.4 74.94 66.45 77.22 63.93 79.14C61.41 81 58.47 82.44 55.11 83.46C51.75 84.42 48.09 84.9 44.13 84.9ZM107.233 84.9C101.713 84.9 96.9134 84 92.8334 82.2C88.7534 80.4 85.5734 77.7 83.2934 74.1C81.0134 70.44 79.7534 65.88 79.5134 60.42C79.4534 57.84 79.4234 55.26 79.4234 52.68C79.4234 50.1 79.4534 47.49 79.5134 44.85C79.7534 39.45 81.0134 34.92 83.2934 31.26C85.6334 27.54 88.8434 24.75 92.9234 22.89C97.0034 21.03 101.773 20.1 107.233 20.1C112.633 20.1 117.373 21.03 121.453 22.89C125.593 24.75 128.833 27.54 131.173 31.26C133.513 34.92 134.773 39.45 134.953 44.85C135.073 47.49 135.133 50.1 135.133 52.68C135.133 55.26 135.073 57.84 134.953 60.42C134.713 65.88 133.453 70.44 131.173 74.1C128.893 77.7 125.713 80.4 121.633 82.2C117.553 84 112.753 84.9 107.233 84.9ZM107.233 71.94C110.413 71.94 112.993 70.98 114.973 69.06C117.013 67.14 118.093 64.08 118.213 59.88C118.333 57.24 118.393 54.75 118.393 52.41C118.393 50.07 118.333 47.64 118.213 45.12C118.093 42.3 117.553 40.02 116.593 38.28C115.693 36.48 114.433 35.16 112.813 34.32C111.193 33.48 109.333 33.06 107.233 33.06C105.193 33.06 103.363 33.48 101.743 34.32C100.123 35.16 98.8334 36.48 97.8734 38.28C96.9134 40.02 96.3734 42.3 96.2534 45.12C96.1934 47.64 96.1634 50.07 96.1634 52.41C96.1634 54.75 96.1934 57.24 96.2534 59.88C96.4334 64.08 97.5134 67.14 99.4934 69.06C101.473 70.98 104.053 71.94 107.233 71.94ZM147.816 84C147.216 84 146.676 83.79 146.196 83.37C145.776 82.95 145.566 82.41 145.566 81.75V23.25C145.566 22.59 145.776 22.05 146.196 21.63C146.676 21.21 147.216 21 147.816 21H157.536C158.496 21 159.216 21.27 159.696 21.81C160.236 22.29 160.566 22.68 160.686 22.98L176.526 51.42L192.366 22.98C192.546 22.68 192.846 22.29 193.266 21.81C193.746 21.27 194.496 21 195.516 21H205.146C205.806 21 206.346 21.21 206.766 21.63C207.246 22.05 207.486 22.59 207.486 23.25V81.75C207.486 82.41 207.246 82.95 206.766 83.37C206.346 83.79 205.806 84 205.146 84H194.436C193.776 84 193.206 83.79 192.726 83.37C192.306 82.95 192.096 82.41 192.096 81.75V48L181.926 66.81C181.686 67.35 181.326 67.83 180.846 68.25C180.366 68.67 179.706 68.88 178.866 68.88H174.186C173.346 68.88 172.686 68.67 172.206 68.25C171.726 67.83 171.336 67.35 171.036 66.81L160.866 48V81.75C160.866 82.41 160.656 82.95 160.236 83.37C159.816 83.79 159.276 84 158.616 84H147.816ZM222.259 84C221.599 84 221.059 83.79 220.639 83.37C220.219 82.95 220.009 82.41 220.009 81.75V23.25C220.009 22.59 220.219 22.05 220.639 21.63C221.059 21.21 221.599 21 222.259 21H249.709C254.869 21 259.099 21.72 262.399 23.16C265.699 24.6 268.129 26.67 269.689 29.37C271.309 32.01 272.119 35.16 272.119 38.82C272.119 40.98 271.699 42.9 270.859 44.58C270.079 46.2 269.089 47.55 267.889 48.63C266.749 49.71 265.669 50.49 264.649 50.97C266.929 52.05 268.939 53.82 270.679 56.28C272.479 58.74 273.379 61.62 273.379 64.92C273.379 68.88 272.479 72.3 270.679 75.18C268.939 78 266.359 80.19 262.939 81.75C259.579 83.25 255.439 84 250.519 84H222.259ZM236.119 72.3H248.719C251.299 72.3 253.249 71.55 254.569 70.05C255.889 68.55 256.549 66.84 256.549 64.92C256.549 62.82 255.859 61.05 254.479 59.61C253.159 58.17 251.239 57.45 248.719 57.45H236.119V72.3ZM236.119 46.02H247.909C250.369 46.02 252.199 45.39 253.399 44.13C254.659 42.87 255.289 41.25 255.289 39.27C255.289 37.35 254.659 35.79 253.399 34.59C252.199 33.33 250.369 32.7 247.909 32.7H236.119V46.02ZM309.118 84.9C303.598 84.9 298.798 84 294.718 82.2C290.638 80.4 287.458 77.7 285.178 74.1C282.898 70.44 281.638 65.88 281.398 60.42C281.338 57.84 281.308 55.26 281.308 52.68C281.308 50.1 281.338 47.49 281.398 44.85C281.638 39.45 282.898 34.92 285.178 31.26C287.518 27.54 290.728 24.75 294.808 22.89C298.888 21.03 303.658 20.1 309.118 20.1C314.518 20.1 319.258 21.03 323.338 22.89C327.478 24.75 330.718 27.54 333.058 31.26C335.398 34.92 336.658 39.45 336.838 44.85C336.958 47.49 337.018 50.1 337.018 52.68C337.018 55.26 336.958 57.84 336.838 60.42C336.598 65.88 335.338 70.44 333.058 74.1C330.778 77.7 327.598 80.4 323.518 82.2C319.438 84 314.638 84.9 309.118 84.9ZM309.118 71.94C312.298 71.94 314.878 70.98 316.858 69.06C318.898 67.14 319.978 64.08 320.098 59.88C320.218 57.24 320.278 54.75 320.278 52.41C320.278 50.07 320.218 47.64 320.098 45.12C319.978 42.3 319.438 40.02 318.478 38.28C317.578 36.48 316.318 35.16 314.698 34.32C313.078 33.48 311.218 33.06 309.118 33.06C307.078 33.06 305.248 33.48 303.628 34.32C302.008 35.16 300.718 36.48 299.758 38.28C298.798 40.02 298.258 42.3 298.138 45.12C298.078 47.64 298.048 50.07 298.048 52.41C298.048 54.75 298.078 57.24 298.138 59.88C298.318 64.08 299.398 67.14 301.378 69.06C303.358 70.98 305.938 71.94 309.118 71.94Z" fill="#1A1A1A"/>
<path d="M55.776 189.96C49.376 189.96 44.064 189.064 39.84 187.272C35.616 185.416 32.416 183.016 30.24 180.072C28.064 177.128 26.912 173.992 26.784 170.664C26.784 170.152 26.976 169.704 27.36 169.32C27.808 168.872 28.32 168.648 28.896 168.648H40.992C41.888 168.648 42.56 168.808 43.008 169.128C43.52 169.448 43.968 169.864 44.352 170.376C44.864 171.336 45.568 172.264 46.464 173.16C47.424 174.056 48.64 174.792 50.112 175.368C51.648 175.88 53.536 176.136 55.776 176.136C59.488 176.136 62.272 175.56 64.128 174.408C66.048 173.256 67.008 171.688 67.008 169.704C67.008 168.296 66.496 167.144 65.472 166.248C64.448 165.288 62.784 164.456 60.48 163.752C58.24 162.984 55.232 162.216 51.456 161.448C46.592 160.424 42.432 159.112 38.976 157.512C35.584 155.848 32.992 153.704 31.2 151.08C29.408 148.392 28.512 145.064 28.512 141.096C28.512 137.192 29.6 133.704 31.776 130.632C34.016 127.56 37.12 125.16 41.088 123.432C45.056 121.704 49.76 120.84 55.2 120.84C59.616 120.84 63.488 121.416 66.816 122.568C70.208 123.72 73.056 125.256 75.36 127.176C77.664 129.096 79.392 131.144 80.544 133.32C81.76 135.432 82.4 137.512 82.464 139.56C82.464 140.072 82.272 140.552 81.888 141C81.504 141.384 81.024 141.576 80.448 141.576H67.776C67.072 141.576 66.464 141.448 65.952 141.192C65.44 140.936 64.992 140.52 64.608 139.944C64.224 138.536 63.2 137.32 61.536 136.296C59.936 135.208 57.824 134.664 55.2 134.664C52.384 134.664 50.176 135.176 48.576 136.2C47.04 137.16 46.272 138.664 46.272 140.712C46.272 141.992 46.688 143.112 47.52 144.072C48.416 145.032 49.856 145.864 51.84 146.568C53.888 147.272 56.672 148.008 60.192 148.776C66.016 149.864 70.72 151.24 74.304 152.904C77.888 154.504 80.512 156.616 82.176 159.24C83.84 161.8 84.672 165.032 84.672 168.936C84.672 173.288 83.424 177.064 80.928 180.264C78.496 183.4 75.104 185.8 70.752 187.464C66.4 189.128 61.408 189.96 55.776 189.96ZM110.81 189C110.106 189 109.53 188.776 109.082 188.328C108.634 187.88 108.41 187.304 108.41 186.6V136.872H91.3223C90.6183 136.872 90.0423 136.648 89.5943 136.2C89.1463 135.688 88.9223 135.112 88.9223 134.472V124.2C88.9223 123.496 89.1463 122.92 89.5943 122.472C90.0423 122.024 90.6183 121.8 91.3223 121.8H142.97C143.674 121.8 144.25 122.024 144.698 122.472C145.146 122.92 145.37 123.496 145.37 124.2V134.472C145.37 135.112 145.146 135.688 144.698 136.2C144.25 136.648 143.674 136.872 142.97 136.872H125.882V186.6C125.882 187.304 125.658 187.88 125.21 188.328C124.762 188.776 124.186 189 123.482 189H110.81ZM143.411 189C142.899 189 142.419 188.808 141.971 188.424C141.587 187.976 141.395 187.496 141.395 186.984C141.395 186.664 141.427 186.376 141.491 186.12L164.051 124.488C164.243 123.784 164.627 123.176 165.203 122.664C165.843 122.088 166.707 121.8 167.795 121.8H182.003C183.091 121.8 183.923 122.088 184.499 122.664C185.139 123.176 185.555 123.784 185.747 124.488L208.211 186.12C208.339 186.376 208.403 186.664 208.403 186.984C208.403 187.496 208.179 187.976 207.731 188.424C207.347 188.808 206.867 189 206.291 189H194.483C193.523 189 192.787 188.776 192.275 188.328C191.827 187.816 191.539 187.368 191.411 186.984L187.667 177.192H162.035L158.387 186.984C158.259 187.368 157.971 187.816 157.523 188.328C157.075 188.776 156.307 189 155.219 189H143.411ZM165.971 163.368H183.827L174.803 138.024L165.971 163.368ZM218.37 189C217.666 189 217.09 188.776 216.642 188.328C216.194 187.88 215.97 187.304 215.97 186.6V124.2C215.97 123.496 216.194 122.92 216.642 122.472C217.09 122.024 217.666 121.8 218.37 121.8H244.482C252.738 121.8 259.234 123.72 263.97 127.56C268.77 131.336 271.17 136.712 271.17 143.688C271.17 148.232 270.05 152.072 267.81 155.208C265.634 158.344 262.754 160.712 259.17 162.312L272.418 185.928C272.61 186.312 272.706 186.664 272.706 186.984C272.706 187.496 272.482 187.976 272.034 188.424C271.65 188.808 271.17 189 270.594 189H257.922C256.706 189 255.81 188.712 255.234 188.136C254.658 187.496 254.242 186.92 253.986 186.408L243.042 165.288H233.154V186.6C233.154 187.304 232.93 187.88 232.482 188.328C232.034 188.776 231.458 189 230.754 189H218.37ZM233.154 151.752H244.29C247.298 151.752 249.538 151.016 251.01 149.544C252.546 148.072 253.314 146.056 253.314 143.496C253.314 141 252.578 138.984 251.106 137.448C249.698 135.912 247.426 135.144 244.29 135.144H233.154V151.752ZM298.873 189C298.169 189 297.593 188.776 297.145 188.328C296.697 187.88 296.473 187.304 296.473 186.6V136.872H279.385C278.681 136.872 278.105 136.648 277.657 136.2C277.209 135.688 276.985 135.112 276.985 134.472V124.2C276.985 123.496 277.209 122.92 277.657 122.472C278.105 122.024 278.681 121.8 279.385 121.8H331.033C331.737 121.8 332.313 122.024 332.761 122.472C333.209 122.92 333.433 123.496 333.433 124.2V134.472C333.433 135.112 333.209 135.688 332.761 136.2C332.313 136.648 331.737 136.872 331.033 136.872H313.945V186.6C313.945 187.304 313.721 187.88 313.273 188.328C312.825 188.776 312.249 189 311.545 189H298.873Z" fill="#D9D9D9"/>
<path d="M87.08 277C86.6107 277 86.2267 276.851 85.928 276.552C85.6293 276.253 85.48 275.869 85.48 275.4V233.8C85.48 233.331 85.6293 232.947 85.928 232.648C86.2267 232.349 86.6107 232.2 87.08 232.2H106.6C110.269 232.2 113.277 232.712 115.624 233.736C117.971 234.76 119.699 236.232 120.808 238.152C121.96 240.029 122.536 242.269 122.536 244.872C122.536 246.408 122.237 247.773 121.64 248.968C121.085 250.12 120.381 251.08 119.528 251.848C118.717 252.616 117.949 253.171 117.224 253.512C118.845 254.28 120.275 255.539 121.512 257.288C122.792 259.037 123.432 261.085 123.432 263.432C123.432 266.248 122.792 268.68 121.512 270.728C120.275 272.733 118.44 274.291 116.008 275.4C113.619 276.467 110.675 277 107.176 277H87.08ZM96.936 268.68H105.896C107.731 268.68 109.117 268.147 110.056 267.08C110.995 266.013 111.464 264.797 111.464 263.432C111.464 261.939 110.973 260.68 109.992 259.656C109.053 258.632 107.688 258.12 105.896 258.12H96.936V268.68ZM96.936 249.992H105.32C107.069 249.992 108.371 249.544 109.224 248.648C110.12 247.752 110.568 246.6 110.568 245.192C110.568 243.827 110.12 242.717 109.224 241.864C108.371 240.968 107.069 240.52 105.32 240.52H96.936V249.992ZM138.543 277C138.073 277 137.689 276.851 137.391 276.552C137.092 276.253 136.943 275.869 136.943 275.4V233.8C136.943 233.331 137.092 232.947 137.391 232.648C137.689 232.349 138.073 232.2 138.543 232.2H168.431C168.9 232.2 169.284 232.349 169.583 232.648C169.881 232.947 170.031 233.331 170.031 233.8V239.816C170.031 240.285 169.881 240.669 169.583 240.968C169.284 241.267 168.9 241.416 168.431 241.416H148.015V250.056H167.023C167.492 250.056 167.876 250.227 168.175 250.568C168.473 250.867 168.623 251.251 168.623 251.72V257.288C168.623 257.715 168.473 258.099 168.175 258.44C167.876 258.739 167.492 258.888 167.023 258.888H148.015V267.784H168.943C169.412 267.784 169.796 267.933 170.095 268.232C170.393 268.531 170.543 268.915 170.543 269.384V275.4C170.543 275.869 170.393 276.253 170.095 276.552C169.796 276.851 169.412 277 168.943 277H138.543ZM195.674 277C195.204 277 194.82 276.851 194.522 276.552C194.223 276.253 194.074 275.869 194.074 275.4V242.248H182.682C182.212 242.248 181.828 242.099 181.53 241.8C181.231 241.459 181.082 241.075 181.082 240.648V233.8C181.082 233.331 181.231 232.947 181.53 232.648C181.828 232.349 182.212 232.2 182.682 232.2H217.114C217.583 232.2 217.967 232.349 218.266 232.648C218.564 232.947 218.714 233.331 218.714 233.8V240.648C218.714 241.075 218.564 241.459 218.266 241.8C217.967 242.099 217.583 242.248 217.114 242.248H205.722V275.4C205.722 275.869 205.572 276.253 205.274 276.552C204.975 276.851 204.591 277 204.122 277H195.674ZM223.807 277C223.466 277 223.146 276.872 222.847 276.616C222.591 276.317 222.463 275.997 222.463 275.656C222.463 275.443 222.485 275.251 222.527 275.08L237.567 233.992C237.695 233.523 237.951 233.117 238.335 232.776C238.762 232.392 239.338 232.2 240.063 232.2H249.535C250.261 232.2 250.815 232.392 251.199 232.776C251.626 233.117 251.903 233.523 252.031 233.992L267.007 275.08C267.093 275.251 267.135 275.443 267.135 275.656C267.135 275.997 266.986 276.317 266.688 276.616C266.431 276.872 266.111 277 265.728 277H257.855C257.215 277 256.725 276.851 256.383 276.552C256.085 276.211 255.893 275.912 255.807 275.656L253.311 269.128H236.223L233.791 275.656C233.706 275.912 233.514 276.211 233.215 276.552C232.917 276.851 232.405 277 231.679 277H223.807ZM238.847 259.912H250.751L244.735 243.016L238.847 259.912Z" fill="#F8D939"/>
</svg>