<svg width="24" height="24" viewBox="0 0 24 24" fill="none" xmlns="http://www.w3.org/2000/svg">
<path d="M9.49994 4.27C10.8799 4.53 12.8999 5.14 13.9999 5.5C16.7499 6.45 17.6899 7.63 17.6899 10.29C17.6899 12.89 16.0899 13.87 14.0499 12.89V8.05C14.0499 7.5 13.9499 6.97 13.4099 6.82C12.9999 6.69 12.7599 7.07 12.7599 7.63V19.73L9.49994 18.69V4.27ZM13.3699 17.62L18.6199 15.75C19.2199 15.54 19.3099 15.24 18.8299 15.08C18.3399 14.92 17.4699 14.97 16.8699 15.18L13.3699 16.41V14.45L13.5799 14.38C13.5799 14.38 14.5899 14 15.9999 13.87C17.4299 13.71 19.1699 13.89 20.5299 14.4C22.0699 14.89 22.2499 15.61 21.8599 16.1C21.4599 16.6 20.4999 16.95 20.4999 16.95L13.3699 19.5V17.62ZM3.49994 17.42C1.92994 17 1.65994 16.05 2.37994 15.5C3.04994 15 4.17994 14.65 4.17994 14.65L8.85994 13V14.88L5.49994 16.09C4.89994 16.3 4.80994 16.6 5.28994 16.76C5.76994 16.92 6.64994 16.88 7.23994 16.66L8.85994 16.08V17.77L8.53994 17.83C6.91994 18.09 5.19994 18 3.49994 17.42Z" fill="#F8F8F8"/>
</svg>
