<svg width="256" height="256" viewBox="0 0 256 256" fill="none" xmlns="http://www.w3.org/2000/svg">
<path d="M228 175C227.086 175.521 226.079 175.857 225.035 175.988C223.991 176.119 222.932 176.043 221.918 175.765C220.904 175.486 219.954 175.01 219.124 174.364C218.294 173.718 217.599 172.915 217.08 172L198.08 138.8C187.034 146.269 174.849 151.895 162 155.46L167.87 190.68C168.043 191.717 168.01 192.778 167.773 193.802C167.536 194.826 167.1 195.793 166.489 196.649C165.878 197.504 165.104 198.231 164.212 198.787C163.32 199.343 162.327 199.718 161.29 199.89C160.863 199.96 160.432 199.997 160 200C158.107 199.997 156.277 199.323 154.834 198.099C153.392 196.874 152.43 195.177 152.12 193.31L146.35 158.73C134.182 160.423 121.838 160.423 109.67 158.73L103.9 193.31C103.59 195.18 102.625 196.88 101.178 198.105C99.731 199.33 97.896 200.002 96 200C95.5578 199.998 95.1164 199.961 94.68 199.89C93.643 199.718 92.6501 199.343 91.758 198.787C90.866 198.231 90.0923 197.504 89.4813 196.649C88.8702 195.793 88.4336 194.826 88.1966 193.802C87.9596 192.778 87.9268 191.717 88.1 190.68L94 155.46C81.1563 151.884 68.978 146.247 57.94 138.77L39 172C38.4747 172.915 37.7743 173.718 36.9387 174.363C36.1031 175.007 35.1487 175.481 34.1301 175.757C33.1114 176.033 32.0484 176.105 31.0018 175.97C29.9551 175.835 28.9453 175.495 28.03 174.97C27.1147 174.445 26.3118 173.744 25.6672 172.909C25.0225 172.073 24.5488 171.119 24.273 170.1C23.9972 169.081 23.9248 168.018 24.0598 166.972C24.1948 165.925 24.5347 164.915 25.06 164L45.06 129C38.035 122.931 31.5752 116.237 25.76 109C25.0348 108.19 24.4822 107.241 24.1359 106.211C23.7897 105.181 23.6571 104.09 23.7461 103.007C23.8352 101.924 24.1442 100.87 24.6541 99.9099C25.164 98.9499 25.8642 98.1039 26.7119 97.4235C27.5597 96.7432 28.5372 96.2427 29.5848 95.9527C30.6324 95.6627 31.7281 95.5892 32.805 95.7367C33.8819 95.8842 34.9175 96.2497 35.8485 96.8107C36.7795 97.3718 37.5864 98.1167 38.22 99C54.82 119.54 83.86 144 128 144C172.14 144 201.18 119.51 217.78 99C218.406 98.0986 219.211 97.3358 220.145 96.7589C221.079 96.1821 222.121 95.8035 223.208 95.6469C224.294 95.4902 225.401 95.5587 226.46 95.8483C227.519 96.1378 228.506 96.6421 229.362 97.3297C230.217 98.0174 230.922 98.8738 231.433 99.8455C231.943 100.817 232.248 101.884 232.328 102.978C232.409 104.073 232.263 105.172 231.9 106.208C231.538 107.244 230.966 108.195 230.22 109C224.405 116.237 217.945 122.931 210.92 129L230.92 164C231.457 164.912 231.807 165.922 231.951 166.971C232.095 168.02 232.029 169.087 231.757 170.11C231.486 171.133 231.014 172.092 230.369 172.932C229.724 173.771 228.919 174.474 228 175Z" fill="#444444"/>
</svg>
